<svg xmlns="http://www.w3.org/2000/svg" width="60" height="70" viewBox="0 0 60 70"><defs><linearGradient id="a" x1="-.93" x2="61.86" y1="49.04" y2="18.89" gradientTransform="matrix(1 0 0 -1 0 69.75)" gradientUnits="userSpaceOnUse"><stop offset="0" stop-color="#ff73f6"/><stop offset="1" stop-color="#c005b4"/></linearGradient></defs><path fill="#fff" d="M31.42 22.66a2.3 2.3 0 0 1 3.18.69v.01l5.61 8.72a12.68 12.68 0 1 1-21.35 13.71 12.7 12.7 0 0 1 3.82-17.53l8.73-5.6Z"/><path fill="rgba(241,241,241,.1)" d="M58.55 29.69q.71 4 .3 8c-.18 1.74-1.89 2.82-3.6 2.45l-21.69-4.73-4.73 21.7c-.35 1.6-.03 2.64.37 3.26a3 3 0 0 0 1.88 1.28c.79.17 1.6.05 2.26-.38.62-.4 1.34-1.21 1.69-2.82a3.18 3.18 0 1 1 6.2 1.35 10.5 10.5 0 0 1-4.46 6.8 9.4 9.4 0 0 1-12.9-2.8c-1.42-2.21-1.89-5-1.23-8.05l4.73-21.69-21.69-4.73c-1.71-.38-2.82-2.07-2.25-3.73a28.53 28.53 0 0 1 55.12 4.08"/><path fill="url(#a)" fill-opacity=".6" d="M58.55 29.69q.71 4 .3 8c-.18 1.74-1.89 2.82-3.6 2.45l-21.69-4.73-4.73 21.7c-.35 1.6-.03 2.64.37 3.26a3 3 0 0 0 1.88 1.28c.79.17 1.6.05 2.26-.38.62-.4 1.34-1.21 1.69-2.82a3.18 3.18 0 1 1 6.2 1.35 10.5 10.5 0 0 1-4.46 6.8 9.4 9.4 0 0 1-12.9-2.8c-1.42-2.21-1.89-5-1.23-8.05l4.73-21.69-21.69-4.73c-1.71-.38-2.82-2.07-2.25-3.73a28.53 28.53 0 0 1 55.12 4.08"/></svg>