<svg xmlns="http://www.w3.org/2000/svg" width="262" height="96" viewBox="0 0 262 96"><path fill="#5D54E2" d="M202.9 55.32a6.93 6.93 0 0 0-1.73-3.02 7.36 7.36 0 0 0-3.01-1.75 15.1 15.1 0 0 0-4.28-.54 16.3 16.3 0 0 0-5.15.9c-.72.24-1.37.53-1.96.87-.6.35-1 .64-1.26.94-.26.3-.44.64-.54 1.03-.1.34-.13.78-.13 1.39a7.18 7.18 0 0 0 .3 2.07c.1.29.26.52.44.7.45.43 1.07.43 1.96-.12.38-.23.87-.5 1.43-.78.57-.28 1.23-.55 1.94-.77a8.25 8.25 0 0 1 2.47-.35c.67 0 1.26.1 1.71.26.42.14.74.35 1 .64.24.3.43.68.54 1.16.13.5.18 1.1.18 1.78v.9h-1.54c-1.85 0-3.5.16-4.91.48-1.44.32-2.66.83-3.65 1.5a6.7 6.7 0 0 0-2.24 2.63 8.44 8.44 0 0 0-.75 3.7c0 1.3.19 2.46.59 3.43a6.82 6.82 0 0 0 4.21 4.03c.95.33 2 .5 3.15.5 1.4 0 2.69-.31 3.81-.9.8-.42 1.55-.96 2.23-1.62v.66c0 .45.19.73.33.89.2.2.49.34.92.43.34.06.86.1 1.6.1a8.5 8.5 0 0 0 1.54-.1c.42-.08.73-.2.96-.4.26-.23.38-.57.38-.92V59.56c0-1.62-.17-3.04-.53-4.24Zm-6.1 13.6a8.67 8.67 0 0 1-1.86 1.8 3.5 3.5 0 0 1-2 .62c-.85 0-1.49-.22-1.95-.68-.46-.46-.67-1.09-.67-1.93 0-.5.08-.92.25-1.3.16-.38.4-.68.75-.94a3.9 3.9 0 0 1 1.44-.61 9.95 9.95 0 0 1 2.3-.22h1.74v3.26Zm-14.66-13.35c.2-.44.29-1.13.29-2.01 0-.97-.09-1.66-.28-2.1-.3-.7-.75-.86-1.07-.86h-6.46a12.52 12.52 0 0 0-7.19.13c-1.09.4-2.06 1-2.86 1.77a8.25 8.25 0 0 0-1.87 2.85 10.23 10.23 0 0 0-.66 3.78c0 1.3.17 2.4.5 3.31.3.75.66 1.41 1.1 1.98a8.98 8.98 0 0 0-1.4 2.05c-.44.9-.67 1.9-.67 2.98 0 .89.2 1.71.6 2.47.3.56.7 1.04 1.18 1.42-.33.29-.6.59-.86.87-.4.47-.71.94-1 1.44a6.82 6.82 0 0 0-.82 3.33c0 1 .2 1.9.58 2.72a5.44 5.44 0 0 0 1.9 2.17 9.79 9.79 0 0 0 3.2 1.36c1.24.3 2.8.47 4.6.47 1.84 0 3.47-.22 4.84-.65 1.4-.47 2.6-1.09 3.5-1.85a7.48 7.48 0 0 0 2.15-2.8 8.54 8.54 0 0 0 .19-6.34 6.12 6.12 0 0 0-1.56-2.24 6.66 6.66 0 0 0-2.47-1.44c-.95-.32-2.04-.52-3.26-.58l-5-.2a2.3 2.3 0 0 1-1.38-.43c-.28-.23-.42-.5-.42-.84 0-.3.07-.58.2-.83.04-.13.12-.25.17-.36a7.02 7.02 0 0 0 3.17.75c1.33 0 2.57-.2 3.66-.59a8.2 8.2 0 0 0 2.87-1.72c.8-.76 1.42-1.7 1.82-2.8.42-1.1.64-2.35.64-3.74 0-.62-.06-1.19-.23-1.79a4.77 4.77 0 0 0-.3-.78h1.54c.32 0 .75-.15 1.06-.9Zm-14.1 20.45c.2-.25.44-.5.75-.77l3.95.13c.88.03 1.56.23 2.04.6.43.3.63.76.63 1.37 0 .4-.06.76-.2 1.1-.12.33-.34.64-.63.9a3.9 3.9 0 0 1-1.3.7c-.56.18-1.26.27-2.09.27-1.33 0-2.35-.2-3.06-.6-.63-.37-.92-.86-.92-1.54a2.45 2.45 0 0 1 .29-1.35c.16-.27.32-.55.54-.81Zm5.81-15.68a2.73 2.73 0 0 1-1.47 1.81c-.35.16-.8.25-1.33.25-.96 0-1.67-.28-2.2-.85a3.49 3.49 0 0 1-.8-2.45c0-.5.06-.95.19-1.4a2.83 2.83 0 0 1 1.46-1.86c.37-.18.8-.28 1.3-.28 1 0 1.73.3 2.26.89.53.59.8 1.44.8 2.55-.01.47-.08.92-.2 1.34Zm-17.15-6.58a8.59 8.59 0 0 0-3.2-2.5 11.18 11.18 0 0 0-4.59-.9c-1.7 0-3.25.32-4.6.96a9.48 9.48 0 0 0-3.47 2.74 12.91 12.91 0 0 0-2.16 4.34 20.52 20.52 0 0 0-.73 5.68c0 2.17.23 4.11.69 5.74.48 1.66 1.2 3.06 2.17 4.15a9.04 9.04 0 0 0 3.63 2.48 14 14 0 0 0 4.97.8c1.05 0 2.04-.07 2.94-.22a21.9 21.9 0 0 0 2.43-.52c.7-.2 1.3-.41 1.78-.64.55-.26.83-.44.97-.6a2.02 2.02 0 0 0 .49-1.1 12.43 12.43 0 0 0 .06-2.83 3.17 3.17 0 0 0-.15-.79.98.98 0 0 0-.41-.54c-.37-.27-.84-.26-1.7.1a20.24 20.24 0 0 1-3.29 1.05c-.72.17-1.59.24-2.57.24-.95 0-1.75-.13-2.4-.4a3.88 3.88 0 0 1-1.58-1.13 4.63 4.63 0 0 1-.89-1.86 9.37 9.37 0 0 1-.3-2.06h12.06c.69 0 1.26-.25 1.65-.74.39-.45.59-1.14.59-2.05v-1.03c0-1.64-.2-3.19-.57-4.6-.39-1.45-1-2.72-1.83-3.77Zm-11.89 7.05c.05-.57.15-1.13.3-1.68.17-.64.43-1.22.75-1.7a3.39 3.39 0 0 1 2.91-1.51c1.32 0 2.25.44 2.85 1.36.58.86.9 2.05.9 3.53h-7.7Zm-11.26-7.71a6.9 6.9 0 0 0-2.45-2.25 7.5 7.5 0 0 0-3.67-.83c-.64 0-1.28.07-1.9.26a7.9 7.9 0 0 0-1.82.8 10 10 0 0 0-1.83 1.35c-.46.4-.93.88-1.4 1.4a6.83 6.83 0 0 0-4.15-3.5 8.61 8.61 0 0 0-2.4-.31c-1.3 0-2.58.36-3.78 1.1-.9.55-1.8 1.3-2.69 2.25v-1.4a1.31 1.31 0 0 0-.78-1.22c-.22-.1-.52-.19-.88-.23a7.68 7.68 0 0 0-1.29-.08 7.13 7.13 0 0 0-2.14.3c-.28.12-.48.29-.65.52-.1.2-.16.45-.16.7v22.97c0 .28.08.52.22.72.14.23.37.4.68.5.25.1.57.18 1.02.23.36.05.84.06 1.46.06.6 0 1.08-.01 1.45-.06.42-.05.75-.12 1-.22.3-.12.53-.27.68-.5.15-.2.24-.45.24-.73V59.82a13.23 13.23 0 0 1 2.1-2.42c1.12-.94 2.26-.95 3.04-.48.35.21.62.5.85.88.24.43.43.92.52 1.5.13.59.2 1.26.2 2v13.63a1.26 1.26 0 0 0 .9 1.23c.26.1.58.17 1 .22a12 12 0 0 0 1.47.06c.6 0 1.06-.01 1.43-.06.45-.05.76-.12.99-.22.34-.12.57-.27.69-.49.16-.2.23-.45.23-.73V59.82c.77-1.05 1.5-1.87 2.14-2.42 1.14-.96 2.29-.93 3.02-.48.36.22.64.52.86.9.24.4.43.9.55 1.47.11.6.18 1.28.18 2.03v13.63c0 .27.08.51.2.71.16.24.38.4.69.51.24.1.55.17 1 .22.37.05.85.06 1.48.06.6 0 1.09-.01 1.47-.06.43-.05.75-.13 1-.22.3-.11.52-.28.64-.47.16-.22.25-.47.25-.75v-14.7c0-1.35-.12-2.65-.39-3.87a9.3 9.3 0 0 0-1.27-3.29ZM95.3 45.68a10.95 10.95 0 0 0-4.53-3.23 16.93 16.93 0 0 0-6.15-1.04c-2.43 0-4.6.43-6.42 1.25a12.56 12.56 0 0 0-4.7 3.6 16.46 16.46 0 0 0-2.83 5.69 27.6 27.6 0 0 0-.92 7.41c0 2.95.29 5.56.87 7.76.6 2.2 1.5 4.04 2.68 5.49a10.94 10.94 0 0 0 4.52 3.23 17 17 0 0 0 6.25 1.06c2.4 0 4.55-.42 6.4-1.23a12.59 12.59 0 0 0 4.7-3.63A16.44 16.44 0 0 0 98 66.31c.61-2.22.93-4.76.93-7.54 0-2.92-.3-5.5-.91-7.65-.6-2.17-1.52-4-2.72-5.44Zm-4.04 17.89a11.1 11.1 0 0 1-1.24 3.55 6.42 6.42 0 0 1-2.28 2.36c-.92.58-2.09.87-3.49.87-1.4 0-2.58-.27-3.49-.77a5.49 5.49 0 0 1-2.17-2.16c-.55-.98-.94-2.15-1.2-3.57a29.7 29.7 0 0 1 .02-9.2c.24-1.3.66-2.48 1.24-3.49a6.68 6.68 0 0 1 2.27-2.34c.92-.58 2.1-.88 3.5-.88 1.39 0 2.55.27 3.47.79.9.51 1.64 1.25 2.2 2.2.55.95.95 2.14 1.18 3.5a28.2 28.2 0 0 1-.01 9.14Z"/><path fill="#60BFB9" d="M228.11 41.8c.36 0 .67.13.94.4.27.26.4.57.4.93v3.52c0 .37-.14.68-.4.94-.26.27-.58.4-.94.4h-8.9v27.14c0 .36-.14.67-.4.94-.26.27-.58.4-.94.4h-4.01c-.37 0-.68-.13-.94-.4-.27-.26-.4-.58-.4-.94V47.98h-8.9c-.37 0-.68-.13-.94-.4a1.3 1.3 0 0 1-.4-.93v-3.52c0-.37.14-.68.4-.94.26-.26.57-.4.94-.4h24.49Zm18.84 24.85 8.32-23.62c.1-.27.27-.54.52-.82.25-.27.62-.42 1.11-.42h3.77c.35 0 .67.14.94.4.26.27.39.58.39.94v.18c0 .05-.03.16-.1.32l-11.09 31.15c-.2.56-.43.98-.7 1.26-.25.28-.65.42-1.18.42h-3.96c-.53 0-.92-.14-1.18-.42a3.5 3.5 0 0 1-.7-1.26l-11.08-31.16a1.2 1.2 0 0 1-.1-.32v-.17c0-.37.13-.68.4-.94.26-.26.57-.4.94-.4H237c.5 0 .86.14 1.11.42.25.28.42.55.52.81l8.31 23.63Z"/><path fill="#5D54E2" d="m5.72 31.7-4.91.65a.95.95 0 0 0-.8 1.1l.67 5.09c.07.53.55.91 1.06.84l4.91-.65a.96.96 0 0 0 .81-1.1l-.67-5.09a.96.96 0 0 0-1.07-.84Zm9.27-1.23-4.9.65a.96.96 0 0 0-.81 1.1l.67 5.09c.07.53.56.91 1.07.84l4.9-.65a.96.96 0 0 0 .81-1.1l-.67-5.09a.96.96 0 0 0-1.07-.84Zm9.27-1.23-4.9.65a.97.97 0 0 0-.82 1.1l.68 5.08c.07.54.55.92 1.07.85l4.9-.65a.96.96 0 0 0 .8-1.1l-.67-5.09a.95.95 0 0 0-1.06-.84ZM33.54 28l-4.9.66a.96.96 0 0 0-.81 1.1l.67 5.08c.07.53.54.92 1.07.84l4.9-.64a.98.98 0 0 0 .82-1.1l-.68-5.09a.96.96 0 0 0-1.07-.84Zm9.27-1.23-4.9.65a.96.96 0 0 0-.8 1.1l.67 5.08c.07.54.55.92 1.06.85l4.9-.65a.97.97 0 0 0 .81-1.1l-.67-5.09a.96.96 0 0 0-1.07-.84Zm9.27-1.23-4.9.65a.96.96 0 0 0-.82 1.1l.68 5.09c.07.53.55.91 1.07.84l4.9-.65a.97.97 0 0 0 .82-1.1l-.68-5.09a.97.97 0 0 0-1.07-.84ZM6.97 41.13l-4.92.66a.96.96 0 0 0-.8 1.1l.68 5.08c.07.53.54.91 1.05.84l4.91-.65a.96.96 0 0 0 .81-1.1l-.67-5.08a.95.95 0 0 0-1.06-.85Zm9.27-1.23-4.9.65a.97.97 0 0 0-.8 1.1l.67 5.09c.07.54.55.9 1.06.84l4.9-.65a.96.96 0 0 0 .82-1.1l-.67-5.08a.98.98 0 0 0-1.08-.85Zm9.26-1.23-4.9.66a.97.97 0 0 0-.81 1.1l.67 5.08c.08.54.56.91 1.08.84l4.9-.65a.96.96 0 0 0 .8-1.1l-.67-5.08a.96.96 0 0 0-1.06-.85Zm9.28-1.23-4.9.66a.96.96 0 0 0-.8 1.1l.67 5.08c.07.53.53.91 1.06.84l4.9-.65c.53-.07.9-.56.83-1.1l-.68-5.08a.97.97 0 0 0-1.08-.85Zm9.28-1.24-4.9.66a.97.97 0 0 0-.8 1.1l.67 5.08c.07.54.55.92 1.07.84l4.9-.64a.96.96 0 0 0 .8-1.1l-.67-5.08a.98.98 0 0 0-1.07-.85Zm9.27-1.22-4.9.65a.97.97 0 0 0-.8 1.1l.67 5.08c.07.54.55.92 1.06.85l4.9-.65a.96.96 0 0 0 .82-1.1l-.67-5.08a.96.96 0 0 0-1.08-.85ZM8.22 50.56l-4.92.66a.96.96 0 0 0-.8 1.1l.68 5.08c.07.55.55.93 1.05.86l4.91-.65a.96.96 0 0 0 .81-1.1l-.67-5.1a.95.95 0 0 0-1.06-.85Zm9.26-1.23-4.9.65a.97.97 0 0 0-.8 1.1l.67 5.08c.07.55.56.93 1.07.86l4.9-.65a.96.96 0 0 0 .81-1.1l-.67-5.1a.96.96 0 0 0-1.08-.84Zm27.83-3.69-4.9.64a.97.97 0 0 0-.8 1.1l.67 5.09c.07.54.55.92 1.07.86l4.9-.65a.97.97 0 0 0 .8-1.1l-.67-5.1a.97.97 0 0 0-1.07-.84Zm9.27-1.24-4.9.66a.97.97 0 0 0-.81 1.1l.67 5.08c.07.55.56.93 1.07.86l4.9-.66a.97.97 0 0 0 .82-1.1l-.67-5.1a.97.97 0 0 0-1.08-.84ZM9.47 59.99l-4.92.65c-.5.06-.87.57-.8 1.1l.68 5.1c.07.52.54.91 1.05.84l4.92-.65a.96.96 0 0 0 .8-1.1l-.67-5.1A.97.97 0 0 0 9.47 60Zm9.26-1.23-4.9.64a.98.98 0 0 0-.8 1.1l.67 5.1c.07.53.56.91 1.07.85l4.9-.66a.97.97 0 0 0 .82-1.09l-.68-5.1a.98.98 0 0 0-1.08-.84Zm27.83-3.7-4.9.65a.98.98 0 0 0-.8 1.1l.67 5.1c.07.52.55.91 1.07.85l4.9-.65a.97.97 0 0 0 .8-1.1l-.67-5.1a.97.97 0 0 0-1.07-.85Zm9.67-1.36-4.9.66a.98.98 0 0 0-.81 1.1l.67 5.1c.07.53.55.91 1.07.85l4.9-.66a.97.97 0 0 0 .81-1.09l-.67-5.1a.97.97 0 0 0-1.07-.85ZM10.72 69.42l-4.9.66a.95.95 0 0 0-.8 1.1l.67 5.09c.07.54.54.91 1.05.84l4.91-.65a.95.95 0 0 0 .82-1.1l-.68-5.08a.97.97 0 0 0-1.07-.86Zm9.27-1.22-4.9.64a.97.97 0 0 0-.8 1.1l.67 5.1c.07.54.55.9 1.06.84l4.9-.66a.96.96 0 0 0 .82-1.09l-.67-5.08a.98.98 0 0 0-1.08-.85Zm9.28-1.24-4.9.66a.98.98 0 0 0-.82 1.1l.67 5.09c.07.54.56.9 1.07.84l4.9-.65a.95.95 0 0 0 .81-1.1l-.67-5.08a.95.95 0 0 0-1.06-.86Zm9.27-1.23-4.9.66a.96.96 0 0 0-.8 1.1l.67 5.09c.07.54.53.91 1.06.84l4.9-.65c.52-.07.9-.55.82-1.1l-.67-5.08a.98.98 0 0 0-1.08-.86Zm9.28-1.23-4.9.65a.97.97 0 0 0-.81 1.1l.67 5.09c.08.54.55.91 1.07.84l4.9-.65a.96.96 0 0 0 .8-1.1l-.67-5.08a.97.97 0 0 0-1.06-.85Zm9.27-1.23-4.9.65a.97.97 0 0 0-.81 1.1l.67 5.1c.07.54.55.9 1.07.83l4.9-.65a.96.96 0 0 0 .82-1.1l-.68-5.08a.98.98 0 0 0-1.07-.85Z"/><path fill="#60BFB9" d="m11.97 78.87-4.91.65a.96.96 0 0 0-.8 1.1l.67 5.08c.07.54.55.92 1.06.85l4.91-.66a.96.96 0 0 0 .81-1.1l-.67-5.07a.96.96 0 0 0-1.07-.85Zm18.55-2.47-4.9.66a.98.98 0 0 0-.82 1.1l.68 5.08c.07.54.55.91 1.07.85l4.9-.66a.96.96 0 0 0 .8-1.1l-.67-5.07a.95.95 0 0 0-1.06-.86Zm9.27-1.23-4.9.66a.96.96 0 0 0-.81 1.1l.67 5.08c.07.54.54.92 1.07.85l4.9-.66a.97.97 0 0 0 .82-1.1l-.68-5.07a.97.97 0 0 0-1.07-.86Zm18.55-2.46-4.9.66a.97.97 0 0 0-.81 1.1l.67 5.08c.07.53.55.91 1.07.84l4.9-.65a.97.97 0 0 0 .81-1.1l-.67-5.07a.96.96 0 0 0-1.07-.86ZM13.22 88.3l-4.91.65c-.51.06-.87.56-.8 1.1l.67 5.09c.07.53.55.92 1.06.85l4.91-.65a.97.97 0 0 0 .81-1.1l-.67-5.09a.97.97 0 0 0-1.07-.85Zm9.26-1.23-4.9.65a.97.97 0 0 0-.8 1.1l.67 5.09c.07.53.56.92 1.07.85l4.9-.65a.97.97 0 0 0 .81-1.1l-.67-5.09a.97.97 0 0 0-1.08-.85Zm9.29-1.24-4.9.66a.98.98 0 0 0-.82 1.1l.68 5.09c.07.53.56.92 1.07.85l4.9-.66a.96.96 0 0 0 .8-1.1l-.67-5.09a.96.96 0 0 0-1.06-.85Zm9.27-1.23-4.9.66a.96.96 0 0 0-.81 1.1l.67 5.09c.07.52.54.92 1.07.85l4.9-.65a.99.99 0 0 0 .82-1.1l-.68-5.1a.97.97 0 0 0-1.07-.85Zm9.28-1.23-4.9.64a.97.97 0 0 0-.81 1.1l.67 5.1c.08.53.55.91 1.08.84l4.9-.64a.97.97 0 0 0 .8-1.1l-.67-5.1a.98.98 0 0 0-1.07-.84Zm9.26-1.23-4.9.65a.97.97 0 0 0-.8 1.1l.67 5.1c.07.52.55.91 1.07.84l4.9-.65a.98.98 0 0 0 .82-1.1l-.68-5.1a.98.98 0 0 0-1.08-.84Z"/><path fill="#5D54E2" d="m14.94 11.17-4.16 2.66a.97.97 0 0 0-.27 1.34l2.76 4.32c.3.47.9.6 1.33.33l4.17-2.66a.97.97 0 0 0 .27-1.35l-2.76-4.33a.97.97 0 0 0-1.34-.31Zm5.13 8.01-4.17 2.67a.99.99 0 0 0-.27 1.34l2.77 4.33c.28.45.9.6 1.32.31l4.17-2.66a.97.97 0 0 0 .28-1.33L21.4 19.5c-.3-.46-.9-.61-1.33-.33Zm12.53 6.99a.96.96 0 0 0 1.21-.63l1.58-4.9a.98.98 0 0 0-.6-1.23l-4.7-1.52a.98.98 0 0 0-1.2.65l-1.59 4.9a.98.98 0 0 0 .6 1.21"/><path fill="#60BFB9" d="M8.41 11.35A5.67 5.67 0 1 0 8.41 0a5.67 5.67 0 0 0 0 11.35Zm26.75 5.35a5.67 5.67 0 1 0 0-11.34 5.67 5.67 0 0 0 0 11.34Z"/></svg>