<svg width="48" height="48" viewBox="0 0 48 48" xmlns="http://www.w3.org/2000/svg">
<path d="M23.0279 4.28344L20.5079 2.77344L20.0279 5.67144C19.2639 10.2474 16.1379 14.4994 12.6899 17.4874C5.93993 23.3394 4.46193 29.6994 6.55193 34.9494C8.55193 39.9734 13.6279 43.4134 18.7799 43.9874L19.9719 44.1194C17.0239 42.3174 15.1319 38.1074 15.7919 34.9614C16.4439 31.8694 18.6679 28.9734 22.9399 26.3014L25.0939 24.9574L25.8979 27.3674C26.3719 28.7914 27.1919 29.9354 28.0259 31.0974C28.4259 31.6574 28.8319 32.2234 29.2039 32.8254C30.4899 34.9154 30.8299 37.2394 29.9999 39.5454C29.2439 41.6414 27.9979 43.2894 26.2799 44.2034L28.2199 43.9874C33.0559 43.4494 36.6059 41.7954 38.9119 39.0294C41.1979 36.2874 41.9999 32.7574 41.9999 28.9994C41.9999 25.4994 40.5619 21.8914 38.8659 18.8894C36.8779 15.3734 34.2839 12.4534 31.4519 9.62344C30.9619 10.6034 30.9999 10.9994 29.9919 12.5734C28.6835 9.09703 26.2264 6.1721 23.0279 4.28344Z" fill="#FFBA08"/>
</svg>
