<svg xmlns="http://www.w3.org/2000/svg" width="24" height="24" viewBox="0 0 24 24"><path fill-rule="evenodd" d="M12 12.5c1.87 0 3.57.62 4.82 1.49C18 14.81 19 16.04 19 17.36c0 .72-.31 1.32-.8 1.77a4.4 4.4 0 0 1-1.67.88c-1.23.37-2.85.49-4.53.49s-3.3-.12-4.53-.49a4.32 4.32 0 0 1-1.67-.88 2.36 2.36 0 0 1-.8-1.77c0-1.32 1-2.55 2.18-3.37A8.51 8.51 0 0 1 12 12.5Zm0 2a6.5 6.5 0 0 0-3.67 1.13C7.34 16.32 7 17.02 7 17.36c0 .3.35.49.67.61l.2.07.17.05c.94.28 2.32.41 3.95.41 1.51 0 2.8-.1 3.73-.34l.3-.09.19-.06c.34-.12.78-.31.78-.65s-.34-1.04-1.33-1.73a6.5 6.5 0 0 0-3.67-1.13Zm7-1c1.04 0 1.99.35 2.69.83.64.45 1.31 1.19 1.31 2.1 0 1.34-1.3 1.81-2.46 1.98l-.3.04-.29.03h-.14a3.37 3.37 0 0 0 .08-2.01c.39-.03.7-.08.94-.15.1-.03 0-.13-.1-.22l-.11-.08-.08-.05a2.8 2.8 0 0 0-.99-.42 6.13 6.13 0 0 0-1.59-1.94c.34-.07.68-.11 1.03-.11Zm-14 0c.36 0 .7.04 1.03.11a6.27 6.27 0 0 0-1.59 1.94c-.39.08-.73.23-.99.42l-.13.09c-.13.09-.28.22-.16.26.24.07.55.12.94.15a3.37 3.37 0 0 0 .08 2.01l-.28-.02-.3-.03c-1.2-.15-2.61-.61-2.61-2 0-.9.67-1.65 1.31-2.1a4.77 4.77 0 0 1 2.69-.83Zm13.5-6a2.5 2.5 0 1 1 0 5.01 2.5 2.5 0 0 1 0-5.01Zm-13 0a2.5 2.5 0 1 1 0 5.01 2.5 2.5 0 0 1 0-5.01Zm6.5-4a4 4 0 1 1 0 8 4 4 0 0 1 0-8Zm6.5 6a.47.47 0 0 0-.35.15c-.09.09-.15.22-.15.35s.05.26.15.35c.09.09.22.15.35.15s.26-.05.35-.15c.09-.09.15-.22.15-.35s-.05-.26-.15-.35a.5.5 0 0 0-.35-.15Zm-13 0a.47.47 0 0 0-.35.15c-.09.09-.15.22-.15.35s.05.26.15.35c.09.09.22.15.35.15s.26-.05.35-.15c.09-.09.15-.22.15-.35s-.05-.26-.15-.35a.5.5 0 0 0-.35-.15Zm6.5-4c-.53 0-1.04.21-1.41.59a1.98 1.98 0 0 0 0 2.82 1.98 1.98 0 0 0 2.82 0 1.98 1.98 0 0 0 0-2.82A1.98 1.98 0 0 0 12 5.5Z"/></svg>