<svg xmlns="http://www.w3.org/2000/svg" width="60" height="87" fill="none" viewBox="0 0 60 87"><g filter="url(#filter0_dddd_40003443_250852)"><path fill="#FF5E01" fill-rule="evenodd" d="M18.33 8.33a1.67 1.67 0 0 0-3.33 0v23.34a1.67 1.67 0 0 0 1.67 1.66h26.66a1.67 1.67 0 1 0 0-3.33h-25V8.33ZM25 20a1.67 1.67 0 0 0-3.33 0v5A1.67 1.67 0 0 0 25 25v-5Zm5-10a1.67 1.67 0 0 1 1.67 1.67V25a1.67 1.67 0 1 1-3.34 0V11.67A1.67 1.67 0 0 1 30 10Zm8.33 6.67a1.67 1.67 0 0 0-3.33 0V25a1.67 1.67 0 1 0 3.33 0v-8.33Z" clip-rule="evenodd"/></g><defs><filter id="filter0_dddd_40003443_250852" width="70" height="96" x="-5" y="-3" color-interpolation-filters="sRGB" filterUnits="userSpaceOnUse"><feFlood flood-opacity="0" result="BackgroundImageFix"/><feColorMatrix in="SourceAlpha" result="hardAlpha" values="0 0 0 0 0 0 0 0 0 0 0 0 0 0 0 0 0 0 127 0"/><feOffset dy="2"/><feGaussianBlur stdDeviation="2.5"/><feColorMatrix values="0 0 0 0 1 0 0 0 0 0.368627 0 0 0 0 0.00392157 0 0 0 0.15 0"/><feBlend in2="BackgroundImageFix" result="effect1_dropShadow_40003443_250852"/><feColorMatrix in="SourceAlpha" result="hardAlpha" values="0 0 0 0 0 0 0 0 0 0 0 0 0 0 0 0 0 0 127 0"/><feOffset dy="10"/><feGaussianBlur stdDeviation="5"/><feColorMatrix values="0 0 0 0 1 0 0 0 0 0.368627 0 0 0 0 0.00392157 0 0 0 0.13 0"/><feBlend in2="effect1_dropShadow_40003443_250852" result="effect2_dropShadow_40003443_250852"/><feColorMatrix in="SourceAlpha" result="hardAlpha" values="0 0 0 0 0 0 0 0 0 0 0 0 0 0 0 0 0 0 127 0"/><feOffset dy="21"/><feGaussianBlur stdDeviation="6.5"/><feColorMatrix values="0 0 0 0 1 0 0 0 0 0.368627 0 0 0 0 0.00392157 0 0 0 0.08 0"/><feBlend in2="effect2_dropShadow_40003443_250852" result="effect3_dropShadow_40003443_250852"/><feColorMatrix in="SourceAlpha" result="hardAlpha" values="0 0 0 0 0 0 0 0 0 0 0 0 0 0 0 0 0 0 127 0"/><feOffset dy="38"/><feGaussianBlur stdDeviation="7.5"/><feColorMatrix values="0 0 0 0 1 0 0 0 0 0.368627 0 0 0 0 0.00392157 0 0 0 0.02 0"/><feBlend in2="effect3_dropShadow_40003443_250852" result="effect4_dropShadow_40003443_250852"/><feBlend in="SourceGraphic" in2="effect4_dropShadow_40003443_250852" result="shape"/></filter></defs></svg>