<svg xmlns="http://www.w3.org/2000/svg" width="68" height="88" fill="none" viewBox="0 0 68 88"><g filter="url(#filter0_dddd_40003441_248595)"><path fill="#32BF00" fill-rule="evenodd" d="M35.65 9.57a3.33 3.33 0 1 0-3.29 0l-.01.03c-1.1 2.28-2.61 5.54-4.95 6.77-1.93 1-4.69.5-6.74.12a2.5 2.5 0 1 0-2.95 2.63l4.91 12.69A5 5 0 0 0 27.28 35h13.44a5 5 0 0 0 4.66-3.2l4.91-12.68a2.5 2.5 0 1 0-2.94-2.7c-2.1.27-4.8.61-6.74-.4-2.3-1.2-3.84-4.23-4.96-6.45Zm-1.6 3.94c1.27 2.08 2.8 4.31 5.01 5.47 2.21 1.15 4.94 1.1 7.37.89L42.27 30.6a1.67 1.67 0 0 1-1.55 1.07H27.28a1.67 1.67 0 0 1-1.55-1.07l-4.1-10.59c2.4.31 5.11.46 7.3-.69 2.3-1.2 3.84-3.62 5.11-5.8Z" clip-rule="evenodd"/></g><defs><filter id="filter0_dddd_40003441_248595" width="70" height="96" x="-1" y="-3" color-interpolation-filters="sRGB" filterUnits="userSpaceOnUse"><feFlood flood-opacity="0" result="BackgroundImageFix"/><feColorMatrix in="SourceAlpha" result="hardAlpha" values="0 0 0 0 0 0 0 0 0 0 0 0 0 0 0 0 0 0 127 0"/><feOffset dy="2"/><feGaussianBlur stdDeviation="2.5"/><feColorMatrix values="0 0 0 0 0.196078 0 0 0 0 0.74902 0 0 0 0 0 0 0 0 0.15 0"/><feBlend in2="BackgroundImageFix" result="effect1_dropShadow_40003441_248595"/><feColorMatrix in="SourceAlpha" result="hardAlpha" values="0 0 0 0 0 0 0 0 0 0 0 0 0 0 0 0 0 0 127 0"/><feOffset dy="10"/><feGaussianBlur stdDeviation="5"/><feColorMatrix values="0 0 0 0 0.196078 0 0 0 0 0.74902 0 0 0 0 0 0 0 0 0.13 0"/><feBlend in2="effect1_dropShadow_40003441_248595" result="effect2_dropShadow_40003441_248595"/><feColorMatrix in="SourceAlpha" result="hardAlpha" values="0 0 0 0 0 0 0 0 0 0 0 0 0 0 0 0 0 0 127 0"/><feOffset dy="21"/><feGaussianBlur stdDeviation="6.5"/><feColorMatrix values="0 0 0 0 0.196078 0 0 0 0 0.74902 0 0 0 0 0 0 0 0 0.08 0"/><feBlend in2="effect2_dropShadow_40003441_248595" result="effect3_dropShadow_40003441_248595"/><feColorMatrix in="SourceAlpha" result="hardAlpha" values="0 0 0 0 0 0 0 0 0 0 0 0 0 0 0 0 0 0 127 0"/><feOffset dy="38"/><feGaussianBlur stdDeviation="7.5"/><feColorMatrix values="0 0 0 0 0.196078 0 0 0 0 0.74902 0 0 0 0 0 0 0 0 0.02 0"/><feBlend in2="effect3_dropShadow_40003441_248595" result="effect4_dropShadow_40003441_248595"/><feBlend in="SourceGraphic" in2="effect4_dropShadow_40003441_248595" result="shape"/></filter></defs></svg>