<svg xmlns="http://www.w3.org/2000/svg" width="62" height="97" fill="none" viewBox="0 0 62 97"><g filter="url(#filter0_dddd_40003301_170547)"><path fill="#277DFF" d="M41 4a4 4 0 0 1 4 4v32a2 2 0 0 1 0 4H17a2 2 0 0 1 0-4V8a4 4 0 0 1 4-4h20Zm0 4H21v32h4V29a3 3 0 0 1 2.71-2.99L28 26h6a3 3 0 0 1 2.99 2.71L37 29v11h4V8Zm-8 22h-4v10h4V30Zm-6-12a2 2 0 1 1 0 4 2 2 0 0 1 0-4Zm8 0a2 2 0 1 1 0 4 2 2 0 0 1 0-4Zm-8-6a2 2 0 1 1 0 4 2 2 0 0 1 0-4Zm8 0a2 2 0 1 1 0 4 2 2 0 0 1 0-4Z"/></g><defs><filter id="filter0_dddd_40003301_170547" width="78" height="104" x="-8" y="-3" color-interpolation-filters="sRGB" filterUnits="userSpaceOnUse"><feFlood flood-opacity="0" result="BackgroundImageFix"/><feColorMatrix in="SourceAlpha" result="hardAlpha" values="0 0 0 0 0 0 0 0 0 0 0 0 0 0 0 0 0 0 127 0"/><feOffset dy="2"/><feGaussianBlur stdDeviation="2.5"/><feColorMatrix values="0 0 0 0 0.0784314 0 0 0 0 0.478431 0 0 0 0 1 0 0 0 0.15 0"/><feBlend in2="BackgroundImageFix" result="effect1_dropShadow_40003301_170547"/><feColorMatrix in="SourceAlpha" result="hardAlpha" values="0 0 0 0 0 0 0 0 0 0 0 0 0 0 0 0 0 0 127 0"/><feOffset dy="10"/><feGaussianBlur stdDeviation="5"/><feColorMatrix values="0 0 0 0 0.0784314 0 0 0 0 0.478431 0 0 0 0 1 0 0 0 0.13 0"/><feBlend in2="effect1_dropShadow_40003301_170547" result="effect2_dropShadow_40003301_170547"/><feColorMatrix in="SourceAlpha" result="hardAlpha" values="0 0 0 0 0 0 0 0 0 0 0 0 0 0 0 0 0 0 127 0"/><feOffset dy="21"/><feGaussianBlur stdDeviation="6.5"/><feColorMatrix values="0 0 0 0 0.0784314 0 0 0 0 0.478431 0 0 0 0 1 0 0 0 0.08 0"/><feBlend in2="effect2_dropShadow_40003301_170547" result="effect3_dropShadow_40003301_170547"/><feColorMatrix in="SourceAlpha" result="hardAlpha" values="0 0 0 0 0 0 0 0 0 0 0 0 0 0 0 0 0 0 127 0"/><feOffset dy="38"/><feGaussianBlur stdDeviation="7.5"/><feColorMatrix values="0 0 0 0 0.0784314 0 0 0 0 0.478431 0 0 0 0 1 0 0 0 0.02 0"/><feBlend in2="effect3_dropShadow_40003301_170547" result="effect4_dropShadow_40003301_170547"/><feBlend in="SourceGraphic" in2="effect4_dropShadow_40003301_170547" result="shape"/></filter></defs></svg>