<svg xmlns="http://www.w3.org/2000/svg" width="72" height="93" fill="none" viewBox="0 0 72 93"><g filter="url(#filter0_dddd_40003301_170662)"><path fill="#9810FA" fill-rule="evenodd" d="M47.04 8a4 4 0 0 1 2.88 1.23l.24.27 6.1 7.63a3 3 0 0 1-2.08 4.86l-.26.01H52v16a2 2 0 0 1-3.99.23L48 38V22h-4v14a4 4 0 0 1-3.7 3.99L40 40H24a4 4 0 0 1-4-3.7V22h-1.92a3 3 0 0 1-2.5-4.66l.16-.21 6.1-7.63a4 4 0 0 1 2.76-1.48l.36-.02h22.08ZM26 22h-2v14h16V22h-2v8a2 2 0 0 1-2 2h-8a2 2 0 0 1-2-2v-8Zm8 0h-4v6h4v-6Zm13.04-10H24.96l-4.8 6h31.68l-4.8-6Z" clip-rule="evenodd"/></g><defs><filter id="filter0_dddd_40003301_170662" width="78" height="104" x="-3" y="-3" color-interpolation-filters="sRGB" filterUnits="userSpaceOnUse"><feFlood flood-opacity="0" result="BackgroundImageFix"/><feColorMatrix in="SourceAlpha" result="hardAlpha" values="0 0 0 0 0 0 0 0 0 0 0 0 0 0 0 0 0 0 127 0"/><feOffset dy="2"/><feGaussianBlur stdDeviation="2.5"/><feColorMatrix values="0 0 0 0 0.596078 0 0 0 0 0.0627451 0 0 0 0 0.980392 0 0 0 0.15 0"/><feBlend in2="BackgroundImageFix" result="effect1_dropShadow_40003301_170662"/><feColorMatrix in="SourceAlpha" result="hardAlpha" values="0 0 0 0 0 0 0 0 0 0 0 0 0 0 0 0 0 0 127 0"/><feOffset dy="10"/><feGaussianBlur stdDeviation="5"/><feColorMatrix values="0 0 0 0 0.596078 0 0 0 0 0.0627451 0 0 0 0 0.980392 0 0 0 0.13 0"/><feBlend in2="effect1_dropShadow_40003301_170662" result="effect2_dropShadow_40003301_170662"/><feColorMatrix in="SourceAlpha" result="hardAlpha" values="0 0 0 0 0 0 0 0 0 0 0 0 0 0 0 0 0 0 127 0"/><feOffset dy="21"/><feGaussianBlur stdDeviation="6.5"/><feColorMatrix values="0 0 0 0 0.596078 0 0 0 0 0.0627451 0 0 0 0 0.980392 0 0 0 0.08 0"/><feBlend in2="effect2_dropShadow_40003301_170662" result="effect3_dropShadow_40003301_170662"/><feColorMatrix in="SourceAlpha" result="hardAlpha" values="0 0 0 0 0 0 0 0 0 0 0 0 0 0 0 0 0 0 127 0"/><feOffset dy="38"/><feGaussianBlur stdDeviation="7.5"/><feColorMatrix values="0 0 0 0 0.596078 0 0 0 0 0.0627451 0 0 0 0 0.980392 0 0 0 0.02 0"/><feBlend in2="effect3_dropShadow_40003301_170662" result="effect4_dropShadow_40003301_170662"/><feBlend in="SourceGraphic" in2="effect4_dropShadow_40003301_170662" result="shape"/></filter></defs></svg>