<svg xmlns="http://www.w3.org/2000/svg" width="58" height="90" fill="none" viewBox="0 0 58 90"><g filter="url(#filter0_dddd_40003444_209040)"><path fill="#277DFF" d="M39 3.33a3.33 3.33 0 0 1 3.33 3.34v19.3c0 .9-.35 1.74-.97 2.36L34 35.7c-.63.63-1.47.98-2.36.98H19a3.33 3.33 0 0 1-3.33-3.34V6.67A3.33 3.33 0 0 1 19 3.33h20Zm0 3.34H19v26.66h10v-7.5a2.5 2.5 0 0 1 2.5-2.5H39V6.67Zm-.7 20h-5.97v5.97l5.98-5.97Zm-12.63-8.34a1.67 1.67 0 0 1 0 3.34H24a1.67 1.67 0 0 1 0-3.34h1.67ZM34 11.67A1.67 1.67 0 1 1 34 15H24a1.67 1.67 0 0 1 0-3.33h10Z"/></g><defs><filter id="filter0_dddd_40003444_209040" width="70" height="96" x="-6" y="-3" color-interpolation-filters="sRGB" filterUnits="userSpaceOnUse"><feFlood flood-opacity="0" result="BackgroundImageFix"/><feColorMatrix in="SourceAlpha" result="hardAlpha" values="0 0 0 0 0 0 0 0 0 0 0 0 0 0 0 0 0 0 127 0"/><feOffset dy="2"/><feGaussianBlur stdDeviation="2.5"/><feColorMatrix values="0 0 0 0 0.0784314 0 0 0 0 0.478431 0 0 0 0 1 0 0 0 0.15 0"/><feBlend in2="BackgroundImageFix" result="effect1_dropShadow_40003444_209040"/><feColorMatrix in="SourceAlpha" result="hardAlpha" values="0 0 0 0 0 0 0 0 0 0 0 0 0 0 0 0 0 0 127 0"/><feOffset dy="10"/><feGaussianBlur stdDeviation="5"/><feColorMatrix values="0 0 0 0 0.0784314 0 0 0 0 0.478431 0 0 0 0 1 0 0 0 0.13 0"/><feBlend in2="effect1_dropShadow_40003444_209040" result="effect2_dropShadow_40003444_209040"/><feColorMatrix in="SourceAlpha" result="hardAlpha" values="0 0 0 0 0 0 0 0 0 0 0 0 0 0 0 0 0 0 127 0"/><feOffset dy="21"/><feGaussianBlur stdDeviation="6.5"/><feColorMatrix values="0 0 0 0 0.0784314 0 0 0 0 0.478431 0 0 0 0 1 0 0 0 0.08 0"/><feBlend in2="effect2_dropShadow_40003444_209040" result="effect3_dropShadow_40003444_209040"/><feColorMatrix in="SourceAlpha" result="hardAlpha" values="0 0 0 0 0 0 0 0 0 0 0 0 0 0 0 0 0 0 127 0"/><feOffset dy="38"/><feGaussianBlur stdDeviation="7.5"/><feColorMatrix values="0 0 0 0 0.0784314 0 0 0 0 0.478431 0 0 0 0 1 0 0 0 0.02 0"/><feBlend in2="effect3_dropShadow_40003444_209040" result="effect4_dropShadow_40003444_209040"/><feBlend in="SourceGraphic" in2="effect4_dropShadow_40003444_209040" result="shape"/></filter></defs></svg>