<svg xmlns="http://www.w3.org/2000/svg" width="61" height="87" fill="none" viewBox="0 0 61 87"><g filter="url(#filter0_dddd_40003444_209030)"><path fill="#277DFF" d="M37 6.67a1.67 1.67 0 0 1 .2 3.32H19.5a.83.83 0 0 0-.15 1.66l.15.02H42a3.33 3.33 0 0 1 3.33 3.08V30a3.33 3.33 0 0 1-3.08 3.32l-.25.01H18.67a3.33 3.33 0 0 1-3.33-3.08V10.83a4.17 4.17 0 0 1 3.89-4.16H37Zm-18.33 8.25V30H42V15H19.5c-.19 0-.38-.01-.56-.04l-.27-.04ZM36.17 20a2.5 2.5 0 1 1 0 5 2.5 2.5 0 0 1 0-5Z"/></g><defs><filter id="filter0_dddd_40003444_209030" width="70" height="96" x="-4.67" y="-3" color-interpolation-filters="sRGB" filterUnits="userSpaceOnUse"><feFlood flood-opacity="0" result="BackgroundImageFix"/><feColorMatrix in="SourceAlpha" result="hardAlpha" values="0 0 0 0 0 0 0 0 0 0 0 0 0 0 0 0 0 0 127 0"/><feOffset dy="2"/><feGaussianBlur stdDeviation="2.5"/><feColorMatrix values="0 0 0 0 0.0784314 0 0 0 0 0.478431 0 0 0 0 1 0 0 0 0.15 0"/><feBlend in2="BackgroundImageFix" result="effect1_dropShadow_40003444_209030"/><feColorMatrix in="SourceAlpha" result="hardAlpha" values="0 0 0 0 0 0 0 0 0 0 0 0 0 0 0 0 0 0 127 0"/><feOffset dy="10"/><feGaussianBlur stdDeviation="5"/><feColorMatrix values="0 0 0 0 0.0784314 0 0 0 0 0.478431 0 0 0 0 1 0 0 0 0.13 0"/><feBlend in2="effect1_dropShadow_40003444_209030" result="effect2_dropShadow_40003444_209030"/><feColorMatrix in="SourceAlpha" result="hardAlpha" values="0 0 0 0 0 0 0 0 0 0 0 0 0 0 0 0 0 0 127 0"/><feOffset dy="21"/><feGaussianBlur stdDeviation="6.5"/><feColorMatrix values="0 0 0 0 0.0784314 0 0 0 0 0.478431 0 0 0 0 1 0 0 0 0.08 0"/><feBlend in2="effect2_dropShadow_40003444_209030" result="effect3_dropShadow_40003444_209030"/><feColorMatrix in="SourceAlpha" result="hardAlpha" values="0 0 0 0 0 0 0 0 0 0 0 0 0 0 0 0 0 0 127 0"/><feOffset dy="38"/><feGaussianBlur stdDeviation="7.5"/><feColorMatrix values="0 0 0 0 0.0784314 0 0 0 0 0.478431 0 0 0 0 1 0 0 0 0.02 0"/><feBlend in2="effect3_dropShadow_40003444_209030" result="effect4_dropShadow_40003444_209030"/><feBlend in="SourceGraphic" in2="effect4_dropShadow_40003444_209030" result="shape"/></filter></defs></svg>