<?xml version="1.0" encoding="UTF-8"?><svg id="a" xmlns="http://www.w3.org/2000/svg" width="40" height="40" viewBox="0 0 40 40"><path d="m25,10c0,2.12-1.33,4.01-3.33,4.72v3.61h5c2.76,0,5,2.24,5,5v1.95c2.6.92,3.97,3.78,3.04,6.38-.92,2.6-3.78,3.97-6.38,3.04-2.6-.92-3.97-3.78-3.04-6.38.5-1.42,1.62-2.54,3.04-3.04v-1.95c0-.91-.75-1.65-1.66-1.66h-13.34c-.91,0-1.65.75-1.66,1.66v1.95c2.6.92,3.97,3.78,3.04,6.38-.92,2.6-3.78,3.97-6.38,3.04-2.6-.92-3.97-3.78-3.04-6.38.5-1.42,1.62-2.54,3.04-3.04v-1.95c0-2.76,2.24-5,5-5h5v-3.61c-2.6-.92-3.97-3.78-3.04-6.38.92-2.6,3.78-3.97,6.38-3.04,1.99.71,3.33,2.59,3.33,4.71Zm-5-1.67c-.92,0-1.67.75-1.67,1.67s.75,1.67,1.67,1.67h0c.92,0,1.67-.75,1.67-1.67s-.75-1.67-1.67-1.67Zm-10,20c-.92,0-1.67.75-1.67,1.67s.75,1.67,1.67,1.67,1.67-.75,1.67-1.67-.75-1.67-1.67-1.67h0Zm20,0c-.92,0-1.67.75-1.67,1.67s.75,1.67,1.67,1.67,1.67-.75,1.67-1.67-.75-1.67-1.67-1.67h0Z" fill="#277dff" fill-rule="evenodd" stroke-width="0"/></svg>