<svg xmlns="http://www.w3.org/2000/svg" width="70" height="95" fill="none" viewBox="0 0 70 95"><g filter="url(#filter0_dddd_40003301_170618)"><path fill="#32BF00" d="M39 6a6 6 0 0 1 6 6h6a4 4 0 0 1 4 4v22a4 4 0 0 1-4 4H19a4 4 0 0 1-4-4V16a4 4 0 0 1 4-4h6a6 6 0 0 1 6-6h8Zm-6 18H19v14h32V24H37v2a2 2 0 0 1-3.99.23L33 26v-2Zm18-8H19v4h32v-4Zm-12-6h-8a2 2 0 0 0-1.99 1.77L29 12h12a2 2 0 0 0-1.77-1.99L39 10Z"/></g><defs><filter id="filter0_dddd_40003301_170618" width="78" height="104" x="-4" y="-3" color-interpolation-filters="sRGB" filterUnits="userSpaceOnUse"><feFlood flood-opacity="0" result="BackgroundImageFix"/><feColorMatrix in="SourceAlpha" result="hardAlpha" values="0 0 0 0 0 0 0 0 0 0 0 0 0 0 0 0 0 0 127 0"/><feOffset dy="2"/><feGaussianBlur stdDeviation="2.5"/><feColorMatrix values="0 0 0 0 0.0784314 0 0 0 0 0.478431 0 0 0 0 1 0 0 0 0.15 0"/><feBlend in2="BackgroundImageFix" result="effect1_dropShadow_40003301_170618"/><feColorMatrix in="SourceAlpha" result="hardAlpha" values="0 0 0 0 0 0 0 0 0 0 0 0 0 0 0 0 0 0 127 0"/><feOffset dy="10"/><feGaussianBlur stdDeviation="5"/><feColorMatrix values="0 0 0 0 0.0784314 0 0 0 0 0.478431 0 0 0 0 1 0 0 0 0.13 0"/><feBlend in2="effect1_dropShadow_40003301_170618" result="effect2_dropShadow_40003301_170618"/><feColorMatrix in="SourceAlpha" result="hardAlpha" values="0 0 0 0 0 0 0 0 0 0 0 0 0 0 0 0 0 0 127 0"/><feOffset dy="21"/><feGaussianBlur stdDeviation="6.5"/><feColorMatrix values="0 0 0 0 0.0784314 0 0 0 0 0.478431 0 0 0 0 1 0 0 0 0.08 0"/><feBlend in2="effect2_dropShadow_40003301_170618" result="effect3_dropShadow_40003301_170618"/><feColorMatrix in="SourceAlpha" result="hardAlpha" values="0 0 0 0 0 0 0 0 0 0 0 0 0 0 0 0 0 0 127 0"/><feOffset dy="38"/><feGaussianBlur stdDeviation="7.5"/><feColorMatrix values="0 0 0 0 0.0784314 0 0 0 0 0.478431 0 0 0 0 1 0 0 0 0.02 0"/><feBlend in2="effect3_dropShadow_40003301_170618" result="effect4_dropShadow_40003301_170618"/><feBlend in="SourceGraphic" in2="effect4_dropShadow_40003301_170618" result="shape"/></filter></defs></svg>