<svg xmlns="http://www.w3.org/2000/svg" width="70" height="91" fill="none" viewBox="0 0 70 91"><g filter="url(#filter0_dddd_40003431_245481)"><path fill="#FF5E01" fill-rule="evenodd" d="M51 10a4 4 0 0 1 3.99 3.7l.01.3v20a4 4 0 0 1-3.7 3.99L51 38H19a4 4 0 0 1-3.99-3.7L15 34V14a4 4 0 0 1 3.7-3.99L19 10h32Zm-6 4H25v.25A5.75 5.75 0 0 1 19.25 20H19v8h.25A5.75 5.75 0 0 1 25 33.75V34h20v-.25a5.75 5.75 0 0 1 5.41-5.74H51v-8.02l-.25.01a5.75 5.75 0 0 1-5.74-5.41l-.01-.47V14Zm5.75 18a1.75 1.75 0 0 0-1.73 2H51v-1.98a1.77 1.77 0 0 0-.25-.02Zm-31.5 0c-.08 0-.17 0-.25.02V34h1.98a1.75 1.75 0 0 0-1.73-2ZM35 16a8 8 0 1 1 0 16 8 8 0 0 1 0-16Zm0 4a4 4 0 1 0 0 8 4 4 0 0 0 0-8Zm-14.02-6H19v1.98a1.75 1.75 0 0 0 2-1.73v-.13l-.02-.12ZM51 14h-1.98a1.75 1.75 0 0 0 1.73 2h.13l.12-.02V14Z" clip-rule="evenodd"/></g><defs><filter id="filter0_dddd_40003431_245481" width="78" height="104" x="-4" y="-3" color-interpolation-filters="sRGB" filterUnits="userSpaceOnUse"><feFlood flood-opacity="0" result="BackgroundImageFix"/><feColorMatrix in="SourceAlpha" result="hardAlpha" values="0 0 0 0 0 0 0 0 0 0 0 0 0 0 0 0 0 0 127 0"/><feOffset dy="2"/><feGaussianBlur stdDeviation="2.5"/><feColorMatrix values="0 0 0 0 1 0 0 0 0 0.368627 0 0 0 0 0.00392157 0 0 0 0.15 0"/><feBlend in2="BackgroundImageFix" result="effect1_dropShadow_40003431_245481"/><feColorMatrix in="SourceAlpha" result="hardAlpha" values="0 0 0 0 0 0 0 0 0 0 0 0 0 0 0 0 0 0 127 0"/><feOffset dy="10"/><feGaussianBlur stdDeviation="5"/><feColorMatrix values="0 0 0 0 1 0 0 0 0 0.368627 0 0 0 0 0.00392157 0 0 0 0.13 0"/><feBlend in2="effect1_dropShadow_40003431_245481" result="effect2_dropShadow_40003431_245481"/><feColorMatrix in="SourceAlpha" result="hardAlpha" values="0 0 0 0 0 0 0 0 0 0 0 0 0 0 0 0 0 0 127 0"/><feOffset dy="21"/><feGaussianBlur stdDeviation="6.5"/><feColorMatrix values="0 0 0 0 1 0 0 0 0 0.368627 0 0 0 0 0.00392157 0 0 0 0.08 0"/><feBlend in2="effect2_dropShadow_40003431_245481" result="effect3_dropShadow_40003431_245481"/><feColorMatrix in="SourceAlpha" result="hardAlpha" values="0 0 0 0 0 0 0 0 0 0 0 0 0 0 0 0 0 0 127 0"/><feOffset dy="38"/><feGaussianBlur stdDeviation="7.5"/><feColorMatrix values="0 0 0 0 1 0 0 0 0 0.368627 0 0 0 0 0.00392157 0 0 0 0.02 0"/><feBlend in2="effect3_dropShadow_40003431_245481" result="effect4_dropShadow_40003431_245481"/><feBlend in="SourceGraphic" in2="effect4_dropShadow_40003431_245481" result="shape"/></filter></defs></svg>