<svg xmlns="http://www.w3.org/2000/svg" width="58" height="90" fill="none" viewBox="0 0 58 90"><g filter="url(#filter0_dddd_40003443_250856)"><path fill="#ED0131" fill-rule="evenodd" d="M29 3.33a13.33 13.33 0 0 1 8.33 23.75v7.68a1.83 1.83 0 0 1-2.47 1.72L29 34.28l-5.86 2.2a1.83 1.83 0 0 1-2.47-1.72v-7.68A13.33 13.33 0 0 1 29 3.33Zm5 25.7a13.3 13.3 0 0 1-10 0v3.57l3.83-1.44a3.33 3.33 0 0 1 2.34 0L34 32.6v-3.57ZM29 6.67a10 10 0 1 0 0 20 10 10 0 0 0 0-20ZM29 10a6.67 6.67 0 1 1 0 13.33A6.67 6.67 0 0 1 29 10Zm0 3.33A3.33 3.33 0 1 0 29 20a3.33 3.33 0 0 0 0-6.67Z" clip-rule="evenodd"/></g><defs><filter id="filter0_dddd_40003443_250856" width="70" height="96" x="-6" y="-3" color-interpolation-filters="sRGB" filterUnits="userSpaceOnUse"><feFlood flood-opacity="0" result="BackgroundImageFix"/><feColorMatrix in="SourceAlpha" result="hardAlpha" values="0 0 0 0 0 0 0 0 0 0 0 0 0 0 0 0 0 0 127 0"/><feOffset dy="2"/><feGaussianBlur stdDeviation="2.5"/><feColorMatrix values="0 0 0 0 0.929412 0 0 0 0 0.00392157 0 0 0 0 0.192157 0 0 0 0.15 0"/><feBlend in2="BackgroundImageFix" result="effect1_dropShadow_40003443_250856"/><feColorMatrix in="SourceAlpha" result="hardAlpha" values="0 0 0 0 0 0 0 0 0 0 0 0 0 0 0 0 0 0 127 0"/><feOffset dy="10"/><feGaussianBlur stdDeviation="5"/><feColorMatrix values="0 0 0 0 0.929412 0 0 0 0 0.00392157 0 0 0 0 0.192157 0 0 0 0.13 0"/><feBlend in2="effect1_dropShadow_40003443_250856" result="effect2_dropShadow_40003443_250856"/><feColorMatrix in="SourceAlpha" result="hardAlpha" values="0 0 0 0 0 0 0 0 0 0 0 0 0 0 0 0 0 0 127 0"/><feOffset dy="21"/><feGaussianBlur stdDeviation="6.5"/><feColorMatrix values="0 0 0 0 0.929412 0 0 0 0 0.00392157 0 0 0 0 0.192157 0 0 0 0.08 0"/><feBlend in2="effect2_dropShadow_40003443_250856" result="effect3_dropShadow_40003443_250856"/><feColorMatrix in="SourceAlpha" result="hardAlpha" values="0 0 0 0 0 0 0 0 0 0 0 0 0 0 0 0 0 0 127 0"/><feOffset dy="38"/><feGaussianBlur stdDeviation="7.5"/><feColorMatrix values="0 0 0 0 0.929412 0 0 0 0 0.00392157 0 0 0 0 0.192157 0 0 0 0.02 0"/><feBlend in2="effect3_dropShadow_40003443_250856" result="effect4_dropShadow_40003443_250856"/><feBlend in="SourceGraphic" in2="effect4_dropShadow_40003443_250856" result="shape"/></filter></defs></svg>