<?xml version="1.0" encoding="UTF-8"?><svg id="a" xmlns="http://www.w3.org/2000/svg" width="40" height="40" viewBox="0 0 40 40"><path d="m20,4.58c9.2,0,16.67,7.41,16.67,16.58,0,2.27-.28,3.9-.71,5.22-1.02,3.13-3.13,5.77-5.5,8-1.58,1.45-4.03,1.38-5.53-.16-2.07-2.05-2.64-5.25-.4-7.48l1.54-1.52c1.59-1.58,4.15-1.62,5.79-.09.46.44.69.95.93.22.3-.93.54-2.21.54-4.2,0-7.3-5.96-13.23-13.33-13.23-7.33-.02-13.3,5.9-13.33,13.23,0,1.98.24,3.25.54,4.19.24.73.47.22.93-.22,1.64-1.53,4.2-1.49,5.79.09l1.53,1.52c2.25,2.23,1.68,5.43-.39,7.48-1.5,1.53-3.94,1.6-5.52.16-2.4-2.24-4.48-4.85-5.5-8-.52-1.69-.76-3.46-.72-5.23C3.33,11.98,10.81,4.57,20,4.57h0Zm8.42,23c-.96.96-2.98,2.45-1.53,3.89.32.32.82.91,1.29.47,1.06-1,2.1-2.11,2.8-3.06-.55-.52-1.7-2.14-2.56-1.3Zm-16.84,0c-.85-.84-2.01.78-2.56,1.3.7.95,1.74,2.07,2.8,3.06.47.44.97-.15,1.3-.47,1.44-1.44-.58-2.93-1.54-3.89Z" fill="#32bf00" stroke-width="0"/></svg>