<?xml version="1.0" encoding="UTF-8"?><svg id="a" xmlns="http://www.w3.org/2000/svg" width="40" height="40" viewBox="0 0 40 40"><path d="m20,20.84c2.86,0,5.66.86,8.02,2.48,1.98,1.37,3.65,3.42,3.65,5.61,0,1.21-.52,2.21-1.33,2.96-.81.69-1.76,1.19-2.79,1.46-2.05.62-4.75.82-7.55.82s-5.5-.2-7.55-.82c-1.03-.27-1.99-.77-2.8-1.46-.84-.75-1.32-1.82-1.32-2.95,0-2.2,1.67-4.25,3.64-5.62,2.36-1.62,5.16-2.48,8.03-2.48Zm0,3.33c-2.4,0-4.57.8-6.12,1.88-1.65,1.15-2.21,2.32-2.21,2.88,0,.51.58.83,1.12,1.03l.34.11.28.1c1.57.47,3.87.67,6.59.67,2.51,0,4.66-.18,6.21-.57l.5-.15.33-.1c.57-.2,1.3-.52,1.3-1.09s-.58-1.73-2.22-2.88c-1.8-1.23-3.94-1.88-6.12-1.88Zm11.67-1.66c1.74,0,3.32.57,4.48,1.38,1.07.75,2.18,1.99,2.18,3.5,0,2.22-2.16,3.02-4.1,3.3l-.5.06-.48.04-.23.02c.35-1.08.4-2.24.14-3.35.53-.03,1.05-.12,1.56-.26.17-.05.02-.21-.17-.36l-.18-.13-.12-.08c-.5-.34-1.07-.58-1.66-.7-.66-1.24-1.55-2.34-2.64-3.23.56-.13,1.14-.2,1.72-.2h0Zm-23.34,0c.6,0,1.17.06,1.72.18-1.09.89-1.99,1.99-2.64,3.24-.59.12-1.16.36-1.66.7l-.21.15c-.21.15-.46.36-.26.42.4.12.92.2,1.57.25-.3,1.1-.25,2.27.14,3.35l-.47-.03-.5-.05c-2-.24-4.35-1.01-4.35-3.33,0-1.51,1.1-2.75,2.17-3.5,1.33-.9,2.89-1.39,4.5-1.38h-.01Zm22.5-10c2.3-.11,4.26,1.66,4.37,3.96.11,2.3-1.66,4.26-3.96,4.37-.14,0-.27,0-.41,0-2.3-.11-4.07-2.07-3.96-4.37.11-2.14,1.82-3.86,3.96-3.96Zm-21.66,0c2.3-.11,4.26,1.66,4.37,3.96.11,2.3-1.66,4.26-3.96,4.37-.14,0-.27,0-.41,0-2.3-.11-4.07-2.07-3.96-4.37.11-2.14,1.82-3.86,3.96-3.96Zm10.83-6.67c3.68-.14,6.78,2.73,6.92,6.41.14,3.68-2.73,6.78-6.41,6.92-.17,0-.34,0-.52,0-3.68-.14-6.55-3.24-6.41-6.92.13-3.48,2.93-6.27,6.41-6.41Zm10.83,10c-.46,0-.83.37-.83.84s.37.84.83.84.83-.37.83-.84-.37-.84-.83-.84Zm-21.66,0c-.46,0-.83.37-.83.84s.37.84.83.84.83-.37.83-.84-.37-.84-.83-.84Zm10.83-6.67c-1.84,0-3.33,1.49-3.33,3.34s1.49,3.34,3.33,3.34,3.33-1.49,3.33-3.34-1.49-3.34-3.33-3.34Z" fill="#9810fa" fill-rule="evenodd" stroke-width="0"/></svg>