<?xml version="1.0" encoding="UTF-8"?><svg id="a" xmlns="http://www.w3.org/2000/svg" width="40" height="40" viewBox="0 0 40 40"><path d="m19.99,3.33c9.21,0,16.67,7.46,16.68,16.66,0,9.21-7.46,16.67-16.66,16.68h-.01c-9.21,0-16.67-7.47-16.67-16.67,0-9.2,7.46-16.66,16.67-16.67Zm0,3.34c-7.36,0-13.33,5.97-13.33,13.33s5.97,13.33,13.33,13.33c7.36,0,13.33-5.97,13.33-13.33,0-7.36-5.97-13.33-13.33-13.33Zm0,3.33c.84,0,1.55.63,1.65,1.47v.2s0,7.64,0,7.64l4.52,4.51c.64.66.63,1.72-.03,2.36-.59.57-1.51.63-2.17.14l-.16-.14-5-5c-.26-.26-.43-.6-.47-.96l-.02-.22v-8.33c0-.92.75-1.67,1.67-1.67h0Z" fill="#277dff" stroke-width="0"/></svg>