<?xml version="1.0" encoding="UTF-8"?><svg id="a" xmlns="http://www.w3.org/2000/svg" width="40" height="40" viewBox="0 0 40 40"><path d="m18.83,3.65c.75-.28,1.59-.28,2.34,0l11.67,4.37c1.3.49,2.16,1.73,2.16,3.12v8.94c0,5.68-3.21,10.88-8.3,13.42l-5.58,2.8c-.7.35-1.54.35-2.24,0l-5.59-2.8c-5.08-2.54-8.29-7.74-8.29-13.42v-8.94c0-1.39.86-2.63,2.16-3.12,0,0,11.67-4.37,11.67-4.37Zm1.17,3.12l-11.67,4.37v8.94c0,4.42,2.5,8.46,6.45,10.44l5.22,2.6,5.22-2.6c3.95-1.98,6.45-6.02,6.45-10.44v-8.94l-11.67-4.37Z" fill="#ffba08" fill-rule="evenodd" stroke-width="0"/></svg>