<svg xmlns="http://www.w3.org/2000/svg" width="24" height="24" viewBox="0 0 24 24" fill="#277DFF"><path d="M12 17a.99.99 0 0 1 1 1c0 .27-.11.52-.29.71s-.44.29-.71.29-.52-.11-.71-.29S11 18.27 11 18s.11-.52.29-.71A.99.99 0 0 1 12 17Zm0-4c1.38 0 2.63.56 3.54 1.46.19.19.29.44.29.71s-.11.52-.29.71c-.19.19-.44.29-.71.29s-.52-.11-.71-.29a3 3 0 0 0-4.24 0c-.19.19-.44.29-.71.29s-.52-.11-.71-.29c-.19-.19-.29-.44-.29-.71s.11-.52.29-.71A5.05 5.05 0 0 1 11.99 13Zm0-4a9.02 9.02 0 0 1 6.36 2.63c.18.19.28.44.28.7 0 .26-.11.51-.29.7s-.44.29-.7.29c-.26 0-.51-.1-.7-.28a6.97 6.97 0 0 0-9.9 0c-.19.18-.44.28-.7.28-.26 0-.51-.11-.7-.29s-.29-.44-.29-.7c0-.26.1-.51.28-.7A8.86 8.86 0 0 1 12 9Zm0-4c3.59 0 6.84 1.46 9.19 3.81.18.19.28.44.28.7a.98.98 0 0 1-.99.99c-.26 0-.51-.1-.7-.28A11.09 11.09 0 0 0 12 7a11.05 11.05 0 0 0-7.78 3.22c-.19.18-.44.28-.7.28s-.51-.11-.7-.29-.29-.44-.29-.7c0-.26.1-.51.28-.7A12.92 12.92 0 0 1 12.01 5Z"/></svg>