<svg width="65" height="98" viewBox="0 0 65 98" fill="none" xmlns="http://www.w3.org/2000/svg">
<g filter="url(#filter0_dddd_40002737_156164)">
<path d="M20.038 8.19263C21.152 6.93663 22.964 6.93663 24.126 7.89663L24.336 8.08663L34.032 17.7806L34.206 17.6066C34.5659 17.2479 35.0489 17.0397 35.5568 17.0242C36.0647 17.0087 36.5594 17.1871 36.9406 17.5231C37.3217 17.8592 37.5606 18.3277 37.6088 18.8336C37.657 19.3394 37.5108 19.8446 37.2 20.2466L37.034 20.4346L36.86 20.6086L45.554 29.3046C46.698 30.4486 46.782 32.4186 45.448 33.6046C42.9315 35.8423 39.8363 37.3268 36.516 37.8886L35.834 37.9906L37.794 40.6266C38.0259 40.9379 38.1713 41.3051 38.2155 41.6908C38.2596 42.0765 38.2009 42.467 38.0453 42.8227C37.8897 43.1783 37.6428 43.4865 37.3296 43.7159C37.0164 43.9452 36.6481 44.0876 36.262 44.1286L36.03 44.1406H22.87C22.5293 44.1408 22.1931 44.0618 21.8881 43.9099C21.5831 43.758 21.3175 43.5373 21.1124 43.2652C20.9072 42.9932 20.768 42.6772 20.7059 42.3421C20.6437 42.0071 20.6602 41.6622 20.754 41.3346L20.834 41.1046L23.342 35.0026C20.9234 33.3513 18.9447 31.1343 17.578 28.5441C16.2113 25.954 15.4979 23.0692 15.5 20.1406C15.4946 15.7359 17.1099 11.4831 20.038 8.19263ZM26.89 36.8886L25.556 40.1406H32.448L30.81 37.9406C29.734 37.7795 28.6749 37.5204 27.646 37.1666L26.89 36.8866V36.8886ZM22.314 11.7206C20.2831 14.4164 19.2944 17.7552 19.53 21.1222C19.7656 24.4891 21.2097 27.6576 23.5964 30.0443C25.983 32.4309 29.1515 33.875 32.5185 34.1106C35.8855 34.3463 39.2242 33.3576 41.92 31.3266L34.032 23.4386L30.914 26.5546C30.5368 26.9189 30.0316 27.1205 29.5072 27.116C28.9828 27.1114 28.4812 26.9011 28.1104 26.5303C27.7396 26.1594 27.5292 25.6578 27.5247 25.1334C27.5201 24.609 27.7217 24.1038 28.086 23.7266L31.202 20.6086L22.314 11.7206ZM37.714 10.2466C39.1702 10.503 40.5078 11.214 41.535 12.2775C42.5622 13.341 43.2263 14.7024 43.432 16.1666C43.5053 16.673 43.3818 17.1882 43.0868 17.6062C42.7918 18.0243 42.3479 18.3134 41.8462 18.4141C41.3446 18.5148 40.8235 18.4194 40.39 18.1475C39.9566 17.8757 39.6438 17.4481 39.516 16.9526L39.47 16.7226C39.3895 16.1488 39.1446 15.6106 38.7649 15.173C38.3851 14.7354 37.8868 14.4171 37.33 14.2566L37.02 14.1866C36.4975 14.0943 36.0331 13.7983 35.7289 13.3636C35.4248 12.9288 35.3057 12.3911 35.398 11.8686C35.4903 11.3461 35.7864 10.8817 36.2211 10.5776C36.6558 10.2734 37.1915 10.1543 37.714 10.2466ZM37.5 4.14062C40.6826 4.14063 43.7349 5.40491 45.9853 7.65534C48.2357 9.90578 49.5 12.958 49.5 16.1406C49.4995 16.6504 49.3043 17.1407 48.9543 17.5114C48.6044 17.882 48.1261 18.1051 47.6172 18.135C47.1083 18.1648 46.6073 17.9993 46.2163 17.6721C45.8254 17.3449 45.5742 16.8808 45.514 16.3746L45.5 16.1406C45.5 14.0189 44.6572 11.9841 43.1569 10.4838C41.6566 8.98348 39.6217 8.14062 37.5 8.14062C36.9696 8.14062 36.4609 7.92991 36.0858 7.55484C35.7107 7.17977 35.5 6.67106 35.5 6.14062C35.5 5.61019 35.7107 5.10148 36.0858 4.72641C36.4609 4.35134 36.9696 4.14063 37.5 4.14062Z" fill="#277DFF"/>
</g>
<defs>
<filter id="filter0_dddd_40002737_156164" x="-5.5" y="-2.85938" width="78" height="104" filterUnits="userSpaceOnUse" color-interpolation-filters="sRGB">
<feFlood flood-opacity="0" result="BackgroundImageFix"/>
<feColorMatrix in="SourceAlpha" type="matrix" values="0 0 0 0 0 0 0 0 0 0 0 0 0 0 0 0 0 0 127 0" result="hardAlpha"/>
<feOffset dy="2"/>
<feGaussianBlur stdDeviation="2.5"/>
<feColorMatrix type="matrix" values="0 0 0 0 0.0784314 0 0 0 0 0.478431 0 0 0 0 1 0 0 0 0.15 0"/>
<feBlend mode="normal" in2="BackgroundImageFix" result="effect1_dropShadow_40002737_156164"/>
<feColorMatrix in="SourceAlpha" type="matrix" values="0 0 0 0 0 0 0 0 0 0 0 0 0 0 0 0 0 0 127 0" result="hardAlpha"/>
<feOffset dy="10"/>
<feGaussianBlur stdDeviation="5"/>
<feColorMatrix type="matrix" values="0 0 0 0 0.0784314 0 0 0 0 0.478431 0 0 0 0 1 0 0 0 0.13 0"/>
<feBlend mode="normal" in2="effect1_dropShadow_40002737_156164" result="effect2_dropShadow_40002737_156164"/>
<feColorMatrix in="SourceAlpha" type="matrix" values="0 0 0 0 0 0 0 0 0 0 0 0 0 0 0 0 0 0 127 0" result="hardAlpha"/>
<feOffset dy="21"/>
<feGaussianBlur stdDeviation="6.5"/>
<feColorMatrix type="matrix" values="0 0 0 0 0.0784314 0 0 0 0 0.478431 0 0 0 0 1 0 0 0 0.08 0"/>
<feBlend mode="normal" in2="effect2_dropShadow_40002737_156164" result="effect3_dropShadow_40002737_156164"/>
<feColorMatrix in="SourceAlpha" type="matrix" values="0 0 0 0 0 0 0 0 0 0 0 0 0 0 0 0 0 0 127 0" result="hardAlpha"/>
<feOffset dy="38"/>
<feGaussianBlur stdDeviation="7.5"/>
<feColorMatrix type="matrix" values="0 0 0 0 0.0784314 0 0 0 0 0.478431 0 0 0 0 1 0 0 0 0.02 0"/>
<feBlend mode="normal" in2="effect3_dropShadow_40002737_156164" result="effect4_dropShadow_40002737_156164"/>
<feBlend mode="normal" in="SourceGraphic" in2="effect4_dropShadow_40002737_156164" result="shape"/>
</filter>
</defs>
</svg>
