<svg xmlns="http://www.w3.org/2000/svg" width="89" height="107" fill="none" viewBox="0 0 89 107"><g filter="url(#filter0_dddd_40002737_156233)"><path fill="#277DFF" fill-rule="evenodd" d="M44.5 32.64c5 0 9.52 1.65 12.84 3.97 3.15 2.2 5.83 5.47 5.83 8.98 0 1.93-.83 3.53-2.13 4.72a11.41 11.41 0 0 1-4.45 2.35c-3.29 1-7.61 1.31-12.09 1.31-4.48 0-8.8-.32-12.09-1.31a11.44 11.44 0 0 1-4.46-2.35 6.28 6.28 0 0 1-2.12-4.71c0-3.52 2.68-6.8 5.83-9a22.7 22.7 0 0 1 12.84-3.96Zm0 5.33c-3.84 0-7.31 1.28-9.79 3-2.63 1.85-3.54 3.72-3.54 4.62 0 .81.94 1.32 1.79 1.64l.55.19.45.14c2.5.75 6.19 1.08 10.54 1.08 4.02 0 7.46-.28 9.94-.92l.81-.23.5-.16c.92-.31 2.08-.84 2.08-1.74s-.9-2.77-3.54-4.61a17.4 17.4 0 0 0-9.79-3Zm18.67-2.66c2.78 0 5.3.92 7.18 2.22 1.7 1.2 3.48 3.17 3.48 5.59 0 3.56-3.45 4.83-6.56 5.28l-.8.1-.78.06-.36.02c.32-.92.5-1.92.5-2.99 0-.81-.1-1.6-.28-2.37 1.03-.08 1.87-.2 2.5-.4.28-.08.03-.34-.26-.57l-.29-.2-.2-.15a7.2 7.2 0 0 0-2.66-1.11 16.8 16.8 0 0 0-4.23-5.18c.9-.2 1.83-.3 2.76-.3Zm-37.34 0c.96 0 1.88.1 2.76.3a16.8 16.8 0 0 0-4.23 5.18 7.2 7.2 0 0 0-2.66 1.11l-.34.24c-.34.24-.73.59-.41.68.63.2 1.47.33 2.5.4a9.94 9.94 0 0 0-.28 2.37c0 1.07.18 2.07.5 3l-.74-.06-.8-.08c-3.2-.4-6.96-1.62-6.96-5.33 0-2.42 1.77-4.4 3.48-5.6a12.68 12.68 0 0 1 7.18-2.21Zm36-16a6.67 6.67 0 1 1 0 13.33 6.67 6.67 0 0 1 0-13.33Zm-34.66 0a6.67 6.67 0 1 1 0 13.33 6.67 6.67 0 0 1 0-13.33ZM44.5 8.64a10.67 10.67 0 1 1 0 21.33 10.67 10.67 0 0 1 0-21.33Zm17.33 16a1.33 1.33 0 1 0 0 2.67 1.33 1.33 0 0 0 0-2.67Zm-34.66 0a1.33 1.33 0 1 0 0 2.67 1.33 1.33 0 0 0 0-2.67ZM44.5 13.97a5.33 5.33 0 1 0 0 10.67 5.33 5.33 0 0 0 0-10.67Z" clip-rule="evenodd"/></g><defs><filter id="filter0_dddd_40002737_156233" width="94" height="120" x="-2.5" y="-2.36" color-interpolation-filters="sRGB" filterUnits="userSpaceOnUse"><feFlood flood-opacity="0" result="BackgroundImageFix"/><feColorMatrix in="SourceAlpha" result="hardAlpha" values="0 0 0 0 0 0 0 0 0 0 0 0 0 0 0 0 0 0 127 0"/><feOffset dy="2"/><feGaussianBlur stdDeviation="2.5"/><feColorMatrix values="0 0 0 0 0.0784314 0 0 0 0 0.478431 0 0 0 0 1 0 0 0 0.15 0"/><feBlend in2="BackgroundImageFix" result="effect1_dropShadow_40002737_156233"/><feColorMatrix in="SourceAlpha" result="hardAlpha" values="0 0 0 0 0 0 0 0 0 0 0 0 0 0 0 0 0 0 127 0"/><feOffset dy="10"/><feGaussianBlur stdDeviation="5"/><feColorMatrix values="0 0 0 0 0.0784314 0 0 0 0 0.478431 0 0 0 0 1 0 0 0 0.13 0"/><feBlend in2="effect1_dropShadow_40002737_156233" result="effect2_dropShadow_40002737_156233"/><feColorMatrix in="SourceAlpha" result="hardAlpha" values="0 0 0 0 0 0 0 0 0 0 0 0 0 0 0 0 0 0 127 0"/><feOffset dy="21"/><feGaussianBlur stdDeviation="6.5"/><feColorMatrix values="0 0 0 0 0.0784314 0 0 0 0 0.478431 0 0 0 0 1 0 0 0 0.08 0"/><feBlend in2="effect2_dropShadow_40002737_156233" result="effect3_dropShadow_40002737_156233"/><feColorMatrix in="SourceAlpha" result="hardAlpha" values="0 0 0 0 0 0 0 0 0 0 0 0 0 0 0 0 0 0 127 0"/><feOffset dy="38"/><feGaussianBlur stdDeviation="7.5"/><feColorMatrix values="0 0 0 0 0.0784314 0 0 0 0 0.478431 0 0 0 0 1 0 0 0 0.02 0"/><feBlend in2="effect3_dropShadow_40002737_156233" result="effect4_dropShadow_40002737_156233"/><feBlend in="SourceGraphic" in2="effect4_dropShadow_40002737_156233" result="shape"/></filter></defs></svg>