<svg xmlns="http://www.w3.org/2000/svg" width="82" height="113" fill="none" viewBox="0 0 82 113"><g filter="url(#filter0_dddd_40002737_156238)"><path fill="#277DFF" d="M56.15 38.05a2.67 2.67 0 0 1 1.94 3.24l-1.84 7.35h1.92v-2.67a2.67 2.67 0 1 1 5.33 0v2.67a2.67 2.67 0 0 1 0 5.33v2.67a2.67 2.67 0 1 1-5.33 0v-2.67h-5.34a2.67 2.67 0 0 1-2.58-3.3L52.9 40a2.67 2.67 0 0 1 3.24-1.95Zm-12.65-.08a6.67 6.67 0 0 1 6.65 6.23l.02.44v.87c0 1.6-.51 3.15-1.45 4.43l-.37.47-3.05 3.56h2.2a2.67 2.67 0 0 1 .31 5.32l-.31.02h-8a2.67 2.67 0 0 1-2.23-4.13l.2-.28 6.83-7.96c.27-.32.45-.7.5-1.12l.03-.31v-.87a1.33 1.33 0 0 0-2.66 0 2.67 2.67 0 0 1-5.34 0 6.67 6.67 0 0 1 6.67-6.67Zm-4-29.33a24.01 24.01 0 0 1 23.24 18 2.67 2.67 0 0 1-5.16 1.33 18.67 18.67 0 1 0-27.41 20.84 2.67 2.67 0 0 1-2.67 4.61 24 24 0 0 1 12-44.78Zm0 10.67a2.67 2.67 0 0 1 2.65 2.35l.02.31v10.67a2.67 2.67 0 0 1-2.36 2.65l-.31.02h-5.33a2.67 2.67 0 0 1-.32-5.32l.32-.02h2.66v-8a2.67 2.67 0 0 1 2.67-2.66Z"/></g><defs><filter id="filter0_dddd_40002737_156238" width="94" height="120" x="-7.5" y="-2.36" color-interpolation-filters="sRGB" filterUnits="userSpaceOnUse"><feFlood flood-opacity="0" result="BackgroundImageFix"/><feColorMatrix in="SourceAlpha" result="hardAlpha" values="0 0 0 0 0 0 0 0 0 0 0 0 0 0 0 0 0 0 127 0"/><feOffset dy="2"/><feGaussianBlur stdDeviation="2.5"/><feColorMatrix values="0 0 0 0 0.0784314 0 0 0 0 0.478431 0 0 0 0 1 0 0 0 0.15 0"/><feBlend in2="BackgroundImageFix" result="effect1_dropShadow_40002737_156238"/><feColorMatrix in="SourceAlpha" result="hardAlpha" values="0 0 0 0 0 0 0 0 0 0 0 0 0 0 0 0 0 0 127 0"/><feOffset dy="10"/><feGaussianBlur stdDeviation="5"/><feColorMatrix values="0 0 0 0 0.0784314 0 0 0 0 0.478431 0 0 0 0 1 0 0 0 0.13 0"/><feBlend in2="effect1_dropShadow_40002737_156238" result="effect2_dropShadow_40002737_156238"/><feColorMatrix in="SourceAlpha" result="hardAlpha" values="0 0 0 0 0 0 0 0 0 0 0 0 0 0 0 0 0 0 127 0"/><feOffset dy="21"/><feGaussianBlur stdDeviation="6.5"/><feColorMatrix values="0 0 0 0 0.0784314 0 0 0 0 0.478431 0 0 0 0 1 0 0 0 0.08 0"/><feBlend in2="effect2_dropShadow_40002737_156238" result="effect3_dropShadow_40002737_156238"/><feColorMatrix in="SourceAlpha" result="hardAlpha" values="0 0 0 0 0 0 0 0 0 0 0 0 0 0 0 0 0 0 127 0"/><feOffset dy="38"/><feGaussianBlur stdDeviation="7.5"/><feColorMatrix values="0 0 0 0 0.0784314 0 0 0 0 0.478431 0 0 0 0 1 0 0 0 0.02 0"/><feBlend in2="effect3_dropShadow_40002737_156238" result="effect4_dropShadow_40002737_156238"/><feBlend in="SourceGraphic" in2="effect4_dropShadow_40002737_156238" result="shape"/></filter></defs></svg>