<svg xmlns="http://www.w3.org/2000/svg" width="26" height="26" viewBox="0 0 26 26"><path d="m12.47 2.32-1.36-.82-.26 1.57c-.42 2.48-2.1 4.79-3.98 6.4-3.65 3.17-4.45 6.62-3.32 9.46a8.21 8.21 0 0 0 6.62 4.9l.65.07a5.17 5.17 0 0 1-2.27-4.96c.36-1.68 1.56-3.24 3.88-4.7l1.16-.72.44 1.3c.25.78.7 1.4 1.15 2.03.22.3.44.6.64.93.7 1.13.88 2.4.43 3.64a4.45 4.45 0 0 1-2.02 2.53l1.06-.12c2.61-.3 4.54-1.19 5.79-2.69 1.24-1.48 1.67-3.4 1.67-5.43 0-1.9-.78-3.85-1.7-5.48a23.5 23.5 0 0 0-4.01-5.02c-.27.54-.25.75-.8 1.6a8.82 8.82 0 0 0-3.77-4.49Z"/></svg>