<svg xmlns="http://www.w3.org/2000/svg" width="26" height="26" viewBox="0 0 26 26"><path fill-rule="evenodd" d="M13 13c2.029 0 3.867.672 5.216 1.61 1.281.895 2.367 2.223 2.367 3.652 0 .784-.335 1.434-.862 1.917-.497.456-1.144.752-1.812.954-1.333.404-3.09.534-4.91.534-1.82 0-3.575-.13-4.909-.534-.667-.202-1.315-.498-1.812-.954-.526-.482-.862-1.132-.862-1.916 0-1.43 1.086-2.757 2.367-3.651C9.133 13.672 10.971 13 13 13Zm0 2.167c-1.56 0-2.972.52-3.976 1.22-1.072.748-1.441 1.509-1.441 1.875 0 .33.381.535.728.665l.222.076.184.056c1.019.308 2.514.441 4.283.441 1.633 0 3.032-.114 4.038-.373l.33-.094.206-.065c.371-.127.842-.34.842-.706 0-.366-.37-1.127-1.44-1.874-1.004-.7-2.416-1.221-3.976-1.221Zm7.583-1.084a5.16 5.16 0 0 1 2.917.903c.694.484 1.416 1.289 1.416 2.27 0 1.447-1.405 1.965-2.668 2.145l-.325.04-.313.028-.15.008c.133-.373.206-.78.206-1.215 0-.33-.04-.652-.116-.962a5.033 5.033 0 0 0 1.018-.164c.112-.034.01-.14-.109-.233l-.116-.084-.082-.055a2.923 2.923 0 0 0-1.078-.453c-.412-.824-1.044-1.537-1.718-2.105a5.183 5.183 0 0 1 1.118-.123Zm-15.167 0c.387 0 .762.044 1.118.123-.673.569-1.306 1.281-1.718 2.105-.42.085-.792.253-1.078.453l-.138.095c-.138.1-.3.238-.168.277.255.077.599.132 1.018.164a4.04 4.04 0 0 0-.117.962c0 .435.074.841.206 1.215l-.303-.021-.321-.033c-1.302-.16-2.832-.657-2.832-2.167 0-.98.722-1.786 1.416-2.27a5.153 5.153 0 0 1 2.917-.903Zm14.625-6.5a2.708 2.708 0 1 1 0 5.417 2.708 2.708 0 0 1 0-5.417Zm-14.083 0a2.708 2.708 0 1 1 0 5.417 2.708 2.708 0 0 1 0-5.417ZM13 3.25a4.333 4.333 0 1 1 0 8.667 4.333 4.333 0 0 1 0-8.667Zm7.041 6.5a.542.542 0 1 0 0 1.084.542.542 0 0 0 0-1.084Zm-14.083 0a.542.542 0 1 0 0 1.083.542.542 0 0 0 0-1.083ZM13 5.417a2.167 2.167 0 1 0 0 4.333 2.167 2.167 0 0 0 0-4.333Z" clip-rule="evenodd"/></svg>