<svg xmlns="http://www.w3.org/2000/svg" width="26" height="26" viewBox="0 0 26 26"><path fill-rule="evenodd" d="M11.92 2.17a5.42 5.42 0 1 0 0 10.83 5.42 5.42 0 0 0 0-10.83ZM8.67 7.58a3.25 3.25 0 1 1 6.5 0 3.25 3.25 0 0 1-6.5 0ZM4.33 20.04c0-.2.1-.53.45-.97.34-.43.87-.9 1.57-1.32a10.87 10.87 0 0 1 6.76-1.43 1.08 1.08 0 0 0 .23-2.16 13.04 13.04 0 0 0-8.12 1.74 8.1 8.1 0 0 0-2.14 1.83 3.8 3.8 0 0 0-.91 2.31c0 .92.44 1.64 1.08 2.15.61.5 1.41.81 2.26 1.04 1.71.45 4 .6 6.4.6h.75a1.08 1.08 0 1 0-.03-2.17h-.71c-2.38 0-4.43-.15-5.85-.52a4.03 4.03 0 0 1-1.46-.64c-.24-.19-.28-.32-.28-.46Zm15.17-4.87a1.08 1.08 0 0 1 1.08 1.08v2.17h2.17a1.08 1.08 0 1 1 0 2.16h-2.17v2.17a1.08 1.08 0 0 1-2.16 0v-2.17h-2.17a1.08 1.08 0 1 1 0-2.16h2.17v-2.17a1.08 1.08 0 0 1 1.08-1.08Z" clip-rule="evenodd"/></svg>