<svg xmlns="http://www.w3.org/2000/svg" width="128" height="41" fill="none" viewBox="0 0 128 41"><rect width="128" height="40" y=".59" fill="#000" rx="6"/><path fill="#fff" d="M85.55 19.79v2.29h-1.43v1.5h1.43v5.1c0 1.75.8 2.45 2.78 2.45.35 0 .68-.05.97-.1v-1.48c-.25.02-.4.04-.68.04-.9 0-1.28-.42-1.28-1.36v-4.65h1.96v-1.5h-1.96v-2.3h-1.79Zm8.8 11.46c2.64 0 4.26-1.77 4.26-4.7 0-2.91-1.63-4.69-4.26-4.69-2.64 0-4.27 1.78-4.27 4.7s1.62 4.69 4.27 4.69Zm0-1.59c-1.55 0-2.42-1.13-2.42-3.1 0-1.97.87-3.11 2.42-3.11 1.55 0 2.43 1.14 2.43 3.1 0 1.97-.88 3.11-2.43 3.11Zm5.65 1.42h1.78v-5.34c0-1.27.95-2.13 2.3-2.13.32 0 .85.06 1 .11v-1.76a3.78 3.78 0 0 0-.8-.07c-1.17 0-2.18.64-2.43 1.53h-.14v-1.38H100v9.04Zm9.51-7.7c1.32 0 2.19.92 2.23 2.34h-4.57c.1-1.41 1.02-2.34 2.34-2.34Zm2.22 5.25c-.33.71-1.07 1.1-2.15 1.1-1.43 0-2.35-1-2.4-2.59v-.1h6.38v-.62c0-2.84-1.52-4.56-4.04-4.56-2.55 0-4.16 1.84-4.16 4.72 0 2.9 1.58 4.67 4.17 4.67 2.07 0 3.51-1 3.92-2.62h-1.72Zm-37.88-.89c.14 2.22 1.99 3.64 4.74 3.64 2.94 0 4.78-1.5 4.78-3.87 0-1.86-1.05-2.9-3.6-3.49l-1.36-.34c-1.62-.37-2.27-.88-2.27-1.77 0-1.12 1.01-1.85 2.54-1.85 1.44 0 2.44.72 2.62 1.86h1.88c-.12-2.09-1.96-3.56-4.48-3.56-2.7 0-4.51 1.47-4.51 3.68 0 1.83 1.02 2.91 3.27 3.43l1.6.4c1.64.38 2.36.95 2.36 1.9 0 1.1-1.13 1.9-2.68 1.9-1.66 0-2.82-.75-2.98-1.93h-1.91Zm-18.49-5.85c-1.23 0-2.29.61-2.84 1.64h-.13v-1.5h-1.72v12.05h1.79v-4.37h.14c.47.95 1.5 1.51 2.78 1.51 2.28 0 3.73-1.8 3.73-4.67s-1.45-4.66-3.75-4.66Zm-.5 7.73c-1.5 0-2.44-1.18-2.44-3.06 0-1.9.94-3.07 2.45-3.07 1.5 0 2.41 1.15 2.41 3.06 0 1.92-.9 3.07-2.42 3.07Zm10.5-7.73c-1.23 0-2.3.61-2.84 1.64h-.13v-1.5h-1.72v12.05h1.78v-4.37h.15c.47.95 1.49 1.51 2.78 1.51 2.28 0 3.73-1.8 3.73-4.67s-1.45-4.66-3.75-4.66Zm-.5 7.73c-1.5 0-2.44-1.18-2.44-3.06 0-1.9.94-3.07 2.44-3.07 1.51 0 2.42 1.15 2.42 3.06 0 1.92-.9 3.07-2.43 3.07Zm-17.39 1.46h2.05l-4.48-12.42h-2.08l-4.48 12.42h1.98l1.14-3.3h4.74l1.13 3.3ZM43.9 20.9h.15l1.8 5.25h-3.76l1.81-5.25ZM39.68 9.3v5.99h2.16c1.79 0 2.82-1.1 2.82-3.02 0-1.88-1.04-2.97-2.82-2.97h-2.16Zm.93.85h1.13c1.24 0 1.97.78 1.97 2.14 0 1.37-.72 2.15-1.97 2.15H40.6v-4.3Zm7.22 5.22c1.32 0 2.12-.88 2.12-2.34s-.8-2.35-2.12-2.35-2.14.89-2.14 2.35.81 2.34 2.14 2.34Zm0-.79c-.78 0-1.22-.57-1.22-1.55 0-.98.44-1.56 1.22-1.56.77 0 1.2.58 1.2 1.56 0 .98-.43 1.55-1.2 1.55Zm9.02-3.81h-.9l-.8 3.45h-.07l-.93-3.45h-.86l-.93 3.45h-.06l-.81-3.45h-.9l1.24 4.52h.92l.93-3.33h.07l.93 3.33h.93l1.24-4.52Zm1.02 4.52h.9v-2.65c0-.7.42-1.14 1.08-1.14.66 0 .97.36.97 1.09v2.7h.9v-2.93c0-1.07-.56-1.68-1.57-1.68-.68 0-1.13.3-1.35.8h-.07v-.71h-.86v4.52Zm5.25 0h.9V9h-.9v6.29Zm4.25.08c1.32 0 2.13-.88 2.13-2.34s-.82-2.35-2.13-2.35c-1.32 0-2.14.89-2.14 2.35s.81 2.34 2.14 2.34Zm0-.79c-.78 0-1.22-.57-1.22-1.55 0-.98.44-1.56 1.22-1.56.77 0 1.2.58 1.2 1.56 0 .98-.43 1.55-1.2 1.55Zm4.78.03c-.48 0-.83-.24-.83-.64s.28-.61.9-.65l1.1-.07v.37c0 .56-.5 1-1.17 1Zm-.22.75c.59 0 1.08-.25 1.35-.7h.07v.63h.86V12.2c0-.95-.64-1.52-1.77-1.52-1.02 0-1.75.5-1.85 1.27h.87c.1-.31.44-.5.94-.5.61 0 .93.27.93.75v.39l-1.23.07c-1.07.07-1.68.54-1.68 1.35 0 .83.64 1.35 1.5 1.35Zm5.31 0c.62 0 1.15-.3 1.42-.79h.07v.72h.86V9h-.9v2.49h-.06a1.5 1.5 0 0 0-1.39-.8c-1.14 0-1.87.9-1.87 2.34 0 1.43.72 2.33 1.87 2.33Zm.25-3.87c.75 0 1.22.6 1.22 1.54 0 .95-.46 1.53-1.22 1.53-.75 0-1.2-.58-1.2-1.53 0-.95.45-1.54 1.2-1.54Zm7.88 3.88c1.32 0 2.13-.88 2.13-2.34s-.81-2.35-2.13-2.35c-1.32 0-2.13.89-2.13 2.35s.8 2.34 2.13 2.34Zm0-.79c-.77 0-1.2-.57-1.2-1.55 0-.98.43-1.56 1.2-1.56s1.21.58 1.21 1.56c0 .98-.44 1.55-1.2 1.55Zm3.31.71h.9v-2.65c0-.7.41-1.14 1.07-1.14.66 0 .98.36.98 1.09v2.7h.9v-2.93c0-1.07-.56-1.68-1.57-1.68-.68 0-1.13.3-1.35.8h-.07v-.71h-.86v4.52Zm7.95-5.65v1.15h-.72v.75h.72v2.55c0 .87.4 1.22 1.39 1.22.17 0 .34-.02.48-.04v-.75c-.12.02-.2.02-.34.02-.44 0-.64-.2-.64-.68v-2.32h.98v-.75h-.98V9.64h-.89Zm3.07 5.65h.9v-2.64c0-.69.4-1.15 1.13-1.15.63 0 .97.37.97 1.09v2.7h.9v-2.92c0-1.08-.6-1.69-1.57-1.69-.68 0-1.15.3-1.37.81h-.07V9h-.89v6.29Zm7.11-3.85c.66 0 1.1.46 1.11 1.17h-2.28c.05-.7.51-1.17 1.17-1.17Zm1.1 2.63c-.16.35-.53.55-1.07.55-.71 0-1.17-.5-1.2-1.3v-.05h3.2v-.31c0-1.42-.77-2.28-2.03-2.28-1.27 0-2.08.92-2.08 2.36 0 1.45.8 2.33 2.09 2.33 1.03 0 1.75-.5 1.96-1.3h-.86ZM28.8 20.89a4.99 4.99 0 0 1 2.35-4.16 5.13 5.13 0 0 0-3.99-2.15c-1.68-.18-3.3 1-4.16 1-.87 0-2.19-.99-3.6-.96a5.36 5.36 0 0 0-4.48 2.73c-1.94 3.35-.5 8.27 1.36 10.98.93 1.32 2.01 2.8 3.43 2.75 1.38-.06 1.9-.89 3.58-.89 1.66 0 2.14.89 3.59.86 1.49-.03 2.42-1.34 3.32-2.67.66-.95 1.18-2 1.52-3.1a4.82 4.82 0 0 1-2.92-4.4Zm-2.73-8.09a4.87 4.87 0 0 0 1.11-3.5 4.96 4.96 0 0 0-3.2 1.66 4.68 4.68 0 0 0-1.15 3.37 4.15 4.15 0 0 0 3.24-1.53Z"/></svg>