<svg xmlns="http://www.w3.org/2000/svg" width="74" height="113" fill="none" viewBox="0 0 74 113"><g filter="url(#filter0_dddd_40002737_156228)"><path fill="#277DFF" fill-rule="evenodd" d="M39.67 51.3a2.67 2.67 0 0 1 2.66 2.67v2.67a2.67 2.67 0 0 1-2.66 2.67h-5.34a2.67 2.67 0 0 1-2.66-2.67v-2.67a2.67 2.67 0 0 1 2.66-2.66h5.34ZM37 5.98a21.33 21.33 0 0 1 21.33 21.34c0 7.61-3.81 13.61-8.2 17.63a28.45 28.45 0 0 1-6.81 4.65c-2.18 1.04-4.43 1.72-6.32 1.72l-.64-.03a16.51 16.51 0 0 1-5.68-1.7 28.45 28.45 0 0 1-6.82-4.64c-4.38-4.02-8.2-10.02-8.2-17.63A21.33 21.33 0 0 1 37 5.97Zm0 7.52a31.4 31.4 0 0 0-4 15.15c0 6.64 2.23 11.97 4 15.15 1.77-3.17 4-8.5 4-15.15s-2.23-11.97-4-15.15Zm-5.36-1.26A16 16 0 0 0 21 27.3c0 5.71 2.85 10.38 6.47 13.7a23.9 23.9 0 0 0 3.5 2.66 36.4 36.4 0 0 1-3.3-15.03c0-6.93 2.05-12.61 3.96-16.41Zm10.73 0a36.58 36.58 0 0 1 3.96 16.4c0 6.14-1.6 11.3-3.3 15.04a23.85 23.85 0 0 0 3.5-2.66c3.62-3.33 6.47-8 6.47-13.72a16 16 0 0 0-10.63-15.08Z" clip-rule="evenodd"/></g><defs><filter id="filter0_dddd_40002737_156228" width="94" height="120" x="-10" y="-2.36" color-interpolation-filters="sRGB" filterUnits="userSpaceOnUse"><feFlood flood-opacity="0" result="BackgroundImageFix"/><feColorMatrix in="SourceAlpha" result="hardAlpha" values="0 0 0 0 0 0 0 0 0 0 0 0 0 0 0 0 0 0 127 0"/><feOffset dy="2"/><feGaussianBlur stdDeviation="2.5"/><feColorMatrix values="0 0 0 0 0.0784314 0 0 0 0 0.478431 0 0 0 0 1 0 0 0 0.15 0"/><feBlend in2="BackgroundImageFix" result="effect1_dropShadow_40002737_156228"/><feColorMatrix in="SourceAlpha" result="hardAlpha" values="0 0 0 0 0 0 0 0 0 0 0 0 0 0 0 0 0 0 127 0"/><feOffset dy="10"/><feGaussianBlur stdDeviation="5"/><feColorMatrix values="0 0 0 0 0.0784314 0 0 0 0 0.478431 0 0 0 0 1 0 0 0 0.13 0"/><feBlend in2="effect1_dropShadow_40002737_156228" result="effect2_dropShadow_40002737_156228"/><feColorMatrix in="SourceAlpha" result="hardAlpha" values="0 0 0 0 0 0 0 0 0 0 0 0 0 0 0 0 0 0 127 0"/><feOffset dy="21"/><feGaussianBlur stdDeviation="6.5"/><feColorMatrix values="0 0 0 0 0.0784314 0 0 0 0 0.478431 0 0 0 0 1 0 0 0 0.08 0"/><feBlend in2="effect2_dropShadow_40002737_156228" result="effect3_dropShadow_40002737_156228"/><feColorMatrix in="SourceAlpha" result="hardAlpha" values="0 0 0 0 0 0 0 0 0 0 0 0 0 0 0 0 0 0 127 0"/><feOffset dy="38"/><feGaussianBlur stdDeviation="7.5"/><feColorMatrix values="0 0 0 0 0.0784314 0 0 0 0 0.478431 0 0 0 0 1 0 0 0 0.02 0"/><feBlend in2="effect3_dropShadow_40002737_156228" result="effect4_dropShadow_40002737_156228"/><feBlend in="SourceGraphic" in2="effect4_dropShadow_40002737_156228" result="shape"/></filter></defs></svg>