<svg xmlns="http://www.w3.org/2000/svg" width="20" height="20" fill="none" viewBox="0 0 20 20"><path fill="#277DFF" fill-rule="evenodd" d="M2.5 5A2.5 2.5 0 0 1 5 2.5h7.5c1.45 0 2.75.62 3.66 1.6.27-.18.54-.35.82-.51a.83.83 0 1 1 .82 1.45l-.72.45c.28.63.42 1.32.42 2.01V15a2.5 2.5 0 0 1-2.5 2.5H5A2.5 2.5 0 0 1 2.5 15V5Zm13.88.98c-.2-.52-.51-1-.9-1.4a22.88 22.88 0 0 0-5.77 5.86 8.22 8.22 0 0 0-1.47-1.5 5.71 5.71 0 0 0-1.18-.7.83.83 0 1 0-.57 1.57c.02 0 .3.12.73.45A7.36 7.36 0 0 1 9 12.4a.83.83 0 0 0 1.44 0 20.34 20.34 0 0 1 4.68-5.44c.4-.34.82-.66 1.25-.97Z" clip-rule="evenodd"/></svg>