<svg width="64" height="99" viewBox="0 0 64 99" fill="none" xmlns="http://www.w3.org/2000/svg">
<g filter="url(#filter0_dddd_40003237_163191)">
<path fill-rule="evenodd" clip-rule="evenodd" d="M29 5.78125C29.5304 5.78125 30.0391 5.99196 30.4142 6.36704C30.7893 6.74211 31 7.25082 31 7.78125C31 8.31168 30.7893 8.82039 30.4142 9.19546C30.0391 9.57054 29.5304 9.78125 29 9.78125H21C20.4696 9.78125 19.9609 9.99196 19.5858 10.367C19.2107 10.7421 19 11.2508 19 11.7812V39.7812C19 40.3117 19.2107 40.8204 19.5858 41.1955C19.9609 41.5705 20.4696 41.7812 21 41.7812H37C37.5304 41.7812 38.0391 41.5705 38.4142 41.1955C38.7893 40.8204 39 40.3117 39 39.7812V25.7812C39 25.2508 39.2107 24.7421 39.5858 24.367C39.9609 23.992 40.4696 23.7812 41 23.7812C41.5304 23.7812 42.0391 23.992 42.4142 24.367C42.7893 24.7421 43 25.2508 43 25.7812V39.7812C43 41.3725 42.3679 42.8987 41.2426 44.0239C40.1174 45.1491 38.5913 45.7812 37 45.7812H21C19.4087 45.7812 17.8826 45.1491 16.7574 44.0239C15.6321 42.8987 15 41.3725 15 39.7812V11.7812C15 10.19 15.6321 8.66383 16.7574 7.53861C17.8826 6.41339 19.4087 5.78125 21 5.78125H29ZM29 33.7812C29.7956 33.7812 30.5587 34.0973 31.1213 34.6599C31.6839 35.2225 32 35.9856 32 36.7812C32 37.5769 31.6839 38.34 31.1213 38.9026C30.5587 39.4652 29.7956 39.7812 29 39.7812C28.2044 39.7812 27.4413 39.4652 26.8787 38.9026C26.3161 38.34 26 37.5769 26 36.7812C26 35.9856 26.3161 35.2225 26.8787 34.6599C27.4413 34.0973 28.2044 33.7812 29 33.7812ZM41 3.78125C41.4172 3.78142 41.8239 3.91204 42.1631 4.15483C42.5024 4.39762 42.7572 4.74042 42.892 5.13525L43.152 5.89125C43.448 6.75876 43.9388 7.54692 44.5868 8.19524C45.2348 8.84355 46.0226 9.33479 46.89 9.63125L47.646 9.88925C48.0404 10.0244 48.3827 10.2794 48.625 10.6186C48.8674 10.9579 48.9977 11.3643 48.9977 11.7812C48.9977 12.1982 48.8674 12.6046 48.625 12.9439C48.3827 13.2831 48.0404 13.5381 47.646 13.6733L46.89 13.9333C46.0225 14.2292 45.2343 14.7201 44.586 15.368C43.9377 16.016 43.4465 16.8039 43.15 17.6713L42.892 18.4272C42.7569 18.8216 42.5018 19.1639 42.1626 19.4063C41.8234 19.6486 41.4169 19.7789 41 19.7789C40.5831 19.7789 40.1766 19.6486 39.8374 19.4063C39.4982 19.1639 39.2431 18.8216 39.108 18.4272L38.848 17.6713C38.552 16.8037 38.0612 16.0156 37.4132 15.3673C36.7652 14.7189 35.9774 14.2277 35.11 13.9312L34.354 13.6733C33.9596 13.5381 33.6173 13.2831 33.375 12.9439C33.1326 12.6046 33.0023 12.1982 33.0023 11.7812C33.0023 11.3643 33.1326 10.9579 33.375 10.6186C33.6173 10.2794 33.9596 10.0244 34.354 9.88925L35.11 9.62925C35.9775 9.33326 36.7657 8.84244 37.414 8.19447C38.0623 7.5465 38.5535 6.7586 38.85 5.89125L39.108 5.13525C39.2428 4.74042 39.4976 4.39762 39.8369 4.15483C40.1761 3.91204 40.5828 3.78142 41 3.78125ZM41 10.1733C40.5268 10.7686 39.9873 11.3081 39.392 11.7812C39.988 12.2533 40.526 12.7932 41 13.3892C41.472 12.7932 42.012 12.2533 42.608 11.7812C42.0127 11.3081 41.4732 10.7686 41 10.1733Z" fill="#FF5E01"/>
</g>
<defs>
<filter id="filter0_dddd_40003237_163191" x="-10" y="-1.21875" width="78" height="104" filterUnits="userSpaceOnUse" color-interpolation-filters="sRGB">
<feFlood flood-opacity="0" result="BackgroundImageFix"/>
<feColorMatrix in="SourceAlpha" type="matrix" values="0 0 0 0 0 0 0 0 0 0 0 0 0 0 0 0 0 0 127 0" result="hardAlpha"/>
<feOffset dy="2"/>
<feGaussianBlur stdDeviation="2.5"/>
<feColorMatrix type="matrix" values="0 0 0 0 1 0 0 0 0 0.368627 0 0 0 0 0.00392157 0 0 0 0.15 0"/>
<feBlend mode="normal" in2="BackgroundImageFix" result="effect1_dropShadow_40003237_163191"/>
<feColorMatrix in="SourceAlpha" type="matrix" values="0 0 0 0 0 0 0 0 0 0 0 0 0 0 0 0 0 0 127 0" result="hardAlpha"/>
<feOffset dy="10"/>
<feGaussianBlur stdDeviation="5"/>
<feColorMatrix type="matrix" values="0 0 0 0 1 0 0 0 0 0.368627 0 0 0 0 0.00392157 0 0 0 0.13 0"/>
<feBlend mode="normal" in2="effect1_dropShadow_40003237_163191" result="effect2_dropShadow_40003237_163191"/>
<feColorMatrix in="SourceAlpha" type="matrix" values="0 0 0 0 0 0 0 0 0 0 0 0 0 0 0 0 0 0 127 0" result="hardAlpha"/>
<feOffset dy="21"/>
<feGaussianBlur stdDeviation="6.5"/>
<feColorMatrix type="matrix" values="0 0 0 0 1 0 0 0 0 0.368627 0 0 0 0 0.00392157 0 0 0 0.08 0"/>
<feBlend mode="normal" in2="effect2_dropShadow_40003237_163191" result="effect3_dropShadow_40003237_163191"/>
<feColorMatrix in="SourceAlpha" type="matrix" values="0 0 0 0 0 0 0 0 0 0 0 0 0 0 0 0 0 0 127 0" result="hardAlpha"/>
<feOffset dy="38"/>
<feGaussianBlur stdDeviation="7.5"/>
<feColorMatrix type="matrix" values="0 0 0 0 1 0 0 0 0 0.368627 0 0 0 0 0.00392157 0 0 0 0.02 0"/>
<feBlend mode="normal" in2="effect3_dropShadow_40003237_163191" result="effect4_dropShadow_40003237_163191"/>
<feBlend mode="normal" in="SourceGraphic" in2="effect4_dropShadow_40003237_163191" result="shape"/>
</filter>
</defs>
</svg>
