<svg width="60" height="90" viewBox="0 0 60 90" fill="none" xmlns="http://www.w3.org/2000/svg">
<g filter="url(#filter0_dddd_40003237_163123)">
<path d="M43.3333 24.9987C43.7754 24.9987 44.1993 25.1743 44.5118 25.4869C44.8244 25.7994 45 26.2233 45 26.6654V33.332C45 34.2161 44.6488 35.0639 44.0237 35.6891C43.3986 36.3142 42.5507 36.6654 41.6667 36.6654H18.3333C17.4493 36.6654 16.6014 36.3142 15.9763 35.6891C15.3512 35.0639 15 34.2161 15 33.332V26.6654C15 26.2233 15.1756 25.7994 15.4882 25.4869C15.8007 25.1743 16.2246 24.9987 16.6667 24.9987C17.1087 24.9987 17.5326 25.1743 17.8452 25.4869C18.1577 25.7994 18.3333 26.2233 18.3333 26.6654V33.332H41.6667V26.6654C41.6667 26.2233 41.8423 25.7994 42.1548 25.4869C42.4674 25.1743 42.8913 24.9987 43.3333 24.9987ZM30 3.33203C30.442 3.33203 30.8659 3.50763 31.1785 3.82019C31.4911 4.13275 31.6667 4.55667 31.6667 4.9987V22.0704L35.8933 17.8437C36.0471 17.6845 36.231 17.5575 36.4343 17.4702C36.6377 17.3828 36.8564 17.3369 37.0777 17.3349C37.299 17.333 37.5184 17.3752 37.7233 17.459C37.9281 17.5428 38.1142 17.6666 38.2707 17.823C38.4271 17.9795 38.5509 18.1656 38.6347 18.3704C38.7185 18.5753 38.7607 18.7947 38.7588 19.016C38.7568 19.2373 38.7108 19.456 38.6235 19.6594C38.5362 19.8627 38.4092 20.0466 38.25 20.2004L31.4733 26.977C31.2799 27.1705 31.0502 27.3241 30.7974 27.4288C30.5446 27.5335 30.2736 27.5874 30 27.5874C29.7264 27.5874 29.4554 27.5335 29.2026 27.4288C28.9498 27.3241 28.7201 27.1705 28.5267 26.977L21.75 20.2004C21.5908 20.0466 21.4638 19.8627 21.3765 19.6594C21.2891 19.456 21.2432 19.2373 21.2412 19.016C21.2393 18.7947 21.2815 18.5753 21.3653 18.3704C21.4491 18.1656 21.5729 17.9795 21.7293 17.823C21.8858 17.6666 22.0719 17.5428 22.2767 17.459C22.4816 17.3752 22.701 17.333 22.9223 17.3349C23.1436 17.3369 23.3623 17.3828 23.5657 17.4702C23.769 17.5575 23.9529 17.6845 24.1067 17.8437L28.3333 22.0704V4.9987C28.3333 4.55667 28.5089 4.13275 28.8215 3.82019C29.134 3.50763 29.558 3.33203 30 3.33203Z" fill="#32BF00"/>
</g>
<defs>
<filter id="filter0_dddd_40003237_163123" x="-5" y="-3" width="70" height="96" filterUnits="userSpaceOnUse" color-interpolation-filters="sRGB">
<feFlood flood-opacity="0" result="BackgroundImageFix"/>
<feColorMatrix in="SourceAlpha" type="matrix" values="0 0 0 0 0 0 0 0 0 0 0 0 0 0 0 0 0 0 127 0" result="hardAlpha"/>
<feOffset dy="2"/>
<feGaussianBlur stdDeviation="2.5"/>
<feColorMatrix type="matrix" values="0 0 0 0 0.196078 0 0 0 0 0.74902 0 0 0 0 0 0 0 0 0.15 0"/>
<feBlend mode="normal" in2="BackgroundImageFix" result="effect1_dropShadow_40003237_163123"/>
<feColorMatrix in="SourceAlpha" type="matrix" values="0 0 0 0 0 0 0 0 0 0 0 0 0 0 0 0 0 0 127 0" result="hardAlpha"/>
<feOffset dy="10"/>
<feGaussianBlur stdDeviation="5"/>
<feColorMatrix type="matrix" values="0 0 0 0 0.196078 0 0 0 0 0.74902 0 0 0 0 0 0 0 0 0.13 0"/>
<feBlend mode="normal" in2="effect1_dropShadow_40003237_163123" result="effect2_dropShadow_40003237_163123"/>
<feColorMatrix in="SourceAlpha" type="matrix" values="0 0 0 0 0 0 0 0 0 0 0 0 0 0 0 0 0 0 127 0" result="hardAlpha"/>
<feOffset dy="21"/>
<feGaussianBlur stdDeviation="6.5"/>
<feColorMatrix type="matrix" values="0 0 0 0 0.196078 0 0 0 0 0.74902 0 0 0 0 0 0 0 0 0.08 0"/>
<feBlend mode="normal" in2="effect2_dropShadow_40003237_163123" result="effect3_dropShadow_40003237_163123"/>
<feColorMatrix in="SourceAlpha" type="matrix" values="0 0 0 0 0 0 0 0 0 0 0 0 0 0 0 0 0 0 127 0" result="hardAlpha"/>
<feOffset dy="38"/>
<feGaussianBlur stdDeviation="7.5"/>
<feColorMatrix type="matrix" values="0 0 0 0 0.196078 0 0 0 0 0.74902 0 0 0 0 0 0 0 0 0.02 0"/>
<feBlend mode="normal" in2="effect3_dropShadow_40003237_163123" result="effect4_dropShadow_40003237_163123"/>
<feBlend mode="normal" in="SourceGraphic" in2="effect4_dropShadow_40003237_163123" result="shape"/>
</filter>
</defs>
</svg>
