<svg xmlns="http://www.w3.org/2000/svg" width="20" height="20" fill="none" viewBox="0 0 20 20"><g clip-path="url(#a)"><path fill="#FFBA08" d="m9.6 1.79-1.05-.63-.2 1.2C8.04 4.27 6.73 6.04 5.3 7.3c-2.82 2.44-3.43 5.09-2.56 7.27a6.32 6.32 0 0 0 5.1 3.77l.5.05a3.96 3.96 0 0 1-1.75-3.81c.27-1.29 1.2-2.5 2.98-3.61l.9-.56.33 1c.2.6.54 1.07.89 1.56l.49.72c.53.87.68 1.84.33 2.8a3.43 3.43 0 0 1-1.55 1.94l.8-.1c2.02-.22 3.5-.9 4.46-2.06a6.35 6.35 0 0 0 1.29-4.18c0-1.45-.6-2.96-1.3-4.2A18.07 18.07 0 0 0 13.1 4c-.2.4-.18.57-.6 1.23a6.79 6.79 0 0 0-2.9-3.45Z"/></g><defs><clipPath id="a"><path fill="#fff" d="M.01 0h20v20h-20z"/></clipPath></defs></svg>