<svg width="66" height="88" viewBox="0 0 66 88" fill="none" xmlns="http://www.w3.org/2000/svg">
<g filter="url(#filter0_dddd_40003237_163179)">
<path fill-rule="evenodd" clip-rule="evenodd" d="M41.3332 7.44922C42.6049 7.44922 43.6566 8.17255 44.4265 8.93255C45.2282 9.72089 45.9632 10.7809 46.6165 11.9492C47.9282 14.2926 49.0699 17.3542 49.8249 20.3792C50.5749 23.3809 50.9899 26.5159 50.7249 28.9809C50.4582 31.4559 49.1832 34.1159 46.3332 34.1159C43.8732 34.1159 41.9132 32.8492 40.3099 31.5642L39.7249 31.0826L38.9049 30.3909L38.1649 29.7775C36.4665 28.4025 34.9582 27.4492 32.9999 27.4492C31.0415 27.4492 29.5332 28.4025 27.8349 29.7775L27.0949 30.3909L26.2749 31.0826L25.6915 31.5642C24.0849 32.8492 22.1249 34.1159 19.6665 34.1159C16.8149 34.1159 15.5399 31.4559 15.2749 28.9809C15.0115 26.5142 15.4249 23.3809 16.1749 20.3792C16.9299 17.3542 18.0715 14.2926 19.3832 11.9476C20.0365 10.7809 20.7715 9.72089 21.5732 8.93089C22.3432 8.17255 23.3949 7.44922 24.6665 7.44922C25.5249 7.44922 26.3632 7.65422 27.1882 7.89922L28.1749 8.20089C28.3399 8.25089 28.5032 8.30089 28.6665 8.34589C30.1082 8.75922 31.5832 9.11589 32.9999 9.11589C34.4165 9.11589 35.8916 8.75922 37.3332 8.34589L38.8082 7.90089C39.6382 7.65589 40.4832 7.44922 41.3332 7.44922ZM41.3332 10.7826C40.6949 10.7826 40.0282 10.9759 39.3815 11.1876L38.6182 11.4392C38.496 11.4789 38.3733 11.5167 38.2499 11.5526C36.7749 11.9726 34.9165 12.4492 32.9999 12.4492C31.0832 12.4492 29.2249 11.9726 27.7499 11.5526L27.3832 11.4392L26.6182 11.1876C25.9715 10.9742 25.3049 10.7826 24.6665 10.7826C23.9699 10.9126 23.3449 11.7576 22.8732 12.5409L22.6099 12.9992L22.2932 13.5759C21.1565 15.6059 20.1099 18.3759 19.4099 21.1876C18.7515 23.8142 18.4315 26.3309 18.5532 28.2042L18.5965 28.6926L18.6299 28.9859L18.6799 29.3326C18.7949 30.0009 19.0432 30.7826 19.6665 30.7826C21.0199 30.7826 22.1499 30.1092 23.5549 28.9926L24.2265 28.4459L25.4932 27.3859L26.0665 26.9192C27.8399 25.5142 30.0582 24.1159 32.9999 24.1159C35.9415 24.1159 38.1599 25.5159 39.9332 26.9192L40.5082 27.3859L41.7749 28.4459L42.4449 28.9926C43.8499 30.1092 44.9782 30.7826 46.3332 30.7826C46.8999 30.7826 47.1565 30.1376 47.2849 29.5175L47.3482 29.1542L47.4099 28.6259C47.6149 26.7159 47.2982 24.0176 46.5916 21.1876C45.9482 18.6109 45.0149 16.0676 43.9882 14.0976L43.3899 12.9976L43.1265 12.5426C42.6549 11.7576 42.0299 10.9126 41.3332 10.7826ZM27.1665 14.1159C28.2716 14.1159 29.3314 14.5549 30.1128 15.3363C30.8942 16.1177 31.3332 17.1775 31.3332 18.2826C31.3332 19.3876 30.8942 20.4474 30.1128 21.2288C29.3314 22.0102 28.2716 22.4492 27.1665 22.4492C26.0615 22.4492 25.0017 22.0102 24.2203 21.2288C23.4389 20.4474 22.9999 19.3876 22.9999 18.2826C22.9999 17.1775 23.4389 16.1177 24.2203 15.3363C25.0017 14.5549 26.0615 14.1159 27.1665 14.1159ZM38.8332 14.1159C39.2414 14.1159 39.6354 14.2658 39.9405 14.5371C40.2456 14.8083 40.4405 15.1821 40.4882 15.5876L40.4999 15.7826V16.6159H41.3332C41.758 16.6164 42.1666 16.779 42.4755 17.0706C42.7844 17.3622 42.9703 17.7608 42.9952 18.1849C43.0201 18.6089 42.8821 19.0265 42.6094 19.3523C42.3368 19.678 41.95 19.8874 41.5282 19.9376L41.3332 19.9492H40.4999V20.7826C40.4994 21.2074 40.3368 21.6159 40.0451 21.9248C39.7535 22.2337 39.355 22.4196 38.9309 22.4445C38.5068 22.4694 38.0893 22.3314 37.7635 22.0588C37.4377 21.7861 37.2284 21.3994 37.1782 20.9776L37.1665 20.7826V19.9492H36.3332C35.9084 19.9487 35.4998 19.7861 35.1909 19.4945C34.882 19.2029 34.6962 18.8043 34.6713 18.3802C34.6464 17.9562 34.7843 17.5386 35.057 17.2128C35.3296 16.8871 35.7164 16.6777 36.1382 16.6276L36.3332 16.6159H37.1665V15.7826C37.1665 15.3405 37.3421 14.9166 37.6547 14.604C37.9673 14.2915 38.3912 14.1159 38.8332 14.1159ZM27.1665 17.4492C26.9455 17.4492 26.7336 17.537 26.5773 17.6933C26.421 17.8496 26.3332 18.0615 26.3332 18.2826C26.3332 18.5036 26.421 18.7155 26.5773 18.8718C26.7336 19.0281 26.9455 19.1159 27.1665 19.1159C27.3876 19.1159 27.5995 19.0281 27.7558 18.8718C27.9121 18.7155 27.9999 18.5036 27.9999 18.2826C27.9999 18.0615 27.9121 17.8496 27.7558 17.6933C27.5995 17.537 27.3876 17.4492 27.1665 17.4492Z" fill="#277DFF"/>
</g>
<defs>
<filter id="filter0_dddd_40003237_163179" x="-2" y="-2.21875" width="70" height="96" filterUnits="userSpaceOnUse" color-interpolation-filters="sRGB">
<feFlood flood-opacity="0" result="BackgroundImageFix"/>
<feColorMatrix in="SourceAlpha" type="matrix" values="0 0 0 0 0 0 0 0 0 0 0 0 0 0 0 0 0 0 127 0" result="hardAlpha"/>
<feOffset dy="2"/>
<feGaussianBlur stdDeviation="2.5"/>
<feColorMatrix type="matrix" values="0 0 0 0 0.0784314 0 0 0 0 0.478431 0 0 0 0 1 0 0 0 0.15 0"/>
<feBlend mode="normal" in2="BackgroundImageFix" result="effect1_dropShadow_40003237_163179"/>
<feColorMatrix in="SourceAlpha" type="matrix" values="0 0 0 0 0 0 0 0 0 0 0 0 0 0 0 0 0 0 127 0" result="hardAlpha"/>
<feOffset dy="10"/>
<feGaussianBlur stdDeviation="5"/>
<feColorMatrix type="matrix" values="0 0 0 0 0.0784314 0 0 0 0 0.478431 0 0 0 0 1 0 0 0 0.13 0"/>
<feBlend mode="normal" in2="effect1_dropShadow_40003237_163179" result="effect2_dropShadow_40003237_163179"/>
<feColorMatrix in="SourceAlpha" type="matrix" values="0 0 0 0 0 0 0 0 0 0 0 0 0 0 0 0 0 0 127 0" result="hardAlpha"/>
<feOffset dy="21"/>
<feGaussianBlur stdDeviation="6.5"/>
<feColorMatrix type="matrix" values="0 0 0 0 0.0784314 0 0 0 0 0.478431 0 0 0 0 1 0 0 0 0.08 0"/>
<feBlend mode="normal" in2="effect2_dropShadow_40003237_163179" result="effect3_dropShadow_40003237_163179"/>
<feColorMatrix in="SourceAlpha" type="matrix" values="0 0 0 0 0 0 0 0 0 0 0 0 0 0 0 0 0 0 127 0" result="hardAlpha"/>
<feOffset dy="38"/>
<feGaussianBlur stdDeviation="7.5"/>
<feColorMatrix type="matrix" values="0 0 0 0 0.0784314 0 0 0 0 0.478431 0 0 0 0 1 0 0 0 0.02 0"/>
<feBlend mode="normal" in2="effect3_dropShadow_40003237_163179" result="effect4_dropShadow_40003237_163179"/>
<feBlend mode="normal" in="SourceGraphic" in2="effect4_dropShadow_40003237_163179" result="shape"/>
</filter>
</defs>
</svg>
