<svg xmlns="http://www.w3.org/2000/svg" width="140" height="41" fill="none" viewBox="0 0 140 41"><rect width="140" height="40" y=".59" fill="#000" rx="6"/><path fill="#fff" d="M70.16 22.34a4.2 4.2 0 0 0-4.26 4.25 4.2 4.2 0 0 0 4.26 4.25 4.2 4.2 0 0 0 4.27-4.25 4.2 4.2 0 0 0-4.27-4.25Zm0 6.83c-1.28 0-2.4-1.06-2.4-2.58 0-1.53 1.12-2.58 2.4-2.58 1.3 0 2.4 1.05 2.4 2.58 0 1.51-1.1 2.58-2.4 2.58Zm-9.31-6.83a4.2 4.2 0 0 0-4.27 4.25 4.2 4.2 0 0 0 4.27 4.25 4.2 4.2 0 0 0 4.27-4.25 4.2 4.2 0 0 0-4.27-4.25Zm0 6.83c-1.29 0-2.4-1.06-2.4-2.58 0-1.53 1.11-2.58 2.4-2.58 1.29 0 2.4 1.05 2.4 2.58 0 1.51-1.11 2.58-2.4 2.58Zm-11.08-5.53v1.8h4.32a3.76 3.76 0 0 1-.98 2.28 4.42 4.42 0 0 1-3.34 1.32 4.74 4.74 0 0 1-4.73-4.8 4.74 4.74 0 0 1 7.99-3.51l1.27-1.28a6.3 6.3 0 0 0-4.53-1.82 6.7 6.7 0 0 0-6.7 6.6 6.7 6.7 0 0 0 6.7 6.61 6 6 0 0 0 4.6-1.85 5.96 5.96 0 0 0 1.57-4.22c0-.42-.03-.8-.1-1.13h-6.07Zm45.31 1.4c-.35-.95-1.43-2.7-3.64-2.7-2.2 0-4.01 1.72-4.01 4.25 0 2.38 1.8 4.25 4.22 4.25a4.21 4.21 0 0 0 3.54-1.88l-1.45-.97a2.43 2.43 0 0 1-2.1 1.18c-.94 0-1.62-.44-2.05-1.3l5.68-2.34-.19-.49Zm-5.8 1.42a2.33 2.33 0 0 1 2.22-2.48c.75 0 1.37.37 1.58.9l-3.8 1.58Zm-4.62 4.13h1.87v-12.5h-1.87v12.5Zm-3.06-7.3h-.07a2.95 2.95 0 0 0-2.24-.95 4.23 4.23 0 0 0-4.07 4.27 4.21 4.21 0 0 0 4.07 4.23 2.9 2.9 0 0 0 2.24-.96h.07v.61c0 1.63-.87 2.5-2.28 2.5a2.35 2.35 0 0 1-2.14-1.52l-1.63.68a4.05 4.05 0 0 0 3.77 2.51c2.2 0 4.05-1.29 4.05-4.43V22.6H81.6v.69Zm-2.15 5.88c-1.29 0-2.36-1.08-2.36-2.56 0-1.5 1.07-2.6 2.36-2.6 1.28 0 2.27 1.1 2.27 2.6 0 1.48-1 2.56-2.27 2.56Zm24.38-11.09h-4.47v12.5h1.87v-4.73h2.6c2.07 0 4.1-1.5 4.1-3.88 0-2.39-2.03-3.89-4.1-3.89Zm.05 6.03h-2.65v-4.29h2.65c1.4 0 2.19 1.16 2.19 2.15 0 .97-.8 2.14-2.19 2.14Zm11.53-1.8c-1.35 0-2.75.6-3.33 1.92l1.66.69c.36-.7 1.02-.92 1.7-.92.97 0 1.95.58 1.97 1.61v.13a4.13 4.13 0 0 0-1.95-.48c-1.78 0-3.6.98-3.6 2.81 0 1.67 1.46 2.75 3.1 2.75 1.26 0 1.95-.56 2.38-1.22h.07v.96h1.8v-4.79c0-2.22-1.66-3.46-3.8-3.46Zm-.22 6.86c-.61 0-1.47-.31-1.47-1.07 0-.96 1.07-1.33 1.98-1.33.82 0 1.21.18 1.7.42a2.26 2.26 0 0 1-2.21 1.98Zm10.58-6.58L123.63 28h-.06l-2.22-5.42h-2.01l3.33 7.57-1.9 4.22h1.95l5.13-11.8h-2.08Zm-16.8 8h1.86v-12.5h-1.86v12.5ZM49.44 10.83c0 .84-.24 1.5-.74 2-.57.6-1.3.89-2.2.89-.87 0-1.6-.3-2.21-.9a3 3 0 0 1-.91-2.23c0-.9.3-1.64.9-2.24.61-.6 1.35-.9 2.21-.9.43 0 .85.09 1.24.25.39.17.7.4.93.67l-.52.53c-.4-.47-.95-.7-1.65-.7a2.3 2.3 0 0 0-2.33 2.4c0 .7.23 1.27.7 1.72.46.44 1 .66 1.63.66.67 0 1.23-.22 1.68-.67.29-.29.46-.7.5-1.21H46.5v-.72h2.91c.03.15.04.3.04.45Zm4.61-2.51h-2.73v1.9h2.47v.73h-2.47v1.9h2.73v.74h-3.5v-6h3.5v.73Zm3.25 5.27h-.77V8.32h-1.67V7.6h4.12v.73H57.3v5.27Zm4.66 0v-6h.77v6h-.77Zm4.19 0h-.77V8.32h-1.67V7.6h4.12v.73h-1.68v5.27Zm9.48-.78c-.59.6-1.32.91-2.2.91a3.07 3.07 0 0 1-3.08-3.13 3.07 3.07 0 0 1 3.08-3.14c.88 0 1.6.3 2.2.92a3 3 0 0 1 .89 2.22c0 .87-.3 1.62-.89 2.22Zm-3.83-.5c.45.45 1 .67 1.63.67a2.2 2.2 0 0 0 1.63-.67c.45-.45.67-1.03.67-1.72 0-.7-.22-1.28-.67-1.73a2.2 2.2 0 0 0-1.63-.67 2.2 2.2 0 0 0-1.63.67 2.35 2.35 0 0 0-.66 1.73c0 .7.22 1.27.66 1.72Zm5.8 1.28v-6h.94l2.91 4.66h.04l-.04-1.15V7.59h.78v6h-.81l-3.05-4.9h-.03l.03 1.16v3.74h-.77Z"/><path fill="#fff" fill-rule="evenodd" d="M73.43 7.55a2.97 2.97 0 0 0-2.98 3.04 2.97 2.97 0 0 0 2.98 3.03 2.97 2.97 0 0 0 2.98-3.03 2.97 2.97 0 0 0-2.98-3.04Zm-2.27.74a3.07 3.07 0 0 1 2.27-.94c.9 0 1.66.32 2.27.95.61.62.92 1.39.92 2.29a3.17 3.17 0 0 1-3.19 3.23 3.17 3.17 0 0 1-3.18-3.23c0-.9.3-1.67.91-2.3ZM46.5 7.55c-.84 0-1.55.3-2.13.88a2.9 2.9 0 0 0-.88 2.16c0 .86.3 1.58.88 2.16.58.58 1.3.87 2.13.87a2.8 2.8 0 0 0 2.14-.86 2.6 2.6 0 0 0 .71-1.93c0-.11 0-.23-.02-.35H46.6V11h2.2l-.02.1c-.04.54-.22.97-.53 1.28-.47.47-1.05.7-1.75.7-.65 0-1.23-.23-1.7-.7a2.4 2.4 0 0 1-.73-1.8 2.41 2.41 0 0 1 2.43-2.49c.69 0 1.24.22 1.65.67l.39-.39a2.6 2.6 0 0 0-.84-.57 3 3 0 0 0-1.2-.25Zm-2.27.73a3.12 3.12 0 0 1 2.27-.93c.45 0 .87.09 1.27.26.4.18.73.4.98.7l.06.07-.67.67-.07-.08c-.38-.45-.9-.68-1.57-.68-.6 0-1.12.21-1.57.64a2.2 2.2 0 0 0-.66 1.66c0 .68.22 1.23.66 1.65.45.43.97.64 1.57.64.65 0 1.18-.21 1.6-.64.26-.25.41-.6.47-1.04H46.4v-.92h3.1v.08a2.8 2.8 0 0 1-.73 2.54 3 3 0 0 1-2.27.92c-.89 0-1.65-.3-2.27-.93a3.12 3.12 0 0 1-.94-2.3c0-.92.31-1.69.94-2.3Zm6.23-.8h3.7v.94h-2.73v1.7h2.47v.93h-2.47v1.7h2.73v.94h-3.7v-6.2Zm.2.2v5.8h3.3v-.53h-2.73v-2.1h2.47v-.52h-2.47v-2.1h2.73v-.54h-3.3Zm4.1-.2h4.33v.94H57.4v5.27h-.97V8.42h-1.67V7.5Zm.2.2v.54h1.68v5.27h.57V8.22h1.68V7.7h-3.92Zm6.91-.2h.97v6.2h-.97v-6.2Zm.2.2v5.8h.57v-5.8h-.57Zm1.55-.2h4.32v.94h-1.68v5.27h-.97V8.42h-1.67V7.5Zm.2.2v.54h1.67v5.27h.57V8.22h1.68V7.7H63.8Zm13.69-.2h1.1l2.78 4.46-.03-.84V7.49h.98v6.2h-.97L78.45 9l.02.85v3.84h-.97v-6.2Zm.2.2v5.8h.57V9.86l-.04-1.26h.2l3.05 4.9h.65V7.7h-.58v3.4l.04 1.26h-.2L78.5 7.7h-.79ZM71.73 8.8a2.3 2.3 0 0 1 1.7-.7c.67 0 1.24.23 1.7.7.47.48.7 1.08.7 1.8s-.23 1.32-.7 1.79a2.3 2.3 0 0 1-1.7.7 2.3 2.3 0 0 1-1.7-.7 2.45 2.45 0 0 1-.7-1.8c0-.71.24-1.32.7-1.79Zm.15.14c-.43.43-.64.98-.64 1.66 0 .67.21 1.22.64 1.65.42.43.94.64 1.55.64a2.1 2.1 0 0 0 1.56-.64c.43-.43.64-.98.64-1.65 0-.68-.21-1.23-.64-1.66a2.1 2.1 0 0 0-1.56-.64 2.1 2.1 0 0 0-1.55.64Z" clip-rule="evenodd"/><g filter="url(#a)"><path fill="url(#b)" d="M12.46 8.12a2 2 0 0 0-.46 1.4v22.12a2 2 0 0 0 .46 1.41l.08.07 12.39-12.39v-.29L12.53 8.05l-.07.07Z"/><path fill="url(#c)" d="m29.05 24.87-4.12-4.14v-.29l4.13-4.13.09.06 4.9 2.78c1.39.79 1.39 2.09 0 2.88l-4.9 2.78-.1.06Z"/><g filter="url(#d)"><path fill="url(#e)" d="m29.15 24.81-4.22-4.22-12.47 12.46c.46.49 1.23.55 2.08.06l14.61-8.3Z"/></g><path fill="url(#f)" d="m29.15 16.36-14.6-8.3c-.86-.48-1.63-.42-2.09.06L24.93 20.6l4.22-4.23Z"/></g><defs><linearGradient id="b" x1="23.83" x2="7.05" y1="9.29" y2="26.08" gradientUnits="userSpaceOnUse"><stop stop-color="#00A0FF"/><stop offset=".01" stop-color="#00A1FF"/><stop offset=".26" stop-color="#00BEFF"/><stop offset=".51" stop-color="#00D2FF"/><stop offset=".76" stop-color="#00DFFF"/><stop offset="1" stop-color="#00E3FF"/></linearGradient><linearGradient id="c" x1="35.86" x2="11.66" y1="20.59" y2="20.59" gradientUnits="userSpaceOnUse"><stop stop-color="#FFE000"/><stop offset=".41" stop-color="#FFBD00"/><stop offset=".78" stop-color="orange"/><stop offset="1" stop-color="#FF9C00"/></linearGradient><linearGradient id="e" x1="26.86" x2="4.1" y1="22.88" y2="45.64" gradientUnits="userSpaceOnUse"><stop stop-color="#FF3A44"/><stop offset="1" stop-color="#C31162"/></linearGradient><linearGradient id="f" x1="9.33" x2="19.49" y1=".76" y2="10.92" gradientUnits="userSpaceOnUse"><stop stop-color="#32A071"/><stop offset=".07" stop-color="#2DA771"/><stop offset=".48" stop-color="#15CF74"/><stop offset=".8" stop-color="#06E775"/><stop offset="1" stop-color="#00F076"/></linearGradient><filter id="a" width="23.09" height="25.72" x="12" y="7.73" color-interpolation-filters="sRGB" filterUnits="userSpaceOnUse"><feFlood flood-opacity="0" result="BackgroundImageFix"/><feBlend in="SourceGraphic" in2="BackgroundImageFix" result="shape"/><feColorMatrix in="SourceAlpha" result="hardAlpha" values="0 0 0 0 0 0 0 0 0 0 0 0 0 0 0 0 0 0 127 0"/><feOffset dy="-.15"/><feComposite in2="hardAlpha" k2="-1" k3="1" operator="arithmetic"/><feColorMatrix values="0 0 0 0 0 0 0 0 0 0 0 0 0 0 0 0 0 0 0.12 0"/><feBlend in2="shape" result="effect1_innerShadow_40003863_47730"/><feColorMatrix in="SourceAlpha" result="hardAlpha" values="0 0 0 0 0 0 0 0 0 0 0 0 0 0 0 0 0 0 127 0"/><feOffset dy=".15"/><feComposite in2="hardAlpha" k2="-1" k3="1" operator="arithmetic"/><feColorMatrix values="0 0 0 0 1 0 0 0 0 1 0 0 0 0 1 0 0 0 0.25 0"/><feBlend in2="effect1_innerShadow_40003863_47730" result="effect2_innerShadow_40003863_47730"/></filter><filter id="d" width="16.69" height="12.86" x="12.46" y="20.59" color-interpolation-filters="sRGB" filterUnits="userSpaceOnUse"><feFlood flood-opacity="0" result="BackgroundImageFix"/><feBlend in="SourceGraphic" in2="BackgroundImageFix" result="shape"/><feColorMatrix in="SourceAlpha" result="hardAlpha" values="0 0 0 0 0 0 0 0 0 0 0 0 0 0 0 0 0 0 127 0"/><feOffset dy="-.15"/><feComposite in2="hardAlpha" k2="-1" k3="1" operator="arithmetic"/><feColorMatrix values="0 0 0 0 0 0 0 0 0 0 0 0 0 0 0 0 0 0 0.08 0"/><feBlend in2="shape" result="effect1_innerShadow_40003863_47730"/></filter></defs></svg>