<svg xmlns="http://www.w3.org/2000/svg" width="76" height="76" viewBox="0 0 76 76"><g filter="url(#a)"><rect width="56" height="56" x="10" fill="#FF5E01" rx="28" shape-rendering="crispEdges"/><path fill="#fff" fill-rule="evenodd" d="M45.4 33.47a1.33 1.33 0 0 1 1.71.46l.08.14 2.67 5.33a1.33 1.33 0 0 1-1.02 1.92l-.17.01H27.33a1.33 1.33 0 0 1-1.26-1.77l.07-.16 2.67-5.33a1.33 1.33 0 0 1 2.44 1.05l-.06.14-1.7 3.4h17.02l-1.7-3.4a1.33 1.33 0 0 1 .6-1.79ZM38 14.67A9.33 9.33 0 0 1 47.33 24c0 3.17-1.72 5.75-3.5 7.58-.98 1-2.06 1.9-3.22 2.68l-.5.33-.44.28-.2.12-.34.2c-.7.4-1.56.4-2.26 0l-.34-.2-.42-.26-.22-.14-.5-.33a20.96 20.96 0 0 1-3.23-2.68c-1.77-1.83-3.5-4.4-3.5-7.58A9.33 9.33 0 0 1 38 14.66Zm0 6.66a2.67 2.67 0 1 0 0 5.33 2.67 2.67 0 0 0 0-5.33Z" clip-rule="evenodd"/></g><defs><filter id="a" width="96" height="96" x="-10" y="-20" color-interpolation-filters="sRGB" filterUnits="userSpaceOnUse"><feFlood flood-opacity="0" result="BackgroundImageFix"/><feColorMatrix in="SourceAlpha" result="hardAlpha" values="0 0 0 0 0 0 0 0 0 0 0 0 0 0 0 0 0 0 127 0"/><feOffset dy="10"/><feGaussianBlur stdDeviation="5"/><feComposite in2="hardAlpha" operator="out"/><feColorMatrix values="0 0 0 0 0 0 0 0 0 0 0 0 0 0 0 0 0 0 0.1 0"/><feBlend in2="BackgroundImageFix" result="effect1_dropShadow_40003816_187740"/><feColorMatrix in="SourceAlpha" result="hardAlpha" values="0 0 0 0 0 0 0 0 0 0 0 0 0 0 0 0 0 0 127 0"/><feOffset dy="4"/><feGaussianBlur stdDeviation="2"/><feComposite in2="hardAlpha" operator="out"/><feColorMatrix values="0 0 0 0 0 0 0 0 0 0 0 0 0 0 0 0 0 0 0.05 0"/><feBlend in2="effect1_dropShadow_40003816_187740" result="effect2_dropShadow_40003816_187740"/><feColorMatrix in="SourceAlpha" result="hardAlpha" values="0 0 0 0 0 0 0 0 0 0 0 0 0 0 0 0 0 0 127 0"/><feOffset dy="1"/><feComposite in2="hardAlpha" operator="out"/><feColorMatrix values="0 0 0 0 0 0 0 0 0 0 0 0 0 0 0 0 0 0 0.05 0"/><feBlend in2="effect2_dropShadow_40003816_187740" result="effect3_dropShadow_40003816_187740"/><feBlend in="SourceGraphic" in2="effect3_dropShadow_40003816_187740" result="shape"/></filter></defs></svg>