<svg xmlns="http://www.w3.org/2000/svg" width="32" height="32" viewBox="0 0 32 32"><path fill="#277DFF" fill-rule="evenodd" d="M23.4 21.48a1.33 1.33 0 0 1 1.71.46l.08.13 2.67 5.34a1.33 1.33 0 0 1-1.02 1.91l-.17.01H5.33a1.33 1.33 0 0 1-1.26-1.77l.07-.16 2.67-5.33a1.33 1.33 0 0 1 2.44 1.05l-.06.14-1.7 3.4h17.02l-1.7-3.4a1.33 1.33 0 0 1 .6-1.78ZM16 2.67A9.33 9.33 0 0 1 25.33 12c0 3.18-1.72 5.76-3.5 7.59-.98 1-2.06 1.9-3.22 2.68l-.5.32-.44.28-.2.12-.34.2c-.7.4-1.56.4-2.26 0l-.34-.2-.42-.25-.22-.15-.5-.32a20.96 20.96 0 0 1-3.23-2.68c-1.77-1.83-3.5-4.41-3.5-7.59A9.33 9.33 0 0 1 16 2.67Zm0 6.66a2.67 2.67 0 1 0 0 5.34 2.67 2.67 0 0 0 0-5.34Z" clip-rule="evenodd"/></svg>