<svg xmlns="http://www.w3.org/2000/svg" width="78" height="113" fill="none" viewBox="0 0 78 113"><g filter="url(#filter0_dddd_40002737_156243)"><path fill="#277DFF" fill-rule="evenodd" d="M53.8 43.59a2.67 2.67 0 0 1 3.43.92l.15.27 5.34 10.67a2.67 2.67 0 0 1-2.04 3.83l-.35.03H17.67a2.67 2.67 0 0 1-2.52-3.55l.13-.32 5.33-10.66a2.67 2.67 0 0 1 4.9 2.1l-.13.28-3.4 6.81h34.04l-3.4-6.8a2.67 2.67 0 0 1 1.19-3.58ZM39 5.97a18.67 18.67 0 0 1 18.67 18.67c0 6.35-3.44 11.51-7 15.17-1.96 2-4.12 3.8-6.45 5.36l-1 .65-.88.56-.4.24-.68.4c-1.4.8-3.11.8-4.52 0l-.69-.4-.82-.5-.46-.3-1-.65a41.92 41.92 0 0 1-6.44-5.36c-3.56-3.66-7-8.82-7-15.17A18.67 18.67 0 0 1 39 5.97Zm0 5.34a13.33 13.33 0 0 0-13.33 13.33c0 4.36 2.37 8.25 5.48 11.46a37.1 37.1 0 0 0 6.17 5.02l.9.58.78.46.77-.46.9-.58a37.1 37.1 0 0 0 6.18-5.02c3.11-3.2 5.48-7.1 5.48-11.46A13.33 13.33 0 0 0 39 11.3Zm0 5.33a8 8 0 1 1 0 16 8 8 0 0 1 0-16Zm0 5.33a2.67 2.67 0 1 0 0 5.34 2.67 2.67 0 0 0 0-5.34Z" clip-rule="evenodd"/></g><defs><filter id="filter0_dddd_40002737_156243" width="94" height="120" x="-8" y="-2.36" color-interpolation-filters="sRGB" filterUnits="userSpaceOnUse"><feFlood flood-opacity="0" result="BackgroundImageFix"/><feColorMatrix in="SourceAlpha" result="hardAlpha" values="0 0 0 0 0 0 0 0 0 0 0 0 0 0 0 0 0 0 127 0"/><feOffset dy="2"/><feGaussianBlur stdDeviation="2.5"/><feColorMatrix values="0 0 0 0 0.0784314 0 0 0 0 0.478431 0 0 0 0 1 0 0 0 0.15 0"/><feBlend in2="BackgroundImageFix" result="effect1_dropShadow_40002737_156243"/><feColorMatrix in="SourceAlpha" result="hardAlpha" values="0 0 0 0 0 0 0 0 0 0 0 0 0 0 0 0 0 0 127 0"/><feOffset dy="10"/><feGaussianBlur stdDeviation="5"/><feColorMatrix values="0 0 0 0 0.0784314 0 0 0 0 0.478431 0 0 0 0 1 0 0 0 0.13 0"/><feBlend in2="effect1_dropShadow_40002737_156243" result="effect2_dropShadow_40002737_156243"/><feColorMatrix in="SourceAlpha" result="hardAlpha" values="0 0 0 0 0 0 0 0 0 0 0 0 0 0 0 0 0 0 127 0"/><feOffset dy="21"/><feGaussianBlur stdDeviation="6.5"/><feColorMatrix values="0 0 0 0 0.0784314 0 0 0 0 0.478431 0 0 0 0 1 0 0 0 0.08 0"/><feBlend in2="effect2_dropShadow_40002737_156243" result="effect3_dropShadow_40002737_156243"/><feColorMatrix in="SourceAlpha" result="hardAlpha" values="0 0 0 0 0 0 0 0 0 0 0 0 0 0 0 0 0 0 127 0"/><feOffset dy="38"/><feGaussianBlur stdDeviation="7.5"/><feColorMatrix values="0 0 0 0 0.0784314 0 0 0 0 0.478431 0 0 0 0 1 0 0 0 0.02 0"/><feBlend in2="effect3_dropShadow_40002737_156243" result="effect4_dropShadow_40002737_156243"/><feBlend in="SourceGraphic" in2="effect4_dropShadow_40002737_156243" result="shape"/></filter></defs></svg>