<svg width="66" height="98" viewBox="0 0 66 98" fill="none" xmlns="http://www.w3.org/2000/svg">
<g filter="url(#filter0_dddd_40003237_163216)">
<path fill-rule="evenodd" clip-rule="evenodd" d="M31.596 5.17247C32.5012 4.83314 33.4988 4.83314 34.404 5.17247L48.404 10.4225C49.1666 10.7083 49.8238 11.2202 50.2877 11.8896C50.7516 12.559 51.0001 13.354 51 14.1685V24.8945C51.0001 28.2373 50.0693 31.5142 48.3119 34.3578C46.5545 37.2014 44.0399 39.4995 41.05 40.9945L34.342 44.3485C33.9253 44.5569 33.4659 44.6654 33 44.6654C32.5341 44.6654 32.0747 44.5569 31.658 44.3485L24.95 40.9945C21.9601 39.4995 19.4455 37.2014 17.6881 34.3578C15.9307 31.5142 14.9999 28.2373 15 24.8945V14.1685C14.9999 13.354 15.2484 12.559 15.7123 11.8896C16.1762 11.2202 16.8334 10.7083 17.596 10.4225L31.596 5.17247ZM33 8.91847L19 14.1685V24.8945C19.0005 27.4942 19.7248 30.0425 21.0918 32.2537C22.4589 34.465 24.4146 36.252 26.74 37.4145L33 40.5485L39.26 37.4185C41.586 36.2557 43.5421 34.4681 44.9092 32.2561C46.2763 30.044 47.0003 27.4949 47 24.8945V14.1685L33 8.91847Z" fill="#32BF00"/>
</g>
<defs>
<filter id="filter0_dddd_40003237_163216" x="-6" y="-2.21875" width="78" height="104" filterUnits="userSpaceOnUse" color-interpolation-filters="sRGB">
<feFlood flood-opacity="0" result="BackgroundImageFix"/>
<feColorMatrix in="SourceAlpha" type="matrix" values="0 0 0 0 0 0 0 0 0 0 0 0 0 0 0 0 0 0 127 0" result="hardAlpha"/>
<feOffset dy="2"/>
<feGaussianBlur stdDeviation="2.5"/>
<feColorMatrix type="matrix" values="0 0 0 0 0.196078 0 0 0 0 0.74902 0 0 0 0 0 0 0 0 0.15 0"/>
<feBlend mode="normal" in2="BackgroundImageFix" result="effect1_dropShadow_40003237_163216"/>
<feColorMatrix in="SourceAlpha" type="matrix" values="0 0 0 0 0 0 0 0 0 0 0 0 0 0 0 0 0 0 127 0" result="hardAlpha"/>
<feOffset dy="10"/>
<feGaussianBlur stdDeviation="5"/>
<feColorMatrix type="matrix" values="0 0 0 0 0.196078 0 0 0 0 0.74902 0 0 0 0 0 0 0 0 0.13 0"/>
<feBlend mode="normal" in2="effect1_dropShadow_40003237_163216" result="effect2_dropShadow_40003237_163216"/>
<feColorMatrix in="SourceAlpha" type="matrix" values="0 0 0 0 0 0 0 0 0 0 0 0 0 0 0 0 0 0 127 0" result="hardAlpha"/>
<feOffset dy="21"/>
<feGaussianBlur stdDeviation="6.5"/>
<feColorMatrix type="matrix" values="0 0 0 0 0.196078 0 0 0 0 0.74902 0 0 0 0 0 0 0 0 0.08 0"/>
<feBlend mode="normal" in2="effect2_dropShadow_40003237_163216" result="effect3_dropShadow_40003237_163216"/>
<feColorMatrix in="SourceAlpha" type="matrix" values="0 0 0 0 0 0 0 0 0 0 0 0 0 0 0 0 0 0 127 0" result="hardAlpha"/>
<feOffset dy="38"/>
<feGaussianBlur stdDeviation="7.5"/>
<feColorMatrix type="matrix" values="0 0 0 0 0.196078 0 0 0 0 0.74902 0 0 0 0 0 0 0 0 0.02 0"/>
<feBlend mode="normal" in2="effect3_dropShadow_40003237_163216" result="effect4_dropShadow_40003237_163216"/>
<feBlend mode="normal" in="SourceGraphic" in2="effect4_dropShadow_40003237_163216" result="shape"/>
</filter>
</defs>
</svg>
