<svg xmlns="http://www.w3.org/2000/svg" width="205" height="40" viewBox="0 0 205 40"><path d="m189.5 14.4-.1-.1c-.1 0-.1-.1-.2-.1h-2.6c-.1 0-.2.1-.3.1-.1.1-.1.2-.1.3v7.3c0 1.5-3.5 1.5-3.5 0l.1-7.2q0-.1-.1-.2c0-.1-.1-.1-.1-.1l-.1-.1c-.1 0-.1-.1-.2-.1h-2.6c-.1 0-.2.1-.3.1-.1.1-.1.2-.1.3v7.7c0 4.8 10.6 4.8 10.6 0v-7.6q0-.1-.1-.2c-.2 0-.3-.1-.3-.1Zm10 .4c-.1-.1-.1-.2-.2-.3-.1-.1-.2-.1-.4-.1h-4.6c-.1 0-.2 0-.3.2-.1.1-.2.2-.2.3l-3.2 10.5v.2q0 .1.1.2c0 .1.1.1.1.1q.1.1.2.1h2.5c.1 0 .2-.1.4-.1.1-.1.2-.2.2-.3l.4-1.5h4.3l.4 1.5c.1.1.1.2.2.3.1.1.2.1.4.1h2.5q.1 0 .2-.1c.1 0 .1-.1.2-.1 0-.1.1-.1.1-.2v-.2l-3.3-10.6Zm-4.1 6.3 1.2-3.9 1.2 3.9h-2.4ZM65.7 14.4l-.1-.1c-.1 0-.1-.1-.2-.1h-2.6c-.1 0-.2.1-.3.1-.1.1-.1.2-.1.3v7.3c0 1.5-3.5 1.5-3.5 0l.1-7.2q0-.1-.1-.2c0-.1-.1-.1-.1-.1l-.1-.1c-.1 0-.1-.1-.2-.1h-2.6c-.1 0-.2.1-.3.1-.1.1-.1.2-.1.3v7.7c0 4.8 10.6 4.8 10.6 0v-7.6q0-.1-.1-.2c-.2 0-.2-.1-.3-.1Zm29.4 0q-.1-.1 0 0c-.2-.1-.2-.2-.3-.2h-2.6q-.1 0-.2.1c-.1 0-.1.1-.1.1l-.1.1c0 .1-.1.1-.1.2v10.6q0 .1.1.2c0 .1.1.1.1.1l.1.1c.1 0 .1.1.2.1h2.6q.1 0 .2-.1c.1 0 .1-.1.1-.1l.1-.1c0-.1.1-.1.1-.2V14.7q0-.1-.1-.2s0-.1-.1-.1Zm-22.3 4c-.6 0-1.6.1-1.6-.7-.1-1.3 4.1-.7 5-.3.1.1.2.1.2.1q.1 0 .2-.1t.1-.2.1-.2v-1.9c0-.1-.1-.2-.1-.4-.1-.1-.2-.2-.3-.2-1.7-.6-5-.6-6.7 0-1.3.4-2.2 1.6-2.2 3.4 0 3 2.5 3.7 5 3.7.6 0 1.5-.1 1.5.7 0 1.4-4.4.7-5.3.3q-.1-.1-.2-.1t-.2.1q-.1.1-.1.2-.1.1-.1.2v1.9c0 .1.1.2.1.4.1.1.2.2.3.2 1.7.6 5.3.6 7 0 1.3-.4 2.2-1.6 2.2-3.4.1-3-2.5-3.6-4.9-3.7Zm-23.8.1c-.6 0-1.5.1-1.6-.7-.1-1.3 4.1-.7 5-.3q.1.1.2.1c.1 0 .1-.1.2-.1q.1-.1.1-.2c.1-.2.1-.3.1-.3v-1.9c0-.1-.1-.2-.1-.4-.1-.1-.2-.2-.3-.2-1.7-.6-5-.6-6.7.1-1.3.4-2.2 1.6-2.2 3.4 0 3 2.5 3.7 5 3.7.6 0 1.5-.1 1.5.7 0 1.4-4.4.7-5.3.3q-.1-.1-.2-.1t-.2.1-.1.2-.1.2V25c0 .1.1.2.1.4.1.1.2.2.3.2 1.7.6 5.3.6 7 0 1.3-.4 2.2-1.6 2.2-3.4 0-3.1-2.4-3.7-4.9-3.7Zm40.3-4.2h-2.6c-.1 0-.2.1-.3.1-.1.1-.1.2-.1.3v3.9h-3.6v-3.9c0-.1-.1-.2-.1-.3-.1-.1-.2-.1-.3-.1h-2.6q-.1 0-.2.1c-.1 0-.1.1-.1.1l-.1.1c0 .1-.1.1-.1.2v10.7q0 .1.1.2c0 .1.1.1.1.1l.1.1c.1 0 .1.1.2.1h2.6c.1 0 .2-.1.3-.1.1-.1.1-.2.1-.3v-4h3.6v3.9c0 .1.1.2.1.3.1.1.2.1.3.1h2.6c.1 0 .2-.1.3-.1.1-.1.1-.2.1-.3V14.7c0-.1-.1-.2-.1-.3-.1 0-.2-.1-.3-.1Zm71.7.1-.1-.1c-.1 0-.1-.1-.2-.1h-7.4c-.3 0-.6.1-.8.3s-.3.5-.3.8v9.2c0 .3.1.6.3.8.2.2.5.3.8.3h7.4q.1 0 .2-.1c.1 0 .1-.1.1-.1l.1-.1c0-.1.1-.1.1-.2v-2q0-.1-.1-.2c0-.1-.1-.1-.1-.1l-.1-.1c-.1 0-.1-.1-.2-.1h-5v-1.5h4.3c.1 0 .2-.1.3-.1.1-.1.1-.2.1-.3v-2c0-.1-.1-.2-.1-.3-.1-.1-.2-.1-.3-.1h-4.3v-1.1h5q.1 0 .2-.1c.1 0 .1-.1.1-.1l.1-.1c0-.1.1-.1.1-.2v-2q0-.1-.1-.2c0-.1-.1-.1-.1-.1Zm-10.2 0-.1-.1c-.1 0-.1-.1-.2-.1h-9.3q-.1 0-.2.1t-.1.1l-.1.1c0 .1-.1.1-.1.2v2q0 .1.1.2c0 .1.1.1.1.1l.1.1q0 .1.1.1h2.9v8.2q0 .1.1.2c0 .1.1.1.1.1l.1.1c.1 0 .1.1.2.1h2.6q.1 0 .2-.1c.1 0 .1-.1.1-.1 0-.1.1-.1.1-.1 0-.1.1-.1.1-.2v-8.2h2.9q.1 0 .2-.1c.1 0 .1-.1.1-.1l.1-.1c0-.1.1-.1.1-.2v-2q0-.1-.1-.2 0-.1-.1-.1Zm-15.7 4.1c-.6 0-1.6.1-1.6-.7-.1-1.4 4.1-.7 5-.3q.1.1.2.1t.2-.1.1-.2.1-.2v-1.9c0-.1-.1-.2-.1-.4-.1-.1-.2-.2-.3-.2-1.7-.6-5-.6-6.7 0-1.3.4-2.2 1.6-2.2 3.4 0 3 2.5 3.7 5 3.7.6 0 1.5-.1 1.5.7 0 1.3-4.5.7-5.3.3-.1-.1-.2-.1-.2-.1s-.1 0-.2.1q-.1.1-.1.2c-.1.1-.1.2-.1.2V25c0 .1.1.2.1.4.1.1.2.2.3.2 1.7.6 5.3.6 7 0 1.3-.4 2.2-1.6 2.2-3.4.1-3.1-2.5-3.6-4.9-3.7Zm34.3-4.2h-5.6c-.1 0-.3 0-.4.1-.1.1-.2.1-.4.2-.1.1-.2.2-.2.4-.1.1-.1.3-.1.4v10c0 .1.1.2.1.3.1.1.2.1.3.1h2.6c.1 0 .1-.1.2-.1l.1-.1c.1 0 .1-.1.1-.1q.1-.1.1-.2V23h2.2l.9 2.5c.1.1.1.2.2.3.1.1.2.1.4.1h2.5q.1 0 .2-.1c.1 0 .1-.1.1-.1 0-.1.1-.1.1-.2.1-.1 0-.1 0-.2l-1.2-3c2.8-2.1 2.1-8-2.2-8Zm-.8 5.8h-2.4v-2.9h2.4c1.6 0 1.6 2.9 0 2.9Zm-54-5.6c-.1-.1-.2-.1-.4-.1h-3c-.1 0-.2 0-.3.1-.1.1-.2.1-.3.2l-2.2 4.7-2.3-4.7c-.1-.1-.1-.2-.2-.2-.1-.1-.2-.1-.3-.1h-2.9c-.1 0-.2.1-.4.1-.1.1-.2.2-.2.4L101 25.4v.2c0 .1.1.1.1.2l.1.1c.1 0 .1.1.2.1h2.6c.1 0 .2-.1.4-.1.1-.1.2-.2.2-.4l.6-5.5 1.9 4.1c.1.1.1.2.2.2.1.1.2.1.3.1h1.6c.1 0 .2 0 .3-.1.1-.1.2-.1.2-.2l1.9-4.1.6 5.5c0 .1.1.2.2.4.1.1.2.1.4.1h2.6q.1 0 .2-.1c.1 0 .1-.1.1-.1q.1-.1.1-.2v-.2l-1.2-10.6c.2 0 .1-.1 0-.3Zm11.4 0c-.1-.1-.2-.1-.4-.1H121c-.1 0-.2 0-.3.2-.1.1-.2.2-.2.3l-3.3 10.5v.2q0 .1.1.2c0 .1.1.1.1.1q.1.1.2.1h2.5c.1 0 .2-.1.4-.1.1-.1.2-.2.2-.3l.4-1.5h4.3l.4 1.5c.1.1.1.2.2.3.1.1.2.1.4.1h2.5q.1 0 .2-.1c.1 0 .1-.1.2-.1 0-.1.1-.1.1-.2v-.2l-3.2-10.5c0-.2-.1-.3-.2-.4Zm-3.9 6.6 1.2-3.9 1.2 3.9h-2.4ZM30.4 5A18.26 18.26 0 0 0 7.5 7.3 17.89 17.89 0 0 0 5.4 30c2 3 4.8 5.3 8.1 6.7 3.3 1.3 6.9 1.7 10.4 1s6.7-2.4 9.3-4.9c2.5-2.5 4.2-5.8 5-9.2.7-3.6.4-7.2-1-10.5-1.6-3.3-3.8-6.2-6.8-8.1Z"/><g fill="#fff"><path d="M30.8 15.3h.3c.7-.2 1.3-.6 1.8-1.1.1-.1.1-.2.1-.2v-.3c-.2-.7-.6-1.3-1.1-1.8 0-.1-.1-.1-.2-.1h-.3c-.7.2-1.3.6-1.8 1.1-.1 0-.1.1-.1.2v.3c.2.7.6 1.3 1.1 1.8 0 0 .1.1.2.1Zm-4-4.6h.3l.2-.1c.5-.4.9-1 1-1.8v-.3l-.1-.2c-.4-.5-1.1-.9-1.8-1h-.3l-.2.1c-.5.4-.9 1-1 1.8v.3l.1.2a4 4 0 0 0 1.8 1Zm-7.7-2.2c0 .1.1.1.2.1.6.2 1.3.2 2 0 .1 0 .2-.1.2-.1.1 0 .1-.1.1-.2.2-.6.2-1.3 0-2 0-.1-.1-.2-.1-.3s-.1-.1-.2-.1c-.6-.2-1.3-.2-2 0-.1 0-.2.1-.2.1s-.1 0-.1.2c-.2.7-.2 1.4 0 2.1 0 .1.1.1.1.2Zm-9.6 6.7h.3l.2-.1c.6-.4.9-1 1.1-1.8V13l-.1-.2c-.5-.5-1.1-.9-1.8-1.1H9l-.2.1c-.6.4-.9 1-1.1 1.8v.3l.1.2c.5.6 1 .9 1.7 1.1Zm4.1-4.6h.3c.7-.1 1.3-.5 1.8-1 .1 0 .1-.1.1-.2v-.3c-.1-.6-.5-1.3-1-1.8 0-.1-.2-.1-.2-.1h-.3c-.7.1-1.3.5-1.8 1-.1 0-.1.1-.1.2v.3c.1.6.5 1.3 1 1.8 0 .1.1.1.2.1Zm9.8 15.6h.1c.1 0 .1-.1.1-.1s.1 0 .1-.1c1.5-2.1 2.5-4.4 3.1-7q.1-.1 0-.2c0-.1-.1-.1-.1-.1-1-.3-2-.8-2.8-1.5l-.1-.1h-.1q-.1 0-.1.1l-.1.1c-.2 2.2-1.1 4.3-2.3 6.1 0 .1-.1.1-.1.3q0 .1.1.2c.6.8 1.4 1.5 2.2 2.1q-.1.2 0 .2Zm-6.1-8.8c0-.1-.1-.1-.1-.1-.1 0-.1-.1-.1-.1H17c-.1 0-.1.1-.1.1-.8.6-1.8 1.2-2.8 1.5-.1 0-.1.1-.1.1v.2c.8 4.1 3 7.7 6.2 10.3.1 0 .1.1.3.1q.1 0 .2-.1c.8-.6 1.5-1.4 2.2-2.1l.1-.1v-.1l-.2-.1-.1-.1a14.6 14.6 0 0 1-5.4-9.5Zm17.1.5q0-.1-.1-.1l-.1-.1h-.1q-.1 0-.1.1a8.03 8.03 0 0 1-6 1.3q-.1 0-.2.1t-.1.2c-.3 1.5-.8 3-1.5 4.5v.2c0 .1.1.1.1.1 0 .1.1.1.1.1 1.7.7 3.6 1.2 5.5 1.2q.1 0 .2-.1l.1-.1c.8-1.7 1.1-3.3 1.2-4.9.4-.2.7-.6 1-1.1 0-.4.1-.9 0-1.4Z"/><path d="M27.6 13.7c-1.8-1.5-4-2.6-6.2-3.2-.7-.2-1.4-.2-2.1 0-2.3.6-4.4 1.8-6.2 3.3-2.2 1.8 3.9 2.8 4.6 2.9.4 1.3 1.5 3.1 2.7 3.1s2.2-1.9 2.7-3.2c.5-.1 6.6-1.2 4.5-2.9ZM14.4 24.2c0-.1.1-.1.1-.1v-.2c-.7-1.5-1.2-3-1.5-4.5q-.1-.1-.1-.2c-.1-.2-.2-.2-.3-.2-2.1.3-4.3-.2-6-1.3l-.1-.1h-.1l-.1.1-.1.1c0 .5 0 1 .2 1.5.3.4.6.8 1 1.1.1 1.6.4 3.3 1.1 4.8 0 .1.1.1.1.2q.1.1.2.1c1.9 0 3.7-.5 5.5-1.2.1 0 .1-.1.1-.1ZM27 27.7c-1.9 0-3.6.6-5.1 1.7a8.59 8.59 0 0 0-3 4.5v.1c0 .1.1.1.1.1s0 .1.1.1h.1c.4.1.7.1 1.1.1 2.1 0 4.2-.5 6.1-1.4 2.1-1 3.1-2.1 3-3.5.1-1-.7-1.7-2.4-1.7Zm-7.4 2.7c0-.1-.1-.1-.1-.2a8.66 8.66 0 0 0-6-2.4c-1.7 0-2.4.7-2.4 1.8 0 1.3 1.1 2.4 3.2 3.4 1.2.5 2.3.9 3.5 1.2q.1 0 .2-.1t.1-.2c.2-1.2.7-2.2 1.5-3.2v-.3Z"/></g></svg>