<svg xmlns="http://www.w3.org/2000/svg" width="348" height="64" viewBox="0 0 348 64"><g clip-path="url(#a)"><path fill="#fff" d="M316.4 63.9H35.74c-17.47 0-31.6-14.26-31.6-31.89C4.14 14.38 18.27.13 35.74.13H316.4C333.87.13 348 14.38 348 32c0 17.54-14.13 31.9-31.6 31.9Z"/><path fill="#D8271C" d="M99.03 24.3c-.29.4-.58.78-.86.87-.29.2-.67.3-1.15.3-.48 0-.95-.1-1.43-.3-.48-.19-1.05-.48-1.62-.67-.58-.29-1.24-.48-1.91-.68a9.77 9.77 0 0 0-2.48-.28 5.5 5.5 0 0 0-3.06.77 2.57 2.57 0 0 0-1.05 2.12c0 .67.2 1.15.67 1.63.48.39 1.05.77 1.81 1.16.77.29 1.63.67 2.58.96.95.3 1.91.58 2.96.97 1.05.38 2 .77 2.96 1.25a9.68 9.68 0 0 1 2.58 1.83 7.45 7.45 0 0 1 1.81 2.6c.48.96.67 2.22.67 3.66 0 1.73-.29 3.28-.96 4.82a10.66 10.66 0 0 1-2.76 3.75 14.92 14.92 0 0 1-4.59 2.51c-1.81.58-3.91.87-6.3.87a21.85 21.85 0 0 1-6.97-1.16 22.5 22.5 0 0 1-3.05-1.35 9 9 0 0 1-2.39-1.73l2.39-3.86c.29-.48.57-.77 1.05-1.06.38-.28.95-.38 1.62-.38.57 0 1.15.1 1.62.38a19.4 19.4 0 0 0 3.53 1.74 8.1 8.1 0 0 0 2.78.38c.76 0 1.43-.1 2-.28.57-.2.95-.39 1.34-.68.38-.29.57-.58.76-.96.2-.39.2-.77.2-1.16 0-.67-.2-1.25-.68-1.73a4.92 4.92 0 0 0-1.81-1.16c-.76-.29-1.62-.67-2.58-.87-.95-.29-1.9-.57-2.96-.96-.95-.38-2-.77-2.96-1.25a10.04 10.04 0 0 1-2.57-1.93 8.74 8.74 0 0 1-1.82-2.89c-.48-1.15-.67-2.5-.67-4.04a10.3 10.3 0 0 1 3.44-7.8 11.66 11.66 0 0 1 4.3-2.42c1.71-.57 3.72-.86 6.01-.86 1.24 0 2.48.1 3.63.38a16.83 16.83 0 0 1 6.01 2.41c.86.58 1.63 1.16 2.2 1.83l-2.3 3.28Zm2.29-7.12h8.3c.77 0 1.34.19 1.82.48.48.38.86.77 1.05 1.25l3.44 15.7c.28 1.16.57 2.32.76 3.47l.57 3.37c.29-1.05.67-2.21.96-3.37.28-1.15.67-2.3 1.05-3.47l4.3-15.7c.19-.48.47-.96.95-1.25.48-.39 1.05-.48 1.72-.48h4.58c.76 0 1.34.19 1.81.48.48.38.86.77 1.05 1.25l4.1 15.7c.3 1.16.68 2.32.96 3.47l.86 3.37c.2-1.15.38-2.21.67-3.37l.86-3.47 3.63-15.7c.19-.48.47-.96.95-1.25.48-.39 1.05-.48 1.72-.48h7.92l-10.78 34.97h-8.4c-.48 0-.86-.1-1.15-.39a2.93 2.93 0 0 1-.76-1.35l-4.97-17.43c-.28-.77-.48-1.54-.67-2.31-.19-.78-.38-1.55-.47-2.32-.2.77-.29 1.54-.48 2.31-.2.78-.38 1.55-.67 2.32l-4.96 17.34c-.39 1.15-1.05 1.73-2.2 1.73h-7.73l-10.79-34.87Zm69.98-1.06c2.29 0 4.39.38 6.3 1.06 1.9.67 3.53 1.73 4.87 3.08a15.06 15.06 0 0 1 3.24 5 18.83 18.83 0 0 1 1.15 6.75c0 .77 0 1.45-.1 1.93s-.19.87-.38 1.16c-.2.28-.38.48-.76.57-.3.1-.67.2-1.15.2h-19.86c.29 2.89 1.24 5 2.68 6.35 1.43 1.35 3.24 1.93 5.53 1.93 1.25 0 2.2-.1 3.15-.48.86-.29 1.63-.58 2.3-.96.66-.39 1.33-.68 1.9-.97a3.92 3.92 0 0 1 1.82-.48c.86 0 1.43.29 1.9.87l3.06 3.76a14.2 14.2 0 0 1-3.43 2.98 19.85 19.85 0 0 1-3.82 1.83c-1.34.48-2.58.77-3.92.87-1.33.2-2.57.29-3.72.29-2.39 0-4.68-.39-6.78-1.16a15.27 15.27 0 0 1-5.53-3.56 16.88 16.88 0 0 1-3.82-5.88c-.96-2.31-1.34-5-1.34-8.19 0-2.3.38-4.53 1.15-6.64a14.85 14.85 0 0 1 3.43-5.5 16.76 16.76 0 0 1 5.35-3.75 22.7 22.7 0 0 1 6.78-1.06Zm.19 7.22c-2 0-3.53.58-4.68 1.74-1.15 1.15-1.81 2.79-2.2 4.91h12.9c0-.87-.1-1.64-.3-2.4a6.29 6.29 0 0 0-1.05-2.13 5.65 5.65 0 0 0-4.68-2.12Zm36.18-7.22c2.29 0 4.39.38 6.3 1.06a12.8 12.8 0 0 1 4.87 3.08 16.72 16.72 0 0 1 3.24 5 18.83 18.83 0 0 1 1.15 6.75c0 .77 0 1.45-.1 1.93s-.19.87-.38 1.16c-.2.28-.38.48-.76.57-.3.1-.67.2-1.15.2H200.9c.29 2.89 1.24 5 2.67 6.35 1.43 1.35 3.25 1.93 5.54 1.93 1.24 0 2.2-.1 3.15-.48.86-.29 1.62-.58 2.29-.96.67-.39 1.34-.68 1.9-.97a3.92 3.92 0 0 1 1.82-.48c.86 0 1.44.29 1.91.87l2.96 3.76a14.23 14.23 0 0 1-3.44 2.98 19.85 19.85 0 0 1-3.81 1.83 14.3 14.3 0 0 1-3.92.87c-1.34.2-2.58.29-3.72.29-2.39 0-4.68-.39-6.88-1.16-2.1-.77-4-2.02-5.53-3.56a16.88 16.88 0 0 1-3.82-5.88 21.28 21.28 0 0 1-1.43-8.19c0-2.3.38-4.53 1.14-6.64a15 15 0 0 1 3.44-5.5 17.87 17.87 0 0 1 5.35-3.75 27.2 27.2 0 0 1 7.16-1.06Zm.19 7.22c-2 0-3.54.58-4.68 1.74-1.15 1.15-1.81 2.79-2.2 4.91h12.9c0-.87-.1-1.64-.3-2.4a6.29 6.29 0 0 0-1.05-2.13 5.64 5.64 0 0 0-4.68-2.12Zm51.45 20.62a6.16 6.16 0 0 0-1.24-1.83 6.6 6.6 0 0 0-1.9-1.25 6.53 6.53 0 0 0-4.68 0c-.77.29-1.34.77-1.91 1.25a5.87 5.87 0 0 0 0 8.29c.57.57 1.14.96 1.9 1.25a5.92 5.92 0 0 0 4.69 0 5.95 5.95 0 0 0 1.9-1.26c.58-.48.96-1.15 1.25-1.92a6.8 6.8 0 0 0 .47-2.31c0-.78-.19-1.55-.48-2.22Zm49.84 8.19h-9.46l-13.46-34.97h8.6c.76 0 1.33.19 1.81.48.48.38.86.77 1.05 1.25l4.77 15.7 1.15 3.76.86 3.66c.28-1.25.57-2.4.86-3.66.28-1.25.76-2.5 1.14-3.76l4.97-15.7a2.2 2.2 0 0 1 1.05-1.25c.47-.39 1.05-.48 1.72-.48h8.2l-13.26 34.97Zm-66.07-8.29c-.19-.38-.47-.57-.67-.77a1.9 1.9 0 0 0-1.04-.29c-.3 0-.58.1-.77.2l-.57.29c-.1.1-.29.1-.48.19-.19.1-.38.1-.67.1-.47 0-.76-.1-.95-.49-.29-.38-.38-.77-.38-1.44V26.62h7.73v-7.8h-7.73v-8.77h-8.4v.1a2.98 2.98 0 0 0-2.3 2.89v29.19c0 1.44.2 2.79.67 4.04a8.81 8.81 0 0 0 1.91 3.18 8.85 8.85 0 0 0 3.15 2.02c1.24.49 2.58.68 4.2.68 1.63 0 3.34-.2 4.87-.68a14.93 14.93 0 0 0 4.3-2.12l.48-.38-3.35-5.1Zm39.91 0c-.19-.38-.48-.57-.67-.77a1.9 1.9 0 0 0-1.05-.29c-.28 0-.57.1-.76.2l-.57.29c-.1.1-.29.1-.48.19-.2.1-.38.1-.67.1-.48 0-.76-.1-.95-.49-.3-.38-.39-.77-.39-1.44V26.62h7.74v-7.8h-7.74v-8.77h-8.4v.1a2.98 2.98 0 0 0-2.29 2.89v29.19c0 1.44.2 2.79.67 4.04a8.8 8.8 0 0 0 1.9 3.18 8.9 8.9 0 0 0 3.16 2.02c1.24.49 2.58.68 4.2.68s3.34-.2 4.87-.68a14.93 14.93 0 0 0 4.3-2.12l.47-.38-3.34-5.1Z"/><path fill="#20BEC6" d="M32.3.6A31.7 31.7 0 1 0 64 32.3 31.58 31.58 0 0 0 32.3.6Zm11.36 30.55-17.09 9.44c-1.43.77-2.58-.1-2.58-1.93l-.19-17.34c0-1.83 1.15-2.8 2.58-2.02l17.18 9.05c1.44.78 1.53 2.03.1 2.8Z"/><path fill="#20BEC6" d="M35.16.03A32 32 0 0 0 3.18 32.02 32 32 0 0 0 35.16 64C52.82 64 65.8 49.65 65.8 32.02 65.9 14.39 52.82.03 35.16.03Zm11.46 30.83L29.43 40.3c-1.43.77-2.58-.1-2.67-1.93l-.2-17.43c0-1.83 1.15-2.8 2.59-2.03l17.37 9.16c1.43.77 1.53 2.02.1 2.79Z" opacity=".5"/><path fill="#fff" d="M63.61 24.6c-1.14-5.4-7.16-15.9-10.98-17.54C49 5.52 47.1 2.92 45.66 2.63c-1.33-.29-7.63-2.98-9.83-2.5s-5.35-.3-7.16-.1c-1.81.3-11.46 2.41-16.9 7.42-5.15 4.72-6.68 7.32-6.68 7.32S-4.55 34.04 2.7 36.35c1.91.58 1.63 1.73 1.72 3.76 0 2.98-.86 3.37 1.34 5.1 2.2 1.74 4.49-1.54 6.4.39 1.8 1.93-1.82 6.16 3.34 9.06 5.15 2.79 4.39-4.53 8.02-3.28 3.72 1.25.47 6.45 4.67 6.74 4.2.39 2.68-5.3 5.16-4.91 2.48.39 1.05 4.43 6.2 3.47 5.16-.96 1.72-5.4 4.49-6.26 2.86-.87 3.82 4.72 9.36-.68 5.53-5.4.28-5.3 1.52-7.42 1.15-2.12 2.39 1.55 4.01-3.37 1.72-4.91.2-3.08 0-5.4-.19-2.2 5.83-3.56 4.68-8.95Z"/><path fill="#D8271C" d="M53.68 40.88h-3.91a.66.66 0 0 1-.67-.68v-1.06c0-.38.29-.67.67-.67h3.91c.39 0 .67.29.67.67v1.06c-.1.3-.38.68-.67.68Zm.96-11.76c-.1 0-.2 0-.38-.1l-.86-.57c-.2-.1-.3-.29-.3-.39 0-.19 0-.38.1-.48l2.01-3.47c.2-.28.57-.48.86-.28l.86.57c.19.1.28.3.28.39 0 .2 0 .38-.1.48l-2 3.47c0 .29-.28.38-.47.38Z"/><path fill="#F6BF48" d="M49.1 21.9c-.1 0-.2 0-.29-.1l-.86-.57c-.28-.2-.38-.58-.19-.97l2-3.47c.2-.28.58-.48.87-.28l.86.57c.19.1.28.3.28.39 0 .2 0 .38-.1.48l-2 3.56c-.19.2-.38.39-.57.39Z"/><path fill="#D8271C" d="M43.85 13.61c-.1 0-.2 0-.29-.1a.75.75 0 0 1-.38-.38l-1.33-3.85c-.1-.2-.1-.39 0-.48a.7.7 0 0 1 .38-.39l.95-.38c.38-.1.77 0 .86.38l1.34 3.86c.1.38 0 .77-.38.86l-.96.39c0 .1-.1.1-.19.1Z"/><path fill="#20BEC6" d="m38.4 15.06-.18.2c-.2.09-.29.09-.48.09l-3.92-1.06c-.19 0-.28-.2-.38-.29-.1-.2-.1-.39-.1-.48l.3-.96c.09-.39.47-.58.76-.49l3.91 1.06c.2 0 .29.2.38.3.1.18.1.38.1.47l-.29.97c0 .1 0 .19-.1.19Z"/><path fill="#F6BF48" d="M28.86 8.12c-.28 0-.57-.19-.67-.57L28 6.49c0-.2 0-.39.1-.49.1-.19.29-.29.38-.29l3.82-.86c.2 0 .38 0 .48.1.19.09.28.28.28.38l.2 1.06c.09.38-.2.77-.48.87l-3.82.86h-.1Z"/><path fill="#20BEC6" d="M40.22 47.14c-.1 0-.19 0-.29-.1l-.85-.57c-.3-.2-.39-.58-.2-.97l2-3.47c.2-.28.58-.48.87-.28l.86.57c.19.1.28.3.28.39 0 .2 0 .38-.1.48l-2 3.47c-.19.38-.38.48-.57.48Z"/><path fill="#F6BF48" d="m11.77 22.19-3.43-1.74c-.29-.19-.48-.57-.29-.86l.48-.97c.19-.38.57-.48.86-.29l3.43 1.74c.29.2.48.58.29.87l-.48.96c-.19.29-.57.48-.86.29Z"/><path fill="#20BEC6" d="M12.16 39.34c-.1-.1-.2-.2-.2-.3l-.47-.96c-.2-.28 0-.77.28-.96l3.54-1.93c.19-.1.38-.1.47-.1.2.1.29.2.38.3l.48.96c.1.2.1.39 0 .48-.1.2-.19.3-.28.39l-3.54 1.92c-.19.1-.38.1-.47.1-.1.1-.2.1-.2.1Z"/><path fill="#D8271C" d="M16.64 15.54c-.1 0-.19 0-.38-.1l-.86-.57c-.29-.2-.38-.58-.2-.97l2.01-3.47c.2-.28.58-.48.86-.28l.86.57c.2.1.29.3.29.39 0 .2 0 .38-.1.48l-2 3.47c-.1.2-.2.29-.38.29 0 .2-.1.2-.1.2Zm-2.48 15.8a.5.5 0 0 1-.76-.1l-3.06-2.6a.75.75 0 0 1-.1-.96l.67-.77c.1-.1.3-.2.48-.2.2 0 .38 0 .48.2l3.05 2.6c.1.1.2.29.29.48 0 .2 0 .39-.1.48l-.66.77c-.2.1-.2.1-.29.1Zm3.63 17.44a.72.72 0 0 1-.67-.48l-1.05-3.95c-.1-.39.1-.78.47-.87l.96-.29c.19 0 .38 0 .48.1.19.1.28.19.28.38l1.05 3.95c0 .2 0 .39-.1.48-.09.2-.18.3-.37.3l-.96.28c.1.1 0 .1-.1.1Z"/><path fill="#F6BF48" d="M30.67 50.8a.72.72 0 0 1-.66-.48l-.96-3.95c-.1-.39.1-.77.48-.87l.95-.29c.2 0 .39 0 .48.1.2.1.29.29.29.38l1.05 3.95c0 .2 0 .39-.1.49-.1.19-.19.29-.38.29l-.95.28c-.1.1-.1.1-.2.1Z"/><path fill="#2D3945" d="M46.9 27.78 24.86 16.22c-1.81-.97-3.34.19-3.34 2.6l.2 22.16c0 2.4 1.52 3.46 3.33 2.5l21.87-12.04c1.9-1.06 1.8-2.7 0-3.66Z"/><path fill="#20BEC6" d="M46.9 27.78 24.86 16.22c-1.81-.97-3.34.19-3.34 2.6v2.98l22.05 11.37 3.25-1.83c2-.96 1.9-2.6.1-3.56Z"/></g><defs><clipPath id="a"><path fill="#fff" d="M0 0h348v64H0z"/></clipPath></defs></svg>