<svg width="61" height="88" viewBox="0 0 61 88" fill="none" xmlns="http://www.w3.org/2000/svg">
<g filter="url(#filter0_dddd_40003237_163175)">
<path fill-rule="evenodd" clip-rule="evenodd" d="M18.6673 9.11589C18.6673 8.67386 18.4917 8.24994 18.1792 7.93737C17.8666 7.62481 17.4427 7.44922 17.0007 7.44922C16.5586 7.44922 16.1347 7.62481 15.8221 7.93737C15.5096 8.24994 15.334 8.67386 15.334 9.11589V32.4492C15.334 32.8912 15.5096 33.3152 15.8221 33.6277C16.1347 33.9403 16.5586 34.1159 17.0007 34.1159H43.6673C44.1093 34.1159 44.5333 33.9403 44.8458 33.6277C45.1584 33.3152 45.334 32.8912 45.334 32.4492C45.334 32.0072 45.1584 31.5833 44.8458 31.2707C44.5333 30.9581 44.1093 30.7826 43.6673 30.7826H18.6673V9.11589ZM25.334 20.7826C25.334 20.3405 25.1584 19.9166 24.8458 19.604C24.5333 19.2915 24.1093 19.1159 23.6673 19.1159C23.2253 19.1159 22.8014 19.2915 22.4888 19.604C22.1762 19.9166 22.0007 20.3405 22.0007 20.7826V25.7826C22.0007 26.2246 22.1762 26.6485 22.4888 26.9611C22.8014 27.2736 23.2253 27.4492 23.6673 27.4492C24.1093 27.4492 24.5333 27.2736 24.8458 26.9611C25.1584 26.6485 25.334 26.2246 25.334 25.7826V20.7826ZM30.334 10.7826C30.776 10.7826 31.1999 10.9581 31.5125 11.2707C31.8251 11.5833 32.0007 12.0072 32.0007 12.4492V25.7826C32.0007 26.2246 31.8251 26.6485 31.5125 26.9611C31.1999 27.2736 30.776 27.4492 30.334 27.4492C29.892 27.4492 29.468 27.2736 29.1555 26.9611C28.8429 26.6485 28.6673 26.2246 28.6673 25.7826V12.4492C28.6673 12.0072 28.8429 11.5833 29.1555 11.2707C29.468 10.9581 29.892 10.7826 30.334 10.7826ZM38.6673 17.4492C38.6673 17.0072 38.4917 16.5833 38.1792 16.2707C37.8666 15.9581 37.4427 15.7826 37.0007 15.7826C36.5586 15.7826 36.1347 15.9581 35.8221 16.2707C35.5096 16.5833 35.334 17.0072 35.334 17.4492V25.7826C35.334 26.2246 35.5096 26.6485 35.8221 26.9611C36.1347 27.2736 36.5586 27.4492 37.0007 27.4492C37.4427 27.4492 37.8666 27.2736 38.1792 26.9611C38.4917 26.6485 38.6673 26.2246 38.6673 25.7826V17.4492Z" fill="#32BF00"/>
</g>
<defs>
<filter id="filter0_dddd_40003237_163175" x="-4.66602" y="-2.21875" width="70" height="96" filterUnits="userSpaceOnUse" color-interpolation-filters="sRGB">
<feFlood flood-opacity="0" result="BackgroundImageFix"/>
<feColorMatrix in="SourceAlpha" type="matrix" values="0 0 0 0 0 0 0 0 0 0 0 0 0 0 0 0 0 0 127 0" result="hardAlpha"/>
<feOffset dy="2"/>
<feGaussianBlur stdDeviation="2.5"/>
<feColorMatrix type="matrix" values="0 0 0 0 0.196078 0 0 0 0 0.74902 0 0 0 0 0 0 0 0 0.15 0"/>
<feBlend mode="normal" in2="BackgroundImageFix" result="effect1_dropShadow_40003237_163175"/>
<feColorMatrix in="SourceAlpha" type="matrix" values="0 0 0 0 0 0 0 0 0 0 0 0 0 0 0 0 0 0 127 0" result="hardAlpha"/>
<feOffset dy="10"/>
<feGaussianBlur stdDeviation="5"/>
<feColorMatrix type="matrix" values="0 0 0 0 0.196078 0 0 0 0 0.74902 0 0 0 0 0 0 0 0 0.13 0"/>
<feBlend mode="normal" in2="effect1_dropShadow_40003237_163175" result="effect2_dropShadow_40003237_163175"/>
<feColorMatrix in="SourceAlpha" type="matrix" values="0 0 0 0 0 0 0 0 0 0 0 0 0 0 0 0 0 0 127 0" result="hardAlpha"/>
<feOffset dy="21"/>
<feGaussianBlur stdDeviation="6.5"/>
<feColorMatrix type="matrix" values="0 0 0 0 0.196078 0 0 0 0 0.74902 0 0 0 0 0 0 0 0 0.08 0"/>
<feBlend mode="normal" in2="effect2_dropShadow_40003237_163175" result="effect3_dropShadow_40003237_163175"/>
<feColorMatrix in="SourceAlpha" type="matrix" values="0 0 0 0 0 0 0 0 0 0 0 0 0 0 0 0 0 0 127 0" result="hardAlpha"/>
<feOffset dy="38"/>
<feGaussianBlur stdDeviation="7.5"/>
<feColorMatrix type="matrix" values="0 0 0 0 0.196078 0 0 0 0 0.74902 0 0 0 0 0 0 0 0 0.02 0"/>
<feBlend mode="normal" in2="effect3_dropShadow_40003237_163175" result="effect4_dropShadow_40003237_163175"/>
<feBlend mode="normal" in="SourceGraphic" in2="effect4_dropShadow_40003237_163175" result="shape"/>
</filter>
</defs>
</svg>
