<svg xmlns="http://www.w3.org/2000/svg" width="129" height="32" viewBox="0 0 129 32"><path d="M10.1.5C3.6.5 0 0 0 0c.1 2.7.1 2.6.1 7.8v12.1c0 6.6 4.2 11.8 10.8 11.8h107.4c6.6 0 10.8-5.2 10.8-11.8V.5h-119Z"/><g fill="#fff"><path d="M29.9 20c-.2 0-.4 0-.7-.1.3.1.5.1.7.1Zm17-1.6c-.6.9-1.6 2.1-3.9 2.1-1.1 0-2-.7-2-1.8 2.8.3 7.1-1.2 7.1-5.8 0-2.4-1.5-4.7-5-4.7s-7.4 3.4-7.4 9.3c0 5.5 4 6.8 6.7 6.8 3.2 0 5.8-1.7 5.8-4.6 0-1.3-.9-1.3-1.3-1.3ZM41.4 13c.8-.8 1.9-.7 2.4-.2.5.5.5 1.6-.2 2.4-.8.8-2.1 1.1-2.7.5s-.3-1.9.5-2.7Zm21.1 5.6.4-7.8c0-1.3-.9-2.2-2.5-2.2-1.2 0-3 .7-3 .7.1 1 .1 1.6.1 5-.7.2-2 .3-2.7.3-.1-1.2 0-2.5 0-3.8 0-1.2-.8-2.1-2.4-2.1-1.2 0-3.1.6-3.1.6.2 1.2.2 1.9.2 3.6 0 2.6-.1 6.4-.1 9.2 0 .9.8 2 2.4 2 2.1 0 3.1-1.4 3.1-2v-3.9h2.5l.1 3.4c.1 1.8 1.2 2.5 2.4 2.5 2 0 3.4-1.3 3.4-3.1-.5-.1-.7-.7-.8-2.4Zm24.1-2.5c0-.1 3.2-.7 3.2-3.7 0-5.7-9.7-3.5-12.5-3.5.3 1.2.2 7.5.2 11.3 0 4.5 2.4 4 7.3 4 3.1 0 5.3-2 5.3-4.3-.1-3.7-3.5-3.8-3.5-3.8Zm-3.4-4.3c.1-.2.4-.3.6-.3.7 0 1.3.9 1.3 1.9 0 .8-.4 1.5-1.1 1.5-.2 0-.5 0-.7-.3-.5-.3-.3-2.6-.1-2.8Zm.8 9.3c-.2 0-.6-.2-.6-.3-.1-.1-.1-2.6.1-2.8.1-.2.5-.4.7-.4 1.4.3 1.9 3.5-.2 3.5ZM21.8 8.8c-2.4 0-4.4-.3-7.1-.3-3.1 0-5.5 1.5-5.5 4.1 0 1.9 1.8 3.9 4.2 3.9v.1c-2 0-3.7 1.2-3.7 2.8 0 1.1-.6 1.8-1.2 1.9 0 1 .9 2.9 3.3 2.9 1.7 0 2.8-1.7 2.8-3.6 0-1.8.6-2.5 1.9-2.6l.1 3.6c0 1.8 1.4 2.5 2.6 2.5 2.2 0 3.7-1.3 3.7-2.5-1 0-1.1-2.8-1.1-5.6-.2-2.4 0-5.3 0-7.2Zm-5.4 5.8c-.4.2-.6.2-.9.1-1.4-.5-.9-3.3.4-3.3.4 0 .5.1.6.3s.1 1 .1 1.9c0 .5-.1.9-.2 1Zm103.1 4c0-1.7.3-3.3.3-5.2 0-1.5-.3-4.6-3.6-4.6-3.1 0-4.3 2-4.3 2s-1.3-2.2-4-2.2c-2.4 0-3.7 2.6-3.7 2.6h-.1s.1-2.6-2.3-2.6c-1.5 0-2.3.6-2.3.6s.2.9.2 2.1c0 .4.1 7.9.1 10.6 0 .9.8 2 2.4 2 2.1 0 3.1-1.4 3.1-2 0-.3 0-5.9-.1-7.7-.1-.8.5-1.5 1.1-1.4.5 0 1.1.5 1.1 1.1.1 5.5-.2 5.2-.2 8 0 .9.7 2 2.3 2 2.1 0 3-1.4 3-2 0-.4 0-1.1-.1-1.9 0-2.5-.1-3.8-.1-5.8.1-1.9 2.1-1.6 2.1-.1l-.1 6.9v.5c.1 1.8 1.2 2.5 2.4 2.5 2 0 3.4-1.3 3.4-3.1-.4 0-.6-.5-.6-2.3Zm-22.7.3c0-1.6.3-4.9.3-5.5a5.16 5.16 0 0 1-5.5-1.1c.2 1.8.1 6.2.1 8.9 0 1.9 1.2 3 2.5 3 2 0 3.4-1.3 3.4-3.1-.5-.2-.8-.4-.8-2.2Z"/><path d="M97.5 4.6c-1.5-.9-4.2.5-5.5 2.6-1.3 2.1-.5 4.3.9 5.1 1.5.9 3.7.5 4.9-1.6 1.3-2.2 1.2-5.2-.3-6.1Zm-24.2 9.5c1.6.3 3-.3 3-1.9 0-2.1-2.3-3.4-4.2-3.4-4.5 0-7.8 3.8-7.8 9.3 0 4.6 3.6 6.6 6.7 6.6 3.5 0 5.3-1.9 5.3-4.1 0-1.8-1.7-1.6-1.7-1.6s-1 1.4-2.4 1.4c-2.1 0-2.9-1.5-2.9-3.4 0-2.3 1.3-4.4 2.7-4.4 1 .1 1.3.8 1.3 1.5ZM32 14c1.6.3 3-.3 3-1.9 0-2.1-2.3-3.4-4.2-3.4-4.5 0-7.8 3.8-7.8 9.3 0 4.6 3.6 6.6 6.7 6.6 3.5 0 5.3-1.9 5.3-4.1 0-1.8-1.7-1.6-1.7-1.6s-1 1.4-2.4 1.4c-2.1 0-2.9-1.5-2.9-3.4 0-2.3 1.3-4.4 2.7-4.4 1.1.1 1.3.9 1.3 1.5Z"/></g></svg>