<svg xmlns="http://www.w3.org/2000/svg" xmlns:xlink="http://www.w3.org/1999/xlink" style="display:none"><defs><clipPath id="a"><path fill="#fff" d="M.01 0h20v20h-20z"/></clipPath></defs><symbol id="arrow-left"><path d="M3.46 11.29c-.19.19-.29.44-.29.71s.11.52.29.71l5.66 5.66c.19.18.44.28.7.28.26 0 .51-.11.7-.29s.29-.44.29-.7c0-.26-.1-.51-.28-.7l-3.95-3.95h13.24a.99.99 0 001-1 .99.99 0 00-1-1H6.59l3.95-3.95c.18-.19.28-.44.28-.7a.98.98 0 00-.99-.99c-.26 0-.51.1-.7.28l-5.66 5.66z"/></symbol><symbol id="arrow-right"><path d="M14.88 5.65l5.66 5.66c.19.19.29.44.29.71s-.11.52-.29.71l-5.66 5.66c-.19.18-.44.28-.7.28s-.51-.11-.7-.29-.29-.44-.29-.7c0-.26.1-.51.28-.7l3.95-3.95H4.17a.99.99 0 01-1-1 .99.99 0 011-1h13.24l-3.95-3.95a1 1 0 01-.3-.71c0-.13.02-.26.07-.39a1 1 0 011.65-.32z"/></symbol><symbol id="battery"><path d="M18.52 5.5c1.14 0 2.08.88 2.16 2.01v1.24c1.14 0 2.08.88 2.16 2.01v2.33c0 1.14-.88 2.08-2.01 2.16h-.16v1.09c0 1.14-.88 2.08-2.01 2.16H3.33a2.16 2.16 0 01-2.16-2.01V7.66c0-1.14.88-2.08 2.01-2.16h15.34zm0 2.17H3.35v8.67h15.17V7.67zm-13 1.08c.6 0 1.08.49 1.09 1.09v4.33c0 .6-.49 1.08-1.09 1.09a1.1 1.1 0 01-1.09-1.09V9.84c0-.6.49-1.08 1.09-1.09zm3.25 0c.27 0 .52.1.72.27.2.18.32.42.36.68v4.46c0 .28-.11.54-.3.74-.19.2-.45.32-.72.34a1.09 1.09 0 01-1.14-.95V9.83c0-.6.49-1.08 1.09-1.09zm3.25 0c.6 0 1.08.49 1.09 1.09v4.33c0 .29-.11.56-.32.77-.21.21-.48.32-.77.32s-.56-.11-.77-.32a1.1 1.1 0 01-.32-.77V9.84c0-.6.49-1.08 1.09-1.09zm3.25 0c.27 0 .52.1.72.27.2.18.32.42.36.68v4.46c0 .28-.11.54-.3.74-.19.2-.45.32-.72.34a1.09 1.09 0 01-1.14-.95V9.83c0-.6.49-1.08 1.09-1.09h-.01z"/></symbol><symbol id="briefcase"><path d="M14 3a3 3 0 013 3h3a2 2 0 012 2v11a2 2 0 01-2 2H4a2 2 0 01-2-2V8a2 2 0 012-2h3a3 3 0 013-3h4zm-3 9H4v7h16v-7h-7v1a1 1 0 01-2 .12V12zm9-4H4v2h16V8zm-6-3h-4a1 1 0 00-1 .88V6h6a1 1 0 00-.88-1H14z"/></symbol><symbol id="dark-mode"><path fill="#277dff" fill-rule="evenodd" d="M12.41 4.65c-.08-.17-.1-.35-.08-.53a.93.93 0 01.21-.5 1 1 0 01.97-.37 8.98 8.98 0 017.4 9.66 9.02 9.02 0 01-8.97 8.21 9 9 0 01-8.86-7.43 1.1 1.1 0 01.05-.54c.07-.17.18-.32.32-.43.14-.11.32-.18.5-.21.18-.02.37 0 .53.08a5.99 5.99 0 007.93-7.93zm2.4 1.07a7.97 7.97 0 01-5.47 9.01 7.99 7.99 0 01-3.79.25 7 7 0 109.27-9.26zm-9.32 2.1l.06.14c.27.56.7 1.04 1.24 1.36l.1.06.03.02v.06c0 .01-.01.02-.03.02l-.1.06c-.53.33-.96.8-1.24 1.36l-.06.14-.03.03-.04.01-.04-.01-.03-.03-.06-.14a3.2 3.2 0 00-1.24-1.36l-.1-.06-.03-.02V9.4c0-.01.01-.02.03-.02l.1-.06c.53-.33.96-.8 1.24-1.36l.06-.14.03-.03.04-.01.04.01.03.03zm2.83-4.86a.12.12 0 01.21 0l.1.22c.43.9 1.12 1.65 1.97 2.17l.16.09.04.04.01.05-.01.05-.04.04-.16.09a5.18 5.18 0 00-2.11 2.44l-.06.02c-.02 0-.04 0-.06-.02l-.04-.05-.1-.22a5.16 5.16 0 00-1.97-2.17l-.16-.09-.04-.04-.01-.05.01-.05c0-.02.02-.03.04-.04l.16-.09a5.16 5.16 0 001.97-2.17l.1-.22z"/></symbol><symbol id="down"><path fill-rule="evenodd" d="M8.46 9.88c.19-.19.44-.29.71-.29s.52.11.71.29L12 12l2.12-2.12a.99.99 0 01.71-.29.99.99 0 011 1c0 .27-.11.52-.29.71l-2.83 2.83c-.19.19-.44.29-.71.29s-.52-.11-.71-.29L8.46 11.3c-.19-.19-.29-.44-.29-.71s.11-.52.29-.71z"/></symbol><symbol id="faq"><path d="M12 2a10 10 0 110 20 10 10 0 010-20zm0 2a8 8 0 100 16.02A8 8 0 0012 4zm0 12c.27 0 .52.11.71.29s.29.44.29.71-.11.52-.29.71-.44.29-.71.29-.52-.11-.71-.29S11 17.27 11 17s.11-.52.29-.71.44-.29.71-.29zm0-9.5a3.62 3.62 0 011.35 6.99.7.7 0 00-.3.2c-.04.05-.05.11-.05.18V14a1 1 0 01-.27.69.94.94 0 01-.67.31c-.25.01-.51-.07-.7-.23a.98.98 0 01-.35-.65v-.37c0-1.15.93-1.85 1.6-2.12a1.63 1.63 0 00.87-2.2 1.61 1.61 0 00-3.09.69.99.99 0 01-1 1 .99.99 0 01-1-1 3.62 3.62 0 013.62-3.62z"/></symbol><symbol id="fire"><g fill="none"><g clip-path="url(#a)"><path fill="#FFBA08" d="M9.6 1.79l-1.05-.63-.2 1.2C8.04 4.27 6.73 6.04 5.3 7.3c-2.82 2.44-3.43 5.09-2.56 7.27a6.32 6.32 0 005.1 3.77l.5.05a3.96 3.96 0 01-1.75-3.81c.27-1.29 1.2-2.5 2.98-3.61l.9-.56.33 1c.2.6.54 1.07.89 1.56l.49.72c.53.87.68 1.84.33 2.8a3.43 3.43 0 01-1.55 1.94l.8-.1c2.02-.22 3.5-.9 4.46-2.06a6.35 6.35 0 001.29-4.18c0-1.45-.6-2.96-1.3-4.2A18.07 18.07 0 0013.1 4c-.2.4-.18.57-.6 1.23a6.79 6.79 0 00-2.9-3.45z"/></g></g></symbol><symbol id="lens"><path fill-rule="evenodd" d="M10.95 4.45a6.5 6.5 0 100 13.02 6.5 6.5 0 000-13.02zm-8.5 6.5a8.41 8.41 0 013.58-6.93 8.4 8.4 0 017.71-1.11 8.44 8.44 0 015.37 5.64 8.6 8.6 0 01-1.48 7.65l3.65 3.65c.18.19.28.44.28.7 0 .26-.11.51-.29.7s-.44.29-.7.29c-.26 0-.51-.1-.7-.28l-3.65-3.65a8.55 8.55 0 01-8.98.98 8.48 8.48 0 01-4.79-7.65zm7.5-3.5a.99.99 0 011-1 4.47 4.47 0 014.5 4.5.99.99 0 01-1 1 .99.99 0 01-1-1 2.5 2.5 0 00-2.5-2.5.99.99 0 01-1-1z"/></symbol><symbol id="light-mode"><g fill="none"><path fill="#FFBA08" d="M12 19a1 1 0 011 1v1a1 1 0 11-2 0v-1a1 1 0 011-1zm6.36-2.05l.71.7a1 1 0 01-1.41 1.42l-.71-.7a1 1 0 011.41-1.42zm-12.72 0a1 1 0 011.5 1.32l-.09.1-.7.7a1 1 0 01-1.5-1.32l.08-.1.7-.7zM12 6a6 6 0 110 12 6 6 0 010-12zm0 2a4 4 0 100 8 4 4 0 000-8zm-8 3a1 1 0 01.12 2H3a1 1 0 01-.12-2H4zm17 0a1 1 0 010 2h-1a1 1 0 010-2h1zM4.93 4.93a1 1 0 011.32-.08l.1.08.7.7a1 1 0 01-1.32 1.5l-.1-.08-.7-.7a1 1 0 010-1.42zm14.14 0a1 1 0 010 1.41l-.7.71a1 1 0 11-1.42-1.41l.7-.71a1 1 0 011.42 0zM12 2a1 1 0 011 1v1a1 1 0 11-2 0V3a1 1 0 011-1z"/></g></symbol><symbol id="map"><path fill-rule="evenodd" d="M7 7a5.03 5.03 0 012.85-4.51A5 5 0 1113 11.9V17c0 .27-.11.52-.29.71s-.44.29-.71.29-.52-.11-.71-.29S11 17.27 11 17v-5.1A4.99 4.99 0 017 7zm2.49 9.1c.02.13.01.26-.02.39a.88.88 0 01-.17.35.9.9 0 01-.29.26.96.96 0 01-.37.13c-1.28.19-2.29.49-2.96.82-.34.16-.53.31-.64.42l-.02.02c.03.04.09.1.19.17.28.21.75.44 1.42.64 1.33.41 3.22.69 5.36.69s4.03-.27 5.36-.69a5.22 5.22 0 001.42-.64c.1-.07.16-.13.19-.17l-.02-.02c-.1-.11-.3-.26-.64-.42-.67-.33-1.68-.62-2.96-.82a.96.96 0 01-.37-.13 1 1 0 01-.48-1.01c.02-.13.07-.26.13-.37a.97.97 0 01.63-.45c.13-.03.26-.03.39-.01 1.39.21 2.62.55 3.54 1 .46.22.88.5 1.21.84.33.35.6.82.6 1.4 0 .81-.52 1.4-1.03 1.78-.53.39-1.23.7-2.01.95-1.57.49-3.67.78-5.96.78s-4.39-.29-5.95-.78a6.58 6.58 0 01-2.01-.95C3.52 19.9 3 19.31 3 18.5c0-.58.27-1.05.6-1.4.33-.34.75-.62 1.21-.84.92-.45 2.15-.79 3.54-1 .13-.02.26-.01.39.02s.25.09.35.17c.11.08.2.18.26.29.07.11.11.24.13.37z"/></symbol><symbol id="messenger"><path d="M12 2a10 10 0 11-4.86 18.74l-.31-.18-3.03.89a1.1 1.1 0 01-.51.02 1.07 1.07 0 01-.45-.23.92.92 0 01-.28-.42.98.98 0 01-.04-.51l.03-.11.89-3.03A10 10 0 0112 2zm0 2a7.98 7.98 0 00-6.76 12.28c.2.31.28.7.22 1.08l-.04.16-.44 1.5 1.5-.44a1.5 1.5 0 011.24.18 7.93 7.93 0 0010.15-1.33 8.09 8.09 0 002-6.87 8 8 0 00-7.86-6.55zM9.79 9.79a1 1 0 011.32-.08l.09.08 2.29 2.29 2.29-2.29a1 1 0 011.37-.04c.19.17.31.4.33.66s-.05.51-.2.71l-.08.09-3 3c-.17.17-.4.28-.64.29s-.48-.06-.68-.21l-.09-.08-2.29-2.29-2.29 2.29a1 1 0 01-1.37.04c-.19-.17-.31-.4-.33-.66s.05-.51.2-.71l.08-.09 3-3z"/></symbol><symbol id="phone"><path d="M7.01 2.29c1.26.92 2.22 2.22 3.03 3.4l.64.94a1.51 1.51 0 01-.17 1.91L9.15 9.9l.14.3c.35.71.95 1.73 1.86 2.64.63.62 1.34 1.15 2.1 1.58l.37.2.33.16.15.07 1.35-1.36a1.51 1.51 0 011.92-.17l1.01.7c1.15.81 2.35 1.73 3.29 2.93a1.45 1.45 0 01.19 1.49c-.84 1.95-2.95 3.62-5.16 3.53l-.3-.02-.23-.02-.26-.03-.28-.04-.3-.05-.33-.06-.35-.08-.37-.09-.39-.11-.4-.13a17.19 17.19 0 01-6.59-4.26 17.26 17.26 0 01-4.26-6.59l-.13-.4-.11-.38-.09-.37-.08-.35-.06-.33-.05-.31-.04-.28-.03-.26-.02-.23-.02-.3c-.08-2.2 1.6-4.33 3.54-5.16a1.44 1.44 0 011.44.16zM6.08 4.1c-1.07.56-2.11 1.84-2.06 3.12l.02.33.02.2.03.23.04.25.05.28.07.3.08.32.1.34.11.36.13.37.15.39L5 11c.63 1.38 1.65 3 3.32 4.67A16.1 16.1 0 0012.99 19l.41.18.39.15.38.13.36.11.34.1.32.08.3.07.28.05.25.04.23.03.2.02.33.02c1.26.05 2.55-.99 3.11-2.04-.71-.83-1.6-1.52-2.57-2.21l-.75-.52-.19.2-.41.44-.22.23c-.59.6-1.27 1.1-2.09.77l-.23-.1-.28-.12-.15-.07-.34-.17-.37-.2c-.94-.52-1.8-1.17-2.57-1.92-.75-.76-1.4-1.63-1.93-2.57l-.2-.37-.17-.34-.2-.43-.1-.23c-.31-.77.12-1.42.66-1.98L8 8.13l.56-.51.2-.19-.47-.69a12.17 12.17 0 00-2.24-2.63zm9.06 1.79h.12a3.59 3.59 0 012.86 2.97 1 1 0 01-.79 1.12c-.25.05-.51 0-.73-.13a1.03 1.03 0 01-.44-.6l-.02-.11a1.5 1.5 0 00-1.07-1.23l-.16-.03a1 1 0 01.23-1.98zm0-3.04a5.97 5.97 0 016 6c0 .25-.1.5-.27.69a.94.94 0 01-.67.31c-.25.01-.51-.07-.7-.23a.98.98 0 01-.35-.65v-.12a4 4 0 00-3.75-3.99h-.26a1 1 0 01-1-1.01.99.99 0 011-1z"/></symbol><symbol id="right-lg"><path fill="#081933" fill-rule="evenodd" d="M15.54 11.28c.19.19.29.44.29.71s-.11.52-.29.71l-5.66 5.66a1 1 0 01-.71.3c-.13 0-.26-.02-.39-.07a1 1 0 01-.32-1.65l4.95-4.95-4.95-4.95a1.02 1.02 0 01-.28-.7.98.98 0 01.99-.99c.26 0 .51.1.7.28l5.66 5.66z"/></symbol><symbol id="tg"><path fill-rule="evenodd" d="M22.03 5.16a1.52 1.52 0 00-.55-1.43 1.5 1.5 0 00-1.51-.21l-17.1 7.21c-1.19.5-1.25 2.23 0 2.75 1.24.52 2.5.99 3.77 1.42 1.17.39 2.44.74 3.46.84.28.33.63.66.99.95.55.45 1.2.91 1.88 1.36 1.36.89 2.87 1.74 3.89 2.3 1.22.66 2.67-.1 2.89-1.43l2.27-13.76zM4.78 12.1L19.9 5.73l-2.12 12.84c-1-.54-2.44-1.36-3.72-2.19a20.54 20.54 0 01-2.14-1.6l3.96-3.96a.99.99 0 00.29-.71.99.99 0 00-1-1c-.27 0-.52.11-.71.29l-4.34 4.34c-.73-.09-1.76-.37-2.88-.74-.84-.28-1.66-.58-2.48-.9z"/></symbol><symbol id="user"><path fill-rule="evenodd" d="M9.59 15.49c.53 0 1.04.21 1.41.59l1 1 1-1c.37-.38.88-.59 1.41-.59h4.02a2.97 2.97 0 012.91 2.28l.62 2.49c.03.13.04.26.03.39a.96.96 0 01-.13.37 1 1 0 01-1.67.07.97.97 0 01-.16-.36l-.62-2.49a.99.99 0 00-.97-.76h-4.02l-1 1a1.97 1.97 0 01-2.82 0l-1-1H5.58a1 1 0 00-.62.21.96.96 0 00-.35.55l-.62 2.49c-.03.13-.09.25-.16.36a1.06 1.06 0 01-.66.41 1.02 1.02 0 01-1.01-.48.96.96 0 01-.1-.76l.62-2.49a3.03 3.03 0 012.91-2.28h4.03zm2.41-13c.78 0 1.66.19 2.38.39A3.68 3.68 0 0117 6.49v4.01c0 1.59-.96 3.14-2.62 3.61-.72.2-1.6.39-2.38.39s-1.66-.19-2.38-.39A3.68 3.68 0 017 10.5V6.49c0-1.59.96-3.14 2.62-3.61A9.4 9.4 0 0112 2.49zm0 2a7.2 7.2 0 00-1.84.32C9.49 5 9 5.66 9 6.49v4.01c0 .83.49 1.49 1.16 1.68.67.19 1.33.32 1.84.32s1.18-.13 1.84-.32c.67-.19 1.16-.85 1.16-1.68V6.49c0-.83-.49-1.49-1.16-1.68A7.74 7.74 0 0012 4.49z"/></symbol><symbol id="viber"><path d="M8.87 2.6c2.09-.12 4.18-.12 6.27 0l.63.04c1.21.08 2.12.19 2.97.64a5.3 5.3 0 012.03 2.04c.53.98.58 2.04.66 3.55.08 1.42.08 2.84 0 4.26l-.05.91a6.12 6.12 0 01-.61 2.64 5.37 5.37 0 01-2.03 2.04c-.98.53-2.06.59-3.6.68-1.04.06-2.09.1-3.14.11h-1.55l-1.09-.01-2.24 1.79a.96.96 0 01-.51.21.98.98 0 01-.96-.46.99.99 0 01-.15-.53v-1.67a5.3 5.3 0 01-2.26-2.16c-.53-.99-.58-2.04-.66-3.55a37.84 37.84 0 010-4.26l.05-.91a6.3 6.3 0 01.61-2.64 5.37 5.37 0 012.03-2.04c.98-.53 2.06-.59 3.6-.68zm5.96 1.99a48.58 48.58 0 00-5.66 0l-.95.06c-1.1.08-1.57.16-2.01.39-.51.29-.93.72-1.22 1.22-.29.55-.34 1.13-.44 2.9a32.1 32.1 0 000 3.67l.04.75c.07 1.2.15 1.68.4 2.14.25.47.76.97 1.22 1.22.56.3 1.29.35 1.29 1.17v.29l.91-.73c.19-.15.43-.23.67-.22.49.02.97.03 1.46.03H12c.85 0 1.84-.04 2.83-.1l.74-.04c1.25-.08 1.76-.16 2.22-.41.51-.29.93-.72 1.22-1.22.29-.55.34-1.13.44-2.9a32.1 32.1 0 000-3.67l-.04-.75c-.07-1.2-.15-1.68-.4-2.14a3.25 3.25 0 00-1.22-1.22c-.55-.29-1.15-.35-2.96-.45zM8.47 6.38a.78.78 0 01.37-.06c.13.01.25.06.35.14.8.58 1.35 1.46 1.83 2.16.1.15.15.34.13.52a.73.73 0 01-.25.47l-.98.72s-.08.08-.09.14c-.01.06 0 .12.02.17.22.4.61 1 1.06 1.45.45.45 1.08.87 1.51 1.11.05.03.12.04.18.02a.25.25 0 00.15-.1l.63-.97a.76.76 0 011.03-.17c.76.53 1.55 1.06 2.13 1.8.08.1.13.23.15.36a.7.7 0 01-.05.38c-.42.97-1.48 1.81-2.58 1.77h-.16c-.83-.07-2.74-.45-4.74-2.44-2.14-2.14-2.42-4.18-2.44-4.9-.04-1.1.8-2.16 1.77-2.58zm4.63 2c.35.12.67.33.94.59.26.26.47.58.59.94a1 1 0 01-.56 1.26c-.24.1-.5.1-.74.02a1.06 1.06 0 01-.55-.49l-.05-.11a.53.53 0 00-.22-.27l-.08-.04c-.25-.09-.45-.27-.57-.51s-.13-.51-.04-.76.27-.45.51-.57a1 1 0 01.76-.04zm-.28-2.22a.98.98 0 01.51-.57c.12-.06.25-.09.38-.1.13 0 .26.01.39.06a5.5 5.5 0 013.36 3.36 1 1 0 01-1.37 1.23.99.99 0 01-.51-.57 3.48 3.48 0 00-2.14-2.14.98.98 0 01-.57-.51 1.02 1.02 0 01-.1-.38c0-.13.01-.26.06-.39z"/></symbol><symbol id="void"><path d="M12 2a10 10 0 110 20 10 10 0 010-20zm0 2a8 8 0 100 16.02A8 8 0 0012 4zM9.88 8.46L12 10.58l2.12-2.12a1.02 1.02 0 01.7-.3 1 1 0 01.7.3 1.02 1.02 0 01.3.7 1 1 0 01-.3.7l-2.12 2.12 2.12 2.12c.19.19.29.44.29.71s-.11.52-.29.71-.44.29-.71.29-.52-.11-.71-.29l-2.12-2.12-2.12 2.12c-.19.19-.44.29-.71.29s-.52-.11-.71-.29-.29-.44-.29-.71.11-.52.29-.71l2.12-2.12-2.12-2.12a.99.99 0 01-.29-.71.99.99 0 011-1c.27 0 .52.11.71.29z"/></symbol><symbol id="wallet"><path fill-rule="evenodd" d="M5 6.5c0-.13.05-.26.15-.35A.5.5 0 015.5 6H16a.99.99 0 001-1 .99.99 0 00-1-1H5.5A2.5 2.5 0 003 6.5V18c0 .53.21 1.04.59 1.41.38.38.88.59 1.41.59h14c.53 0 1.04-.21 1.41-.59.38-.38.59-.88.59-1.41V9c0-.53-.21-1.04-.59-1.41A1.98 1.98 0 0019 7H5.5a.47.47 0 01-.35-.15A.5.5 0 015 6.5zM15.5 15a1.5 1.5 0 100-3 1.5 1.5 0 000 3z"/></symbol></svg>