<svg xmlns="http://www.w3.org/2000/svg" width="126" height="56" viewBox="0 0 126 56"><path d="m99 7.7-9.6 3.7v5.1l6.5-2.5c1.9-.7 3.1-2.5 3.1-4.5V7.7Zm-9.3 35.8h7.6c.2 0 .3-.1.3-.3V17.6c0-.2-.1-.3-.3-.3h-7.6c-.2 0-.3.1-.3.3v25.6c0 .1.1.3.3.3ZM79.4 33v-8.9h5.8c.2 0 .3-.1.3-.3v-6.2c0-.2-.1-.3-.3-.3h-5.8v-4.9c0-.2-.1-.3-.3-.3h-7.8c-.2 0-.3.1-.3.3v21.5c0 9.5 8.7 9.6 11.8 9.6h2.5c.2 0 .3-.1.3-.3v-5.7c0-.2-.1-.3-.3-.3-2.7-.1-5.9-.8-5.9-4.2Zm-73 7c0 1.7-.9 4.1-6 4.2-.2 0-.3.1-.3.3v5.7c0 .2.1.3.3.3h2.5c3.1 0 11.8-.1 11.8-9.6V17.6c0-.2-.1-.3-.3-.3H6.7c-.2 0-.3.1-.3.3V40Zm27.3-6.1c0 2.2-1.3 3.4-3.6 3.4s-3.6-1.3-3.6-3.4V17.6c0-.2-.1-.3-.3-.3h-7.6c-.2 0-.3.1-.3.3v17.2c0 9.6 9 9.7 11.9 9.7s11.9 0 11.9-9.7V17.6c0-.2-.1-.3-.3-.3h-7.6c-.2 0-.3.1-.3.3l-.2 16.3Zm76.7-7.1c0-2.2 1.3-3.4 3.6-3.4s3.6 1.3 3.6 3.4v16.3c0 .2.1.3.3.3h7.6c.2 0 .3-.1.3-.3V25.9c0-9.6-9-9.7-11.9-9.7s-11.9 0-11.9 9.7v17.2c0 .2.1.3.3.3h7.6c.2 0 .3-.1.3-.3l.2-16.3Zm-48.3 1.5c-.2 0-5.1-.9-5.3-1-2.2-.4-3.6-1.1-3.6-2.5 0-.9.7-2.5 3.6-2.5 3.1 0 3.5 1.9 3.5 2.8 0 .2.1.3.3.3h6.7c.2 0 .3-.1.3-.3-.1-3.1-1.7-8.8-11.5-8.8-7.4 0-11.1 3.7-11.1 8.9 0 4 2.6 6.1 6.1 6.9 2.5.6 9.1.7 9.1 3.7 0 .9-.7 2.5-3.6 2.5-3.2 0-3.9-2-4-2.9 0-.2-.2-.3-.3-.3h-7.2c-.2 0-.3.1-.3.3.1 2.5 1.9 9.1 11.7 9.1 7.8 0 11.6-3.5 11.6-8.9.1-3.9-2.5-6.5-6-7.3ZM101.8.1 89.4 4.8v5.1l9.3-3.5c1.9-.7 3.1-2.5 3.1-4.5V.1ZM37.2 53.4h.6v2.5h-1.6v-1h-2.3v1h-1.6v-2.5h.6c.2-.4.3-.9.3-1.6v-2.3h4v3.9Zm-2.7 0h1.1v-2.5h-.8v.9c0 .6-.1 1.2-.3 1.6Zm8.9.8c-.6.5-1.2.8-2.1.8-.8 0-1.5-.3-2.1-.8s-.8-1.2-.8-2 .3-1.5.8-2c.6-.5 1.2-.8 2.1-.8.8 0 1.5.3 2.1.8s.8 1.2.8 2c.1.8-.2 1.4-.8 2Zm-3-1.1c.3.3.6.4 1 .4s.7-.1 1-.4c.3-.3.4-.6.4-.9 0-.4-.1-.7-.4-.9-.3-.3-.6-.4-1-.4s-.7.1-1 .4c-.3.3-.4.6-.4.9.1.4.2.7.4.9Zm7.7 1.9c-.8 0-1.5-.3-2-.8s-.8-1.2-.8-2 .3-1.5.8-2 1.2-.8 2-.8c.5 0 1 .1 1.4.4.4.2.8.6 1 1l-1.4.8c-.1-.2-.2-.3-.4-.4-.2-.1-.4-.2-.6-.2-.4 0-.7.1-.9.4-.2.2-.4.6-.4.9 0 .4.1.7.4.9.2.2.5.4.9.4.2 0 .4-.1.6-.2.2-.1.3-.2.4-.4l1.4.8c-.2.4-.6.7-1 1-.5.1-.9.2-1.4.2Zm7.2-5.5V51H54v3.9h-1.6V51h-1.3v-1.5h4.2Zm4 0H61l-1.6 3.7c-.3.6-.6 1.1-1 1.4-.4.3-1 .4-1.7.4v-1.4c.5 0 .8-.1 1.1-.3L56 49.5h1.6l.9 2.1.8-2.1Zm6.9 0v5.4h-1.6V51h-1.2v3.9h-1.6v-5.4h4.4Zm4.2 0H72v5.4h-1.6v-2h-1.3v2h-1.6v-5.4h1.6v1.9h1.3v-1.9Zm6 5.4-.2-.7h-1.6l-.2.7h-1.7l1.7-5.4h1.8l1.7 5.4h-1.5Zm-1.4-2h.9l-.5-1.7-.4 1.7Zm10.6.5h.6v2.5h-1.6v-1h-2.3v1h-1.6v-2.5h.6c.2-.4.3-.9.3-1.6v-2.3h4v3.9Zm-2.7 0H84v-2.5h-.8v.9c0 .6-.1 1.2-.3 1.6Zm8.9.8c-.6.5-1.2.8-2.1.8-.8 0-1.5-.3-2.1-.8s-.8-1.2-.8-2 .3-1.5.8-2c.6-.5 1.2-.8 2.1-.8.8 0 1.5.3 2.1.8s.8 1.2.8 2c.1.8-.2 1.4-.8 2Zm-3-1.1c.3.3.6.4 1 .4s.7-.1 1-.4.4-.6.4-.9c0-.4-.1-.7-.4-.9-.3-.3-.6-.4-1-.4s-.7.1-1 .4-.4.6-.4.9c.1.4.2.7.4.9Zm7.7 1.9c-.8 0-1.5-.3-2-.8s-.8-1.2-.8-2 .3-1.5.8-2 1.2-.8 2-.8c.5 0 1 .1 1.4.4.4.2.8.6 1 1l-1.4.8c-.1-.2-.2-.3-.4-.4s-.4-.2-.6-.2c-.4 0-.7.1-.9.4s-.4.6-.4.9c0 .4.1.7.4.9s.5.4.9.4c.2 0 .4-.1.6-.2.2-.1.3-.2.4-.4l1.4.8c-.2.4-.6.7-1 1-.5.1-.9.2-1.4.2Zm7.2-5.5V51h-1.3v3.9h-1.6V51h-1.3v-1.5h4.2Zm3.8 5.4-.2-.7h-1.6l-.2.7h-1.7l1.7-5.4h1.8l1.7 5.4h-1.5Zm-1.5-2h.9l-.5-1.7-.4 1.7Zm7.5-.8c.5.3.7.7.7 1.2s-.2.9-.5 1.2-.8.4-1.4.4H110v-5.4h2.2c.6 0 1.1.1 1.4.4.3.3.5.6.5 1.1-.1.5-.2.8-.6 1.1Zm-1.4-1.3h-.5v.7h.6c.2 0 .3-.1.3-.4 0-.1 0-.2-.1-.3h-.3Zm.1 2.8c.1 0 .2 0 .3-.1.1-.1.1-.2.1-.3 0-.2-.1-.3-.3-.4h-.7v.8h.6Zm7.7 1.3h-1.7l-1.4-2.3v2.3h-1.6v-5.4h1.6v2.2l1.3-2.2h1.7l-1.6 2.6 1.7 2.8Zm4.2 0-.2-.7h-1.6l-.2.7h-1.7l1.7-5.4h1.8l1.7 5.4h-1.5Zm-1.4-2h.9l-.5-1.7-.4 1.7Z"/></svg>