<svg xmlns="http://www.w3.org/2000/svg" width="190" height="32" viewBox="0 0 190 32"><path d="M36 27.6h-4.7V11h16.9v16.6h-4.7V14.3H36v13.3zm18.6-6c0-3.4 2.1-4 3.4-4 1.3 0 3.3.7 3.3 4 0 2.1-.9 4.1-3.3 4.1-2.5-.1-3.4-2-3.4-4.1zm-4.1-6V32h4.3v-5.6c1.4 1.6 3.8 1.7 4.4 1.7 4.1 0 6.6-2.6 6.6-6.4s-2.5-6.5-6.6-6.5c-1 0-3 .2-4.7 1.9h-.1v-1.4h-3.9zm26 10.6a6.45 6.45 0 0 1-4.8 1.9c-4.6 0-4.8-3.5-4.8-4.9v-7.5h4.3v7c0 2.4.8 3.1 2.4 3.1 2.7 0 2.9-2.4 2.9-3.3v-6.7h4.3v12h-4.3v-1.6zM87 18h2.3c1.2 0 2.3.2 2.3 1.2 0 1.1-1.6 1.1-2.3 1.1H87V18zm-4.3-2.4v12h8.6c3.1 0 5.3-.6 5.3-3.1 0-1.9-1-2.7-3.4-3.1v-.1c1.6-.2 2.9-1.2 2.9-2.8 0-2.9-3.4-2.9-4.7-2.9h-8.7zm4.3 6.9h2.6c2 0 2.5.6 2.5 1.4 0 .5-.3 1.2-2.4 1.2H87v-2.6zm20 .1c0 2.4-2.1 3-3.2 3-.8 0-2.2-.3-2.2-1.4 0-1.4 1.6-1.6 2.5-1.7 1.7-.2 1.5-.2 2.8-.6v.7zm-5-3.1c0-1.8 1.9-1.9 2.6-1.9.5 0 2.3 0 2.3 1.6v.3c-.1 1.2-1.2 1-4.4 1.4-2.6.4-5.4 1-5.4 3.8 0 1 .4 3.5 5 3.5 1.8 0 3.7-.5 4.8-1.6h.1l.4 1.2h4.5v-.2c-.8-.2-.9-1-.9-2.3l.1-5.5c0-1.4-.1-4.5-6.6-4.5-1.6 0-6.6.1-6.8 4.3l4.3-.1zm9.7-1.5v-2.4h13.9V18h-4.8v9.6h-4.3V18h-4.8zm19.4 2.4h3.9c1.1 0 3.4.1 3.4 2.1 0 1.6-1.6 1.9-3.5 1.9h-3.8v-4zm0-6.1h10.8V11h-15.4v16.6h9.5c4.6 0 7.5-1.6 7.5-5 0-5.3-5.9-5.4-7.5-5.4h-4.8v-2.9zm23 8.3c0 2.4-2.1 3-3.2 3-.8 0-2.2-.3-2.2-1.4 0-1.4 1.6-1.6 2.5-1.7 1.7-.2 1.5-.2 2.8-.6l.1.7zm-5-3.1c0-1.8 1.9-1.9 2.6-1.9.5 0 2.3 0 2.3 1.6v.3c-.1 1.2-1.2 1-4.4 1.4-2.6.4-5.4 1-5.4 3.8 0 1 .4 3.5 5 3.5 1.8 0 3.7-.5 4.8-1.6h.1l.4 1.2h4.5v-.2c-.8-.2-.9-1-.9-2.3l.1-5.5c0-1.4-.1-4.5-6.6-4.5-1.6 0-6.6.1-6.8 4.3l4.3-.1zm15.4 8.1h-4.3v-12h4.3v4.5h5.2v-4.5h4.3v12h-4.3v-5.1h-5.2v5.1zm20.4-12h4.8l-5.9 5.6 6.2 6.4h-5.1l-4.6-5.3h-.1v5.3h-4.3v-12h4.3v4.8h.1l4.6-4.8zM10.8 16.8H0v10.8h10.8V16.8z"/><path d="M0 0v13.5h2.9c7.5 0 11.3 3.8 11.3 11.3v2.9h13.4V0H0zm21.9 5.7v16.2h-2.2c-.9-8-6-13.1-14-14V5.7h16.2z"/></svg>