<svg xmlns="http://www.w3.org/2000/svg" id="a" width="24" height="24" viewBox="0 0 24 24"><path d="M9.5 19.95a1.03 1.03 0 0 1 1.03 1.03 1.03 1.03 0 0 1-1.03 1.03 1.03 1.03 0 0 1-1.03-1.03 1.03 1.03 0 0 1 1.03-1.03Zm7.18 0a1.03 1.03 0 0 1 1.03 1.03 1.03 1.03 0 0 1-1.03 1.03 1.03 1.03 0 0 1-1.03-1.03 1.03 1.03 0 0 1 1.03-1.03ZM2.53 2.41a1.03 1.03 0 0 1 1.33-.28l.11.07 1.75 1.31c.3.22.53.52.67.87l.06.18h13.18a2.06 2.06 0 0 1 2.06 2.16v.15l-.48 3.75a5.1 5.1 0 0 1-4.43 4.45l-.23.02-7.5.63.27 1.15h8.93a1.02 1.02 0 0 1 1.02.97 1.04 1.04 0 0 1-.91 1.08H9.31a2.06 2.06 0 0 1-1.95-1.43l-.04-.16L4.51 5.16 2.76 3.85a1.03 1.03 0 0 1-.21-1.44Z"/></svg>