<svg xmlns="http://www.w3.org/2000/svg" width="24" height="24" viewBox="0 0 24 24"><path d="M18.52 5.5c1.14 0 2.08.88 2.16 2.01v1.24c1.14 0 2.08.88 2.16 2.01v2.33c0 1.14-.88 2.08-2.01 2.16h-.16v1.09c0 1.14-.88 2.08-2.01 2.16H3.33a2.16 2.16 0 0 1-2.16-2.01V7.66c0-1.14.88-2.08 2.01-2.16h15.34Zm0 2.17H3.35v8.67h15.17V7.67Zm-13 1.08c.6 0 1.08.49 1.09 1.09v4.33c0 .6-.49 1.08-1.09 1.09a1.1 1.1 0 0 1-1.09-1.09V9.84c0-.6.49-1.08 1.09-1.09Zm3.25 0c.27 0 .52.1.72.27.2.18.32.42.36.68v4.46c0 .28-.11.54-.3.74-.19.2-.45.32-.72.34a1.09 1.09 0 0 1-1.14-.95V9.83c0-.6.49-1.08 1.09-1.09Zm3.25 0c.6 0 1.08.49 1.09 1.09v4.33c0 .29-.11.56-.32.77-.21.21-.48.32-.77.32s-.56-.11-.77-.32a1.1 1.1 0 0 1-.32-.77V9.84c0-.6.49-1.08 1.09-1.09Zm3.25 0c.27 0 .52.1.72.27.2.18.32.42.36.68v4.46c0 .28-.11.54-.3.74-.19.2-.45.32-.72.34a1.09 1.09 0 0 1-1.14-.95V9.83c0-.6.49-1.08 1.09-1.09h-.01Z"/></svg>