<svg id="a" xmlns="http://www.w3.org/2000/svg" width="32" height="32" viewBox="0 0 32 32"><path d="m27.22,22.27h3.19c.42,0,.83-.17,1.13-.47.3-.3.47-.71.47-1.13v-1.96c0-.42-.17-.83-.47-1.13-.3-.3-.71-.47-1.13-.47h-3.18v-1.84h3.18c.21,0,.42-.04.61-.12.19-.08.37-.2.52-.35.15-.15.27-.33.35-.52.08-.19.12-.4.12-.61v-1.96c0-.42-.17-.83-.47-1.13-.3-.3-.7-.47-1.13-.47h-3.18v-.3c0-.33-.07-.65-.19-.95-.13-.3-.31-.57-.54-.8-.23-.23-.5-.41-.8-.53-.3-.12-.62-.19-.95-.18h-1.95v17.33h1.95c.64,0,1.26-.24,1.73-.69.46-.45.73-1.06.75-1.7Z"/><path d="m2.46,7.33c-.65,0-1.28.26-1.74.72-.46.46-.72,1.09-.72,1.75v12.4c0,.65.26,1.28.72,1.75.46.46,1.09.72,1.74.72h18.86V7.33H2.46Zm9.48,6.48l6.25,1.48c.18.05.33.17.43.34.09.16.12.36.08.54-.04.18-.15.34-.31.45-.16.1-.35.14-.53.11l-4.63-1.1,1.03,1.87c.07.13.1.27.09.42-.01.14-.06.28-.15.4-.09.11-.21.2-.35.25-.14.05-.29.05-.42.01l-6.99-1.84c-.16-.04-.3-.13-.39-.26s-.15-.29-.15-.45c0-.06,0-.13.02-.19.02-.09.07-.18.13-.26.06-.08.13-.14.22-.19.08-.05.18-.08.27-.09.1-.01.19,0,.29.02l5.32,1.4-1-1.81c-.07-.13-.1-.27-.09-.41s.06-.28.15-.39c.09-.11.2-.2.34-.25s.28-.06.42-.02h0Z"/></svg>
