<svg xmlns="http://www.w3.org/2000/svg" id="a" width="24" height="24" viewBox="0 0 24 24"><path fill-rule="evenodd" d="M12.27 3.66c-.08-.05-.18-.07-.27-.07s-.19.03-.27.07L5.72 7.13l1.96 1.13 6.28-3.62-1.7-.98Zm3.87 2.23L9.86 9.51l1.87 1.08c.08.05.18.07.27.07s.19-.03.27-.07l6.01-3.47-2.14-1.24ZM19.36 9l-6.01 3.47-.27.14v7.27l6.01-3.47a.64.64 0 0 0 .2-.2.52.52 0 0 0 .07-.27V9Zm-8.44 10.87V12.6l-.27-.14-6.01-3.47v6.94c0 .1.03.19.07.27.05.08.12.15.2.2l6.01 3.47Zm-.27-18.09a2.68 2.68 0 0 1 2.7 0l6.82 3.94a2.68 2.68 0 0 1 1.35 2.34v7.87c0 .48-.13.94-.36 1.35-.24.41-.58.75-.99.99l-6.82 3.94a2.68 2.68 0 0 1-2.7 0l-6.82-3.94a2.68 2.68 0 0 1-1.35-2.34V8.06c0-.48.13-.94.36-1.35.24-.41.58-.75.99-.99l6.82-3.94Z"/></svg>