<svg xmlns="http://www.w3.org/2000/svg" id="a" width="24" height="24" viewBox="0 0 24 24"><path fill-rule="evenodd" d="M12 1.5a1.03 1.03 0 0 1 .81.39l2.1 2.62a1.04 1.04 0 0 1 .12 1.11c-.09.18-.22.33-.39.43-.17.11-.36.16-.56.16h-1.05v6.7l3.15-1.57v-.4c-.28 0-.55-.11-.74-.31-.2-.2-.31-.46-.31-.74v-2.1c0-.28.11-.55.31-.74.2-.2.46-.31.74-.31h2.1c.28 0 .55.11.74.31.2.2.31.46.31.74v2.1c0 .28-.11.55-.31.74-.2.2-.46.31-.74.31v.4a2.1 2.1 0 0 1-1.16 1.87l-3.51 1.75c-.17.09-.32.22-.42.39-.1.17-.16.36-.16.55v.46a3.14 3.14 0 0 1-.78 6.11 3.12 3.12 0 0 1-3.19-4.32c.27-.67.76-1.23 1.38-1.58l-3.6-1.8a2.1 2.1 0 0 1-1.16-1.87v-1.21a2.09 2.09 0 0 1 1.05-3.91 2.1 2.1 0 0 1 1.05 3.91v1.21l3.15 1.57V6.22H9.88c-.2 0-.39-.06-.56-.16a1.03 1.03 0 0 1-.27-1.54l2.1-2.62a1.02 1.02 0 0 1 .81-.39Zm0 16.8c-.28 0-.55.11-.74.31a1.04 1.04 0 0 0 0 1.48 1.04 1.04 0 0 0 1.48 0 1.04 1.04 0 0 0 0-1.48c-.2-.2-.46-.31-.74-.31Z"/></svg>