<svg xmlns="http://www.w3.org/2000/svg" width="24" height="24" viewBox="0 0 24 24"><path fill="#277dff" fill-rule="evenodd" d="M12.41 4.65c-.08-.17-.1-.35-.08-.53a.93.93 0 0 1 .21-.5 1 1 0 0 1 .97-.37 8.98 8.98 0 0 1 7.4 9.66 9.02 9.02 0 0 1-8.97 8.21 9 9 0 0 1-8.86-7.43 1.1 1.1 0 0 1 .05-.54c.07-.17.18-.32.32-.43.14-.11.32-.18.5-.21.18-.02.37 0 .53.08a5.99 5.99 0 0 0 7.93-7.93Zm2.4 1.07a7.97 7.97 0 0 1-5.47 9.01 7.99 7.99 0 0 1-3.79.25 7 7 0 1 0 9.27-9.26Zm-9.32 2.1.06.14c.27.56.7 1.04 1.24 1.36l.1.06.03.02v.06c0 .01-.01.02-.03.02l-.1.06c-.53.33-.96.8-1.24 1.36l-.06.14-.03.03-.04.01-.04-.01-.03-.03-.06-.14a3.2 3.2 0 0 0-1.24-1.36l-.1-.06-.03-.02V9.4c0-.01.01-.02.03-.02l.1-.06c.53-.33.96-.8 1.24-1.36l.06-.14.03-.03.04-.01.04.01.03.03Zm2.83-4.86a.12.12 0 0 1 .21 0l.1.22c.43.9 1.12 1.65 1.97 2.17l.16.09.04.04.01.05-.01.05-.04.04-.16.09a5.18 5.18 0 0 0-2.11 2.44l-.06.02c-.02 0-.04 0-.06-.02l-.04-.05-.1-.22a5.16 5.16 0 0 0-1.97-2.17l-.16-.09-.04-.04-.01-.05.01-.05c0-.02.02-.03.04-.04l.16-.09a5.16 5.16 0 0 0 1.97-2.17l.1-.22Z"/></svg>