<svg xmlns="http://www.w3.org/2000/svg" width="24" height="24" viewBox="0 0 24 24"><path d="M12 2a10 10 0 1 1 0 20 10 10 0 0 1 0-20Zm0 2a8 8 0 1 0 0 16.02A8 8 0 0 0 12 4Zm0 12c.27 0 .52.11.71.29s.29.44.29.71-.11.52-.29.71-.44.29-.71.29-.52-.11-.71-.29S11 17.27 11 17s.11-.52.29-.71.44-.29.71-.29Zm0-9.5a3.62 3.62 0 0 1 1.35 6.99.7.7 0 0 0-.3.2c-.04.05-.05.11-.05.18V14a1 1 0 0 1-.27.69.94.94 0 0 1-.67.31c-.25.01-.51-.07-.7-.23a.98.98 0 0 1-.35-.65v-.37c0-1.15.93-1.85 1.6-2.12a1.63 1.63 0 0 0 .87-2.2 1.61 1.61 0 0 0-3.09.69.99.99 0 0 1-1 1 .99.99 0 0 1-1-1 3.62 3.62 0 0 1 3.62-3.62Z"/></svg>