<svg xmlns="http://www.w3.org/2000/svg" width="24" height="24" viewBox="0 0 24 24"><path d="M19.88 16c.55 0 1-.45 1-1s-.45-1-1-1h-3a1 1 0 0 0-1 1v5.25c0 .55.45 1 1 1s1-.45 1-1V19h1.25c.55 0 1-.45 1-1s-.45-1-1-1h-1.25v-1zm-13.38.87a.9.9 0 0 0-.88-.88h-.5v1.75h.5q.36 0 .62-.26a1 1 0 0 0 .26-.62Zm2 0a2.87 2.87 0 0 1-2.59 2.86h-.28l-.5.01v.5c0 .55-.45 1-1 1s-1-.45-1-1v-5.25a1 1 0 0 1 1-1h1.5a2.87 2.87 0 0 1 2.87 2.87Zm4.75.75q0-.66-.48-1.15c-.3-.3-.72-.48-1.15-.48h-.5v3.25h.5q.67 0 1.15-.48c.3-.3.48-.72.48-1.15Zm2 0a3.6 3.6 0 0 1-3.62 3.62h-1.5a1 1 0 0 1-1-1v-5.25a1 1 0 0 1 1-1h1.5a3.6 3.6 0 0 1 3.62 3.62Zm4.8-9a1 1 0 0 0-.22-.32l-5.25-5.25a1 1 0 0 0-.3-.2l-.11-.03-.2-.06h-9.1a1.76 1.76 0 0 0-1.75 1.75v6.75c0 .55.45 1 1 1s1-.45 1-1v-6.5h7.75v4.25a1 1 0 0 0 1 1h4.25v1.25c0 .55.45 1 1 1s1-.45 1-1V9.01a1 1 0 0 0-.08-.38Zm-5.17-2.45 1.84 1.84h-1.84z"/></svg>