<svg xmlns="http://www.w3.org/2000/svg" width="32" height="32" viewBox="0 0 32 32"><path d="M22.67 5.33c1.47 0 2.61 1.12 3.45 2.33l.28.43.26.43.24.41a28.9 28.9 0 0 1 2.57 6.75c.6 2.4.93 4.91.72 6.88-.21 1.98-1.23 4.11-3.51 4.11-2.05 0-3.66-1.09-4.97-2.16l-1.48-1.24c-1.23-1.01-2.58-1.93-4.22-1.93s-2.99.92-4.22 1.93l-1.48 1.24C9 25.58 7.39 26.67 5.34 26.67c-2.28 0-3.3-2.13-3.51-4.11-.21-1.97.12-4.48.72-6.88.6-2.42 1.52-4.87 2.57-6.75l.24-.41.26-.43.28-.43c.84-1.21 1.97-2.33 3.45-2.33.68 0 1.36.17 2.02.36l.79.24.39.11c1.15.33 2.33.62 3.47.62s2.31-.29 3.47-.62l1.18-.36c.66-.2 1.34-.36 2.02-.36Zm-11.33 5.33a3.34 3.34 0 1 0 0 6.68 3.34 3.34 0 0 0 0-6.68Zm9.33 0a1.33 1.33 0 0 0-1.33 1.33v.67h-.67a1.33 1.33 0 0 0 0 2.66h.67v.67a1.33 1.33 0 0 0 2.66 0v-.67h.67a1.33 1.33 0 0 0 0-2.66H22v-.67a1.33 1.33 0 0 0-1.33-1.33Zm-9.33 2.67c.18 0 .35.07.47.2s.2.29.2.47-.07.35-.2.47-.29.2-.47.2-.35-.07-.47-.2-.2-.29-.2-.47.07-.35.2-.47.29-.2.47-.2Z"/></svg>