<svg xmlns="http://www.w3.org/2000/svg" width="24" height="24" viewBox="0 0 24 24"><path d="M16 18.5H7.88a1 1 0 0 0-.57 1.73c.19.17.43.27.69.27h8.12a1 1 0 0 0 .57-1.73 1.03 1.03 0 0 0-.69-.27Zm5.99-13.15c-.04-.5-.26-.97-.63-1.32A2.02 2.02 0 0 0 20 3.5H3.85A2.02 2.02 0 0 0 2 5.5v10.15c.04.5.27.97.64 1.32s.86.53 1.36.53h16.15a2.02 2.02 0 0 0 1.85-2V5.35ZM20 15.5H4v-10h16v10Z"/><path d="M10 11.5h1v1c0 .55.45 1 1 1s1-.45 1-1v-1h1c.55 0 1-.45 1-1s-.45-1-1-1h-1v-1c0-.55-.45-1-1-1s-1 .45-1 1v1h-1c-.55 0-1 .45-1 1s.45 1 1 1Z"/></svg>