<svg xmlns="http://www.w3.org/2000/svg" width="24" height="24" viewBox="0 0 24 24"><path fill-rule="evenodd" d="M10.95 4.45a6.5 6.5 0 1 0 0 13.02 6.5 6.5 0 0 0 0-13.02Zm-8.5 6.5a8.41 8.41 0 0 1 3.58-6.93 8.4 8.4 0 0 1 7.71-1.11 8.44 8.44 0 0 1 5.37 5.64 8.6 8.6 0 0 1-1.48 7.65l3.65 3.65c.18.19.28.44.28.7 0 .26-.11.51-.29.7s-.44.29-.7.29c-.26 0-.51-.1-.7-.28l-3.65-3.65a8.55 8.55 0 0 1-8.98.98 8.48 8.48 0 0 1-4.79-7.65Zm7.5-3.5a.99.99 0 0 1 1-1 4.47 4.47 0 0 1 4.5 4.5.99.99 0 0 1-1 1 .99.99 0 0 1-1-1 2.5 2.5 0 0 0-2.5-2.5.99.99 0 0 1-1-1Z"/></svg>