<svg xmlns="http://www.w3.org/2000/svg" width="24" height="24" fill="none" viewBox="0 0 24 24"><path fill="#FFBA08" d="M12 19a1 1 0 0 1 1 1v1a1 1 0 1 1-2 0v-1a1 1 0 0 1 1-1Zm6.36-2.05.71.7a1 1 0 0 1-1.41 1.42l-.71-.7a1 1 0 0 1 1.41-1.42Zm-12.72 0a1 1 0 0 1 1.5 1.32l-.09.1-.7.7a1 1 0 0 1-1.5-1.32l.08-.1.7-.7ZM12 6a6 6 0 1 1 0 12 6 6 0 0 1 0-12Zm0 2a4 4 0 1 0 0 8 4 4 0 0 0 0-8Zm-8 3a1 1 0 0 1 .12 2H3a1 1 0 0 1-.12-2H4Zm17 0a1 1 0 0 1 0 2h-1a1 1 0 0 1 0-2h1ZM4.93 4.93a1 1 0 0 1 1.32-.08l.1.08.7.7a1 1 0 0 1-1.32 1.5l-.1-.08-.7-.7a1 1 0 0 1 0-1.42Zm14.14 0a1 1 0 0 1 0 1.41l-.7.71a1 1 0 1 1-1.42-1.41l.7-.71a1 1 0 0 1 1.42 0ZM12 2a1 1 0 0 1 1 1v1a1 1 0 1 1-2 0V3a1 1 0 0 1 1-1Z"/></svg>