<svg xmlns="http://www.w3.org/2000/svg" width="24" height="24" viewBox="0 0 24 24"><path d="M18 3a3 3 0 0 1 3 3v12a3 3 0 0 1-3 3H6a3 3 0 0 1-3-3V6a3 3 0 0 1 3-3h12Zm0 2H6a1 1 0 0 0-1 1v12a1 1 0 0 0 1 1h12a1 1 0 0 0 1-1V6a1 1 0 0 0-1-1ZM8 10a1 1 0 0 1 1 .88V16a1 1 0 0 1-2 .12V11a1 1 0 0 1 1-1Zm3-1a1 1 0 0 1 .98.82c.2-.12.41-.22.63-.31a3.9 3.9 0 0 1 2.57-.16 2.54 2.54 0 0 1 1.81 2.43L17 12v4a1 1 0 0 1-2 .12V12c0-.33-.08-.48-.13-.55a.55.55 0 0 0-.3-.2 1.9 1.9 0 0 0-1.18.1c-.5.21-.96.55-1.27.86l-.12.13V16a1 1 0 0 1-2 .12V10a1 1 0 0 1 1-1ZM8 7a1 1 0 1 1 0 2 1 1 0 0 1 0-2Z"/></svg>