<?xml version="1.0" encoding="UTF-8"?><svg id="a" xmlns="http://www.w3.org/2000/svg" width="24" height="24" viewBox="0 0 24 24"><path d="m9.59,15.49c.53,0,1.04.21,1.41.59l1,1,1-1c.37-.38.88-.59,1.41-.59h4.02c.67,0,1.32.22,1.85.64.53.41.9.99,1.06,1.64l.62,2.49c.03.13.04.26.03.39-.02.13-.06.26-.13.37-.07.11-.16.21-.26.29-.11.08-.23.14-.36.17-.13.03-.26.04-.39.02-.13-.02-.26-.07-.37-.14-.11-.07-.21-.16-.29-.27-.08-.11-.13-.23-.16-.36l-.62-2.49c-.05-.22-.18-.41-.35-.55-.18-.14-.39-.21-.62-.21h-4.02l-1,1c-.38.37-.88.59-1.41.59s-1.04-.21-1.41-.59l-1-1h-4.02c-.22,0-.44.07-.62.21-.18.14-.3.33-.35.55l-.62,2.49c-.03.13-.09.25-.16.36-.08.11-.18.2-.29.27-.11.07-.24.12-.37.14-.13.02-.27.01-.39-.02-.13-.03-.25-.09-.36-.17-.11-.08-.2-.18-.26-.29-.07-.11-.11-.24-.13-.37-.02-.13,0-.27.03-.39l.62-2.49c.16-.65.54-1.22,1.06-1.64.53-.41,1.18-.64,1.85-.64h4.03Zm2.41-13c.78,0,1.66.19,2.38.39,1.66.46,2.62,2.02,2.62,3.61v4.01c0,1.59-.96,3.14-2.62,3.61-.72.2-1.6.39-2.38.39s-1.66-.19-2.38-.39c-1.66-.46-2.62-2.02-2.62-3.61v-4.01c0-1.59.96-3.14,2.62-3.61.72-.2,1.6-.39,2.38-.39Zm0,2c-.51,0-1.18.13-1.84.32-.67.19-1.16.85-1.16,1.68v4.01c0,.83.49,1.49,1.16,1.68.67.19,1.33.32,1.84.32s1.18-.13,1.84-.32c.67-.19,1.16-.85,1.16-1.68v-4.01c0-.83-.49-1.49-1.16-1.68-.67-.18-1.33-.32-1.84-.32Z" fill-rule="evenodd" stroke-width="0"/></svg>