<svg id="a" xmlns="http://www.w3.org/2000/svg" width="32" height="32" viewBox="0 0 32 32"><path d="m9.33,9.33c0-1.26.36-2.5,1.03-3.56.67-1.07,1.64-1.92,2.78-2.46,1.14-.54,2.41-.75,3.66-.59,1.25.15,2.44.66,3.41,1.45.98.8,1.71,1.86,2.11,3.05.4,1.2.45,2.48.15,3.71-.3,1.22-.95,2.34-1.85,3.21-.91.87-2.05,1.47-3.28,1.72v6.8c0,.35-.14.69-.39.94-.25.25-.59.39-.94.39s-.69-.14-.94-.39c-.25-.25-.39-.59-.39-.94v-6.8c-1.51-.31-2.86-1.13-3.83-2.32-.97-1.19-1.5-2.68-1.5-4.22Zm3.32,12.13c.03.17.02.35-.02.52-.04.17-.12.33-.22.47-.1.14-.23.26-.38.35-.15.09-.32.15-.49.18-1.7.26-3.06.65-3.95,1.09-.45.22-.71.42-.85.56,0,.01-.02.02-.03.03.04.05.12.13.25.23.37.28,1,.58,1.89.86,1.77.55,4.3.92,7.15.92s5.38-.36,7.15-.92c.89-.28,1.52-.58,1.89-.86.13-.1.21-.17.25-.23,0-.01-.02-.02-.03-.03-.14-.15-.4-.34-.85-.56-.89-.43-2.24-.83-3.95-1.09-.18-.02-.34-.08-.5-.17-.15-.09-.29-.21-.39-.35-.11-.14-.18-.3-.23-.47-.04-.17-.05-.35-.02-.52.03-.17.09-.34.18-.49.09-.15.21-.28.36-.39.14-.1.31-.18.48-.22.17-.04.35-.05.52-.02,1.85.28,3.5.73,4.72,1.33.61.3,1.18.67,1.61,1.12.44.46.8,1.09.8,1.87,0,1.08-.7,1.87-1.38,2.37-.71.52-1.64.94-2.68,1.26-2.09.65-4.9,1.04-7.94,1.04s-5.85-.38-7.94-1.04c-1.04-.32-1.97-.74-2.68-1.26-.68-.5-1.38-1.29-1.38-2.37,0-.77.36-1.4.8-1.87.43-.46,1-.82,1.61-1.12,1.22-.6,2.87-1.05,4.72-1.33.17-.03.35-.02.52.02.17.04.33.12.47.22.14.1.26.23.35.38.09.15.15.31.18.49Z" fill-rule="evenodd"/></svg>
