<svg xmlns="http://www.w3.org/2000/svg" width="24" height="24" viewBox="0 0 24 24"><path fill-rule="evenodd" d="M7 7a5.03 5.03 0 0 1 2.85-4.51A5 5 0 1 1 13 11.9V17c0 .27-.11.52-.29.71s-.44.29-.71.29-.52-.11-.71-.29S11 17.27 11 17v-5.1A4.99 4.99 0 0 1 7 7Zm2.49 9.1c.02.13.01.26-.02.39a.88.88 0 0 1-.17.35.9.9 0 0 1-.29.26.96.96 0 0 1-.37.13c-1.28.19-2.29.49-2.96.82-.34.16-.53.31-.64.42l-.02.02c.03.04.09.1.19.17.28.21.75.44 1.42.64 1.33.41 3.22.69 5.36.69s4.03-.27 5.36-.69a5.22 5.22 0 0 0 1.42-.64c.1-.07.16-.13.19-.17l-.02-.02c-.1-.11-.3-.26-.64-.42-.67-.33-1.68-.62-2.96-.82a.96.96 0 0 1-.37-.13 1 1 0 0 1-.48-1.01c.02-.13.07-.26.13-.37a.97.97 0 0 1 .63-.45c.13-.03.26-.03.39-.01 1.39.21 2.62.55 3.54 1 .46.22.88.5 1.21.84.33.35.6.82.6 1.4 0 .81-.52 1.4-1.03 1.78-.53.39-1.23.7-2.01.95-1.57.49-3.67.78-5.96.78s-4.39-.29-5.95-.78a6.58 6.58 0 0 1-2.01-.95C3.52 19.9 3 19.31 3 18.5c0-.58.27-1.05.6-1.4.33-.34.75-.62 1.21-.84.92-.45 2.15-.79 3.54-1 .13-.02.26-.01.39.02s.25.09.35.17c.11.08.2.18.26.29.07.11.11.24.13.37Z"/></svg>