<svg xmlns="http://www.w3.org/2000/svg" width="24" height="24" viewBox="0 0 24 24"><path d="M12 2a10 10 0 1 1-4.86 18.74l-.31-.18-3.03.89a1.1 1.1 0 0 1-.51.02 1.07 1.07 0 0 1-.45-.23.92.92 0 0 1-.28-.42.98.98 0 0 1-.04-.51l.03-.11.89-3.03A10 10 0 0 1 12 2Zm0 2a7.98 7.98 0 0 0-6.76 12.28c.2.31.28.7.22 1.08l-.04.16-.44 1.5 1.5-.44a1.5 1.5 0 0 1 1.24.18 7.93 7.93 0 0 0 10.15-1.33 8.09 8.09 0 0 0 2-6.87 8 8 0 0 0-7.86-6.55ZM9.79 9.79a1 1 0 0 1 1.32-.08l.09.08 2.29 2.29 2.29-2.29a1 1 0 0 1 1.37-.04c.19.17.31.4.33.66s-.05.51-.2.71l-.08.09-3 3c-.17.17-.4.28-.64.29s-.48-.06-.68-.21l-.09-.08-2.29-2.29-2.29 2.29a1 1 0 0 1-1.37.04c-.19-.17-.31-.4-.33-.66s.05-.51.2-.71l.08-.09 3-3Z"/></svg>