<svg xmlns="http://www.w3.org/2000/svg" width="24" height="24" viewBox="0 0 24 24"><circle cx="8.62" cy="12" r="1.12"/><circle cx="15.38" cy="12" r="1.12"/><path d="M14.1 14.9a4 4 0 0 1-4.2 0 1 1 0 0 0-1.06 1.7 6 6 0 0 0 6.3 0 1 1 0 0 0-1.06-1.7Z"/><path d="M12 2a10 10 0 1 0 0 20 10 10 0 0 0 0-20m0 18a8 8 0 0 1-1.89-15.77 8 8 0 0 0-.58 2.08l-.03.3v.14h.67-.67a2.5 2.5 0 1 0 5 0c0-.55-.45-1-1-1s-1 .45-1 1q0 .2-.15.35c-.15.15-.22.15-.35.15s-.26-.05-.35-.15-.15-.22-.15-.35v-.03l.01-.18q.03-.25.14-.71c.13-.5.39-1.14.84-1.81 4.19.26 7.5 3.72 7.5 7.97s-3.58 8-8 8Z"/></svg>