<svg xmlns="http://www.w3.org/2000/svg" width="24" height="24" viewBox="0 0 24 24"><path d="M7.01 2.29c1.26.92 2.22 2.22 3.03 3.4l.64.94a1.51 1.51 0 0 1-.17 1.91L9.15 9.9l.14.3c.35.71.95 1.73 1.86 2.64.63.62 1.34 1.15 2.1 1.58l.37.2.33.16.15.07 1.35-1.36a1.51 1.51 0 0 1 1.92-.17l1.01.7c1.15.81 2.35 1.73 3.29 2.93a1.45 1.45 0 0 1 .19 1.49c-.84 1.95-2.95 3.62-5.16 3.53l-.3-.02-.23-.02-.26-.03-.28-.04-.3-.05-.33-.06-.35-.08-.37-.09-.39-.11-.4-.13a17.19 17.19 0 0 1-6.59-4.26 17.26 17.26 0 0 1-4.26-6.59l-.13-.4-.11-.38-.09-.37-.08-.35-.06-.33-.05-.31-.04-.28-.03-.26-.02-.23-.02-.3c-.08-2.2 1.6-4.33 3.54-5.16a1.44 1.44 0 0 1 1.44.16ZM6.08 4.1c-1.07.56-2.11 1.84-2.06 3.12l.02.33.02.2.03.23.04.25.05.28.07.3.08.32.1.34.11.36.13.37.15.39L5 11c.63 1.38 1.65 3 3.32 4.67A16.1 16.1 0 0 0 12.99 19l.41.18.39.15.38.13.36.11.34.1.32.08.3.07.28.05.25.04.23.03.2.02.33.02c1.26.05 2.55-.99 3.11-2.04-.71-.83-1.6-1.52-2.57-2.21l-.75-.52-.19.2-.41.44-.22.23c-.59.6-1.27 1.1-2.09.77l-.23-.1-.28-.12-.15-.07-.34-.17-.37-.2c-.94-.52-1.8-1.17-2.57-1.92-.75-.76-1.4-1.63-1.93-2.57l-.2-.37-.17-.34-.2-.43-.1-.23c-.31-.77.12-1.42.66-1.98L8 8.13l.56-.51.2-.19-.47-.69a12.17 12.17 0 0 0-2.24-2.63Zm9.06 1.79h.12a3.59 3.59 0 0 1 2.86 2.97 1 1 0 0 1-.79 1.12c-.25.05-.51 0-.73-.13a1.03 1.03 0 0 1-.44-.6l-.02-.11a1.5 1.5 0 0 0-1.07-1.23l-.16-.03a1 1 0 0 1 .23-1.98Zm0-3.04a5.97 5.97 0 0 1 6 6c0 .25-.1.5-.27.69a.94.94 0 0 1-.67.31c-.25.01-.51-.07-.7-.23a.98.98 0 0 1-.35-.65v-.12a4 4 0 0 0-3.75-3.99h-.26a1 1 0 0 1-1-1.01.99.99 0 0 1 1-1Z"/></svg>