<svg xmlns="http://www.w3.org/2000/svg" width="24" height="24" viewBox="0 0 24 24"><path fill-rule="evenodd" d="M9.82 6.4c.08.11.14.22.17.35a1.03 1.03 0 0 1-.11.76 1.2 1.2 0 0 1-.26.29 9.8 9.8 0 0 0-2.97 3.31 3.53 3.53 0 0 1 3.79 1.45 3.47 3.47 0 0 1-.13 4.06 3.44 3.44 0 0 1-1.75 1.22 3.55 3.55 0 0 1-3.86-1.27 3.5 3.5 0 0 1-.68-2.02 7.54 7.54 0 0 1 .51-3.61c.6-1.51 1.76-3.15 3.89-4.74a.95.95 0 0 1 .35-.17 1.03 1.03 0 0 1 .76.11c.11.07.21.16.29.26Zm7.6-.2a.95.95 0 0 1 .35-.17 1.03 1.03 0 0 1 .76.11c.11.07.21.16.29.26.08.11.14.22.17.35a1.03 1.03 0 0 1-.11.76 1.2 1.2 0 0 1-.26.29 9.8 9.8 0 0 0-2.97 3.31 3.53 3.53 0 0 1 3.79 1.45 3.47 3.47 0 0 1-.13 4.06 3.44 3.44 0 0 1-1.75 1.22 3.55 3.55 0 0 1-3.86-1.27 3.5 3.5 0 0 1-.68-2.02 7.54 7.54 0 0 1 .51-3.61c.6-1.51 1.76-3.15 3.89-4.74ZM7.52 13a1.52 1.52 0 0 0-1.5 1.35v.16a1.47 1.47 0 0 0 .93 1.38A1.52 1.52 0 0 0 9 14.79 1.5 1.5 0 0 0 7.53 13Zm9 0a1.52 1.52 0 0 0-1.5 1.35v.16a1.47 1.47 0 0 0 .93 1.38 1.52 1.52 0 0 0 2.05-1.1A1.5 1.5 0 0 0 16.53 13Z"/></svg>