<?xml version="1.0" encoding="UTF-8"?><svg id="a" xmlns="http://www.w3.org/2000/svg" width="24" height="24" viewBox="0 0 24 24"><path d="m17,2c.53,0,1.04.21,1.41.59.38.38.59.88.59,1.41v16c.27,0,.52.11.71.29s.29.44.29.71-.11.52-.29.71-.44.29-.71.29H5c-.27,0-.52-.11-.71-.29-.19-.19-.29-.44-.29-.71s.11-.52.29-.71c.19-.19.44-.29.71-.29V4c0-.53.21-1.04.59-1.41.38-.38.88-.59,1.41-.59h10Zm0,2H7v16h2v-5.5c0-.37.14-.73.39-1.01s.6-.45.97-.48h.14s3,0,3,0c.37,0,.73.14,1.01.39s.45.6.48.97v.14s0,5.5,0,5.5h2V4Zm-4,11h-2v5h2v-5Zm-3-6c.27,0,.52.11.71.29.19.19.29.44.29.71s-.11.52-.29.71-.44.29-.71.29-.52-.11-.71-.29c-.19-.19-.29-.44-.29-.71s.11-.52.29-.71c.19-.19.44-.29.71-.29Zm4,0c.27,0,.52.11.71.29.19.19.29.44.29.71s-.11.52-.29.71-.44.29-.71.29-.52-.11-.71-.29-.29-.44-.29-.71.11-.52.29-.71c.19-.19.44-.29.71-.29Zm-4-3c.27,0,.52.11.71.29.19.19.29.44.29.71s-.11.52-.29.71c-.19.19-.44.29-.71.29s-.52-.11-.71-.29c-.19-.19-.29-.44-.29-.71s.11-.52.29-.71c.19-.19.44-.29.71-.29Zm4,0c.27,0,.52.11.71.29.19.19.29.44.29.71s-.11.52-.29.71c-.19.19-.44.29-.71.29s-.52-.11-.71-.29c-.19-.19-.29-.44-.29-.71s.11-.52.29-.71c.19-.19.44-.29.71-.29Z" stroke-width="0"/></svg>