<svg xmlns="http://www.w3.org/2000/svg" width="24" height="24" viewBox="0 0 24 24"><path fill-rule="evenodd" d="M14.41 2.3c.97.23 1.9.62 2.75 1.13a1 1 0 0 1 .47 1.02c-.11.69.06 1.22.38 1.54.32.32.85.5 1.54.38a1 1 0 0 1 1.02.47c.51.85.9 1.78 1.14 2.75a1 1 0 0 1-.39 1.05c-.57.4-.82.9-.82 1.36 0 .45.25.95.82 1.36a1 1 0 0 1 .39 1.05c-.24.97-.63 1.9-1.14 2.75a1 1 0 0 1-1.02.47c-.7-.11-1.22.06-1.54.38-.32.32-.5.85-.38 1.54a1 1 0 0 1-.47 1.02c-.85.51-1.78.9-2.75 1.14a1 1 0 0 1-1.05-.4c-.41-.56-.9-.81-1.36-.81-.46 0-.95.25-1.36.82a1 1 0 0 1-1.05.39 9.95 9.95 0 0 1-2.75-1.14 1 1 0 0 1-.47-1.02c.11-.7-.06-1.22-.38-1.54-.32-.32-.85-.5-1.54-.38a1 1 0 0 1-1.02-.47A9.95 9.95 0 0 1 2.3 14.4a1 1 0 0 1 .4-1.06c.56-.4.81-.9.81-1.35 0-.46-.25-.95-.82-1.36A1 1 0 0 1 2.3 9.6c.24-.97.63-1.9 1.14-2.75a1 1 0 0 1 1.02-.47c.7.11 1.22-.06 1.54-.38.32-.32.5-.85.38-1.54a1 1 0 0 1 .47-1.02c.85-.51 1.78-.9 2.75-1.14a1 1 0 0 1 1.05.39c.41.57.9.82 1.36.82.46 0 .95-.25 1.36-.82a1 1 0 0 1 1.05-.39Zm.1 2.1A3.54 3.54 0 0 1 12 5.5c-1 0-1.86-.44-2.51-1.1-.37.12-.74.27-1.09.45 0 .93-.3 1.85-1 2.55-.7.7-1.62 1-2.55 1-.17.35-.32.71-.45 1.09.66.65 1.1 1.52 1.1 2.5 0 1-.44 1.86-1.1 2.52.13.37.28.74.45 1.09.93 0 1.85.3 2.55 1 .7.7 1 1.62 1 2.55.35.17.71.32 1.09.45A3.53 3.53 0 0 1 12 18.5c1 0 1.86.44 2.51 1.1.37-.13.74-.28 1.09-.45 0-.93.3-1.85 1-2.56.7-.7 1.62-1 2.55-1 .17-.34.32-.7.45-1.08A3.53 3.53 0 0 1 18.5 12c0-1 .44-1.86 1.1-2.51a7.95 7.95 0 0 0-.45-1.09c-.93 0-1.85-.3-2.55-1-.7-.7-1-1.62-1-2.55a7.94 7.94 0 0 0-1.09-.45ZM12 8a4 4 0 1 1 0 8 4 4 0 0 1 0-8Zm0 2a2 2 0 1 0 0 4 2 2 0 0 0 0-4Z" clip-rule="evenodd"/></svg>