<svg xmlns="http://www.w3.org/2000/svg" width="24" height="24" viewBox="0 0 24 24"><path fill-rule="evenodd" d="M12 2a10 10 0 1 1 0 20 10 10 0 0 1 0-20Zm1 2.06V5a1 1 0 0 1-2 .12V4.06a8 8 0 0 0-6.9 6.68l-.04.26H5a1 1 0 0 1 .12 2H4.06a8 8 0 0 0 15.84.25l.04-.25H19a1 1 0 0 1-.12-2h1.06a7.98 7.98 0 0 0-2.24-4.62l-2.43 4.76-.15.3-.31.6a7.92 7.92 0 0 1-1.33 2.01 2.55 2.55 0 0 1-3.6.07 2.55 2.55 0 0 1 .07-3.6 7 7 0 0 1 1.7-1.17l.91-.47.85-.44 4.2-2.14A7.98 7.98 0 0 0 13 4.06Zm.16 6.78-.2.11-.22.11c-.4.21-.83.43-1.18.7l-.2.17-.07.09a.54.54 0 0 0 0 .69c.14.13.44.2.7 0l.08-.07.17-.2c.22-.28.4-.6.57-.93l.13-.25.22-.42Z" clip-rule="evenodd"/></svg>