<svg xmlns="http://www.w3.org/2000/svg" width="32" height="32" viewBox="0 0 32 32"><path fill-rule="evenodd" d="M16 2.67a13.3 13.3 0 0 1 8.44 3.01l-6.72 6.71a4 4 0 1 0 2 2.15l-.11-.27 6.71-6.71A13.33 13.33 0 1 1 16 2.67Zm-9.33 12H5.42c-.09.74-.11 1.48-.05 2.23l.05.44h1.25c.34 0 .67-.13.91-.36a1.31 1.31 0 0 0 .11-1.82 1.35 1.35 0 0 0-.86-.47h-.16Zm19.92 0h-1.25c-.34 0-.67.13-.91.36a1.31 1.31 0 0 0-.11 1.82c.22.26.53.43.86.47h1.41c.09-.74.11-1.48.05-2.23l-.05-.44Zm-10.58 0a1.33 1.33 0 0 1 0 2.66 1.33 1.33 0 0 1 0-2.66ZM9.47 7.58c-.56.44-1.08.93-1.55 1.47l-.34.41.88.88c.24.24.56.38.9.39a1.35 1.35 0 0 0 1.38-1.21c.03-.34-.07-.68-.28-.94l-.11-.13-.88-.88Zm6.54-2.24c-.45 0-.89.03-1.33.08v1.25a1.33 1.33 0 0 0 2.66 0V5.42a9.9 9.9 0 0 0-1.33-.08Z"/></svg>