<svg id="a" xmlns="http://www.w3.org/2000/svg" width="32" height="32" viewBox="0 0 32 32"><path d="m9.14,3.26c1.52,1.11,2.71,2.63,3.72,4.08l.59.86.56.82c.28.41.4.9.33,1.39-.06.49-.3.94-.68,1.26l-2.6,1.93c-.13.09-.21.22-.25.38-.03.15-.01.31.06.45.59,1.07,1.64,2.67,2.84,3.87,1.2,1.2,2.87,2.32,4.02,2.97.14.08.31.1.47.06.16-.04.3-.14.39-.28l1.69-2.58c.31-.41.77-.69,1.28-.77s1.03.04,1.46.33l.88.61c1.65,1.15,3.43,2.45,4.78,4.19.22.28.35.61.4.95.04.35,0,.7-.14,1.02-1.12,2.6-3.94,4.82-6.88,4.71l-.4-.02-.31-.03-.34-.04-.37-.05-.41-.07c-.07-.01-.14-.03-.21-.04l-.45-.1c-.08-.02-.16-.04-.23-.05l-.49-.13-.51-.15-.54-.17c-2.46-.83-5.59-2.47-8.79-5.68-3.2-3.2-4.84-6.33-5.68-8.79l-.17-.54-.15-.51-.13-.49-.1-.46c-.03-.14-.06-.29-.08-.43l-.07-.41-.05-.37-.04-.34-.03-.31-.02-.4c-.11-2.93,2.13-5.77,4.73-6.88.31-.13.65-.19.99-.15.34.04.66.16.94.36Zm10.85,4.79l.15.02c.97.17,1.86.65,2.55,1.35.68.71,1.13,1.62,1.26,2.59.05.34-.03.68-.23.96-.2.28-.49.47-.83.54-.33.07-.68,0-.97-.18-.29-.18-.5-.47-.58-.8l-.03-.15c-.05-.38-.22-.74-.47-1.03-.25-.29-.59-.5-.96-.61l-.21-.05c-.33-.06-.63-.24-.84-.52-.2-.27-.29-.61-.25-.95.04-.34.21-.65.47-.87.26-.22.59-.33.93-.31Zm.01-4.05c2.12,0,4.16.84,5.66,2.34,1.5,1.5,2.34,3.54,2.34,5.66,0,.34-.13.67-.36.91s-.55.4-.89.42c-.34.02-.67-.09-.93-.31-.26-.22-.43-.53-.47-.86v-.16c0-1.35-.52-2.66-1.45-3.65-.93-.99-2.19-1.59-3.54-1.68h-.35c-.35-.01-.69-.15-.94-.4-.25-.25-.39-.59-.39-.94s.14-.69.39-.94c.25-.25.59-.39.94-.39Z"/></svg>
