<svg xmlns="http://www.w3.org/2000/svg" width="24" height="24" viewBox="0 0 24 24"><path fill-rule="evenodd" d="M12 2a10 10 0 1 1 0 20 10 10 0 0 1 0-20Zm2.31 14.43a4.98 4.98 0 0 1-4.39.12l-.23-.12-2.19 2.19a7.96 7.96 0 0 0 8.74.17l.26-.17-2.19-2.19ZM5.38 7.5a7.96 7.96 0 0 0 0 9l2.19-2.19a4.98 4.98 0 0 1 0-4.62L5.38 7.5Zm13.24 0-2.19 2.2a4.98 4.98 0 0 1 0 4.62l2.19 2.19a7.96 7.96 0 0 0 0-9ZM12 9a3 3 0 1 0 0 6 3 3 0 0 0 0-6Zm0-5c-1.5 0-2.97.42-4.24 1.21l-.26.17 2.2 2.19a4.98 4.98 0 0 1 4.39-.12l.23.12 2.19-2.19A7.96 7.96 0 0 0 12 4Z" clip-rule="evenodd"/></svg>