<svg xmlns="http://www.w3.org/2000/svg" width="24" height="24" viewBox="0 0 24 24"><path fill-rule="evenodd" d="M20.08 6.16a1.52 1.52 0 0 0-.55-1.43 1.5 1.5 0 0 0-1.51-.21L.92 11.73c-1.19.5-1.25 2.23 0 2.75 1.24.52 2.5.99 3.77 1.42 1.17.39 2.44.74 3.46.84.28.33.63.66.99.95.55.45 1.2.91 1.88 1.36 1.36.89 2.87 1.74 3.89 2.3 1.22.66 2.67-.1 2.89-1.43l2.27-13.76ZM2.83 13.1l15.12-6.37-2.12 12.84c-1-.54-2.44-1.36-3.72-2.19a20.54 20.54 0 0 1-2.14-1.6l3.96-3.96a.99.99 0 0 0 .29-.71.99.99 0 0 0-1-1c-.27 0-.52.11-.71.29l-4.34 4.34c-.73-.09-1.76-.37-2.88-.74-.84-.28-1.66-.58-2.48-.9Z"/></svg>