<svg xmlns="http://www.w3.org/2000/svg" width="24" height="24" viewBox="0 0 24 24"><path d="M16.69 19.27A1 1 0 0 0 16 19H7.88q-.4.06-.65.36a1 1 0 0 0 .08 1.37q.3.26.69.27h8.12q.4-.06.65-.36a1 1 0 0 0-.08-1.37"/><path fill-rule="evenodd" d="M20 4c.5 0 .99.19 1.36.53s.6.81.63 1.32V7.5h-2V6h-16v1.5h-2V6c0-.5.19-.99.53-1.36s.81-.6 1.32-.63h16.15Zm0 10v2H4v-2H2v2.15A2 2 0 0 0 4 18h16.15A2 2 0 0 0 22 16v-2z"/><path d="M1.61 13q-.5 0-.85-.22a1.5 1.5 0 0 1-.56-.66q-.2-.44-.2-1.09c0-.65.07-.8.2-1.1q.2-.45.56-.69T1.61 9c.49 0 .61.07.83.22q.33.22.53.69l-.68.38a1 1 0 0 0-.23-.39q-.15-.15-.45-.15a.7.7 0 0 0-.56.24q-.21.24-.21.7v.62q0 .46.21.7t.56.24q.29 0 .46-.17t.26-.41l.65.4q-.2.44-.54.68-.33.24-.83.24Zm3.68-.07v-1.58H3.91v1.58h-.79V9.06h.79v1.54h1.38V9.06h.79v3.87zm4.24 0h-.82l-.26-.92H7.24l-.26.92h-.8l1.2-3.87h.98zM8.25 11.3l-.22-.8-.18-.66h-.03l-.18.66-.22.8zm3.47 1.63-.99-1.83-.35-.78h-.02v2.6h-.74V9.05h.86l.99 1.83.35.78h.02v-2.6h.74v3.87zm3.35 0-.99-1.83-.35-.78h-.02v2.6h-.74V9.05h.86l.99 1.83.35.78h.02v-2.6h.74v3.87zm3.72 0h-2.47V9.06h2.47v.75h-1.68v.79h1.44v.74h-1.44v.84h1.68zm2.45 0h-2.18V9.06h.79v3.12h1.39z"/><path d="M22.58 13q-.48 0-.81-.18a2 2 0 0 1-.57-.45l.52-.56a1.2 1.2 0 0 0 .91.44q.29 0 .43-.13t.14-.34a.4.4 0 0 0-.04-.19.2.2 0 0 0-.12-.14l-.26-.08-.36-.05a2 2 0 0 1-.63-.2 1 1 0 0 1-.36-.39 1 1 0 0 1-.12-.57q0-.35.16-.61.17-.27.47-.42t.73-.15c.43 0 .52.05.72.14q.32.14.54.4l-.53.57a1 1 0 0 0-.78-.37q-.27 0-.4.1a.3.3 0 0 0-.13.28q0 .13.04.22.05.09.14.13t.25.07l.36.06q.38.06.62.2t.36.38q.12.23.12.57 0 .38-.17.65-.16.29-.48.44t-.77.16Z"/></svg>