<svg xmlns="http://www.w3.org/2000/svg" width="24" height="24" viewBox="0 0 24 24"><path fill-rule="evenodd" d="M9 13c.53 0 1.04.21 1.41.59.38.38.59.88.59 1.41v4c0 .53-.21 1.04-.59 1.41-.38.38-.88.59-1.41.59H5c-.53 0-1.04-.21-1.41-.59A2 2 0 0 1 3 19v-4c0-.53.21-1.04.59-1.41.38-.38.88-.59 1.41-.59zm10 0c.5 0 .99.19 1.36.53s.6.81.63 1.32V19c0 .5-.19.99-.53 1.36s-.81.6-1.32.63h-4.15c-.5 0-.99-.19-1.36-.53s-.6-.81-.63-1.32v-4.15c0-.5.19-.99.53-1.36s.81-.6 1.32-.63zM9 15H5v4h4zm10 0h-4v4h4zm0-12c.5 0 .99.19 1.36.53s.6.81.63 1.32V9c0 .5-.19.99-.53 1.36s-.81.6-1.32.63h-4.15c-.5 0-.99-.19-1.36-.53s-.6-.81-.63-1.32V4.99c0-.5.19-.99.53-1.36s.81-.6 1.32-.63zM9 3c.5 0 .99.19 1.36.53s.6.81.63 1.32V9c0 .5-.19.99-.53 1.36s-.81.6-1.32.63H4.99c-.5 0-.99-.19-1.36-.53s-.6-.81-.63-1.32V4.99c0-.5.19-.99.53-1.36s.81-.6 1.32-.63zm10 2h-4v4h4zM9 5H5v4h4z"/></svg>