<svg xmlns="http://www.w3.org/2000/svg" width="24" height="24" viewBox="0 0 24 24"><path fill-rule="evenodd" d="M16.95 2.59a1 1 0 0 1 0 1.41l-3 3H19a2 2 0 0 1 2 2v10a2 2 0 0 1-2 2H5a2 2 0 0 1-2-2V9a2 2 0 0 1 2-2h3.64L7.05 5.41a1 1 0 0 1 1.42-1.4l2.47 2.47a.5.5 0 0 0 .7 0l3.9-3.9a1 1 0 0 1 1.41 0ZM19 9H5v10h14V9ZM8.98 11.55a1.23 1.23 0 0 1 1.72-1 22.3 22.3 0 0 1 4.28 2.47c.66.5.66 1.5 0 1.99a22.4 22.4 0 0 1-4.28 2.46 1.23 1.23 0 0 1-1.72-.99 22.52 22.52 0 0 1 0-4.93Zm1.9 1.3c-.04.78-.04 1.55 0 2.32.69-.35 1.36-.74 2.01-1.16-.65-.42-1.32-.8-2-1.16Z" clip-rule="evenodd"/></svg>