<svg xmlns="http://www.w3.org/2000/svg" width="24" height="24" viewBox="0 0 24 24"><path fill-rule="evenodd" d="M9.59 15.49c.53 0 1.04.21 1.41.59l1 1 1-1c.37-.38.88-.59 1.41-.59h4.02a2.97 2.97 0 0 1 2.91 2.28l.62 2.49c.03.13.04.26.03.39a.96.96 0 0 1-.13.37 1 1 0 0 1-1.67.07.97.97 0 0 1-.16-.36l-.62-2.49a.99.99 0 0 0-.97-.76h-4.02l-1 1a1.97 1.97 0 0 1-2.82 0l-1-1H5.58a1 1 0 0 0-.62.21.96.96 0 0 0-.35.55l-.62 2.49c-.03.13-.09.25-.16.36a1.06 1.06 0 0 1-.66.41 1.02 1.02 0 0 1-1.01-.48.96.96 0 0 1-.1-.76l.62-2.49a3.03 3.03 0 0 1 2.91-2.28h4.03Zm2.41-13c.78 0 1.66.19 2.38.39A3.68 3.68 0 0 1 17 6.49v4.01c0 1.59-.96 3.14-2.62 3.61-.72.2-1.6.39-2.38.39s-1.66-.19-2.38-.39A3.68 3.68 0 0 1 7 10.5V6.49c0-1.59.96-3.14 2.62-3.61A9.4 9.4 0 0 1 12 2.49Zm0 2a7.2 7.2 0 0 0-1.84.32C9.49 5 9 5.66 9 6.49v4.01c0 .83.49 1.49 1.16 1.68.67.19 1.33.32 1.84.32s1.18-.13 1.84-.32c.67-.19 1.16-.85 1.16-1.68V6.49c0-.83-.49-1.49-1.16-1.68A7.74 7.74 0 0 0 12 4.49Z"/></svg>