<svg xmlns="http://www.w3.org/2000/svg" width="24" height="24" viewBox="0 0 24 24"><path d="M8.87 2.6c2.09-.12 4.18-.12 6.27 0l.63.04c1.21.08 2.12.19 2.97.64a5.3 5.3 0 0 1 2.03 2.04c.53.98.58 2.04.66 3.55.08 1.42.08 2.84 0 4.26l-.05.91a6.12 6.12 0 0 1-.61 2.64 5.37 5.37 0 0 1-2.03 2.04c-.98.53-2.06.59-3.6.68-1.04.06-2.09.1-3.14.11h-1.55l-1.09-.01-2.24 1.79a.96.96 0 0 1-.51.21.98.98 0 0 1-.96-.46.99.99 0 0 1-.15-.53v-1.67a5.3 5.3 0 0 1-2.26-2.16c-.53-.99-.58-2.04-.66-3.55a37.84 37.84 0 0 1 0-4.26l.05-.91a6.3 6.3 0 0 1 .61-2.64 5.37 5.37 0 0 1 2.03-2.04c.98-.53 2.06-.59 3.6-.68Zm5.96 1.99a48.58 48.58 0 0 0-5.66 0l-.95.06c-1.1.08-1.57.16-2.01.39-.51.29-.93.72-1.22 1.22-.29.55-.34 1.13-.44 2.9a32.1 32.1 0 0 0 0 3.67l.04.75c.07 1.2.15 1.68.4 2.14.25.47.76.97 1.22 1.22.56.3 1.29.35 1.29 1.17v.29l.91-.73c.19-.15.43-.23.67-.22.49.02.97.03 1.46.03H12c.85 0 1.84-.04 2.83-.1l.74-.04c1.25-.08 1.76-.16 2.22-.41.51-.29.93-.72 1.22-1.22.29-.55.34-1.13.44-2.9a32.1 32.1 0 0 0 0-3.67l-.04-.75c-.07-1.2-.15-1.68-.4-2.14a3.25 3.25 0 0 0-1.22-1.22c-.55-.29-1.15-.35-2.96-.45ZM8.47 6.38a.78.78 0 0 1 .37-.06c.13.01.25.06.35.14.8.58 1.35 1.46 1.83 2.16.1.15.15.34.13.52a.73.73 0 0 1-.25.47l-.98.72s-.08.08-.09.14c-.01.06 0 .12.02.17.22.4.61 1 1.06 1.45.45.45 1.08.87 1.51 1.11.05.03.12.04.18.02a.25.25 0 0 0 .15-.1l.63-.97a.76.76 0 0 1 1.03-.17c.76.53 1.55 1.06 2.13 1.8.08.1.13.23.15.36a.7.7 0 0 1-.05.38c-.42.97-1.48 1.81-2.58 1.77h-.16c-.83-.07-2.74-.45-4.74-2.44-2.14-2.14-2.42-4.18-2.44-4.9-.04-1.1.8-2.16 1.77-2.58Zm4.63 2c.35.12.67.33.94.59.26.26.47.58.59.94a1 1 0 0 1-.56 1.26c-.24.1-.5.1-.74.02a1.06 1.06 0 0 1-.55-.49l-.05-.11a.53.53 0 0 0-.22-.27l-.08-.04c-.25-.09-.45-.27-.57-.51s-.13-.51-.04-.76.27-.45.51-.57a1 1 0 0 1 .76-.04Zm-.28-2.22a.98.98 0 0 1 .51-.57c.12-.06.25-.09.38-.1.13 0 .26.01.39.06a5.5 5.5 0 0 1 3.36 3.36 1 1 0 0 1-1.37 1.23.99.99 0 0 1-.51-.57 3.48 3.48 0 0 0-2.14-2.14.98.98 0 0 1-.57-.51 1.02 1.02 0 0 1-.1-.38c0-.13.01-.26.06-.39Z"/></svg>