<svg xmlns="http://www.w3.org/2000/svg" width="32" height="32" viewBox="0 0 32 32"><path fill-rule="evenodd" d="M22.6 5.8c.24-.25.38-.59.37-.94 0-.35-.14-.68-.39-.93s-.58-.39-.93-.39-.69.13-.94.37L15.52 9.1c-.12.12-.29.2-.47.2s-.35-.07-.47-.2l-3.3-3.3a1.3 1.3 0 0 0-1.46-.31 1.3 1.3 0 0 0-.73.73 1.3 1.3 0 0 0 .01 1.03c.07.16.17.31.3.43l2.11 2.11H6.66a2.67 2.67 0 0 0-2.67 2.67v13.33a2.67 2.67 0 0 0 2.67 2.67h18.67A2.67 2.67 0 0 0 28 25.79V12.46a2.67 2.67 0 0 0-2.67-2.67H18.6l4-4Zm-9.98 10.56c.02-.22.1-.43.22-.61s.28-.34.47-.44c.19-.11.4-.17.62-.18.22-.01.44.03.64.11a25.8 25.8 0 0 1 4.84 2.79c.76.56.76 1.68 0 2.24-.41.31-1.22.87-2.35 1.52a24.64 24.64 0 0 1-2.49 1.27c-.2.09-.42.13-.64.11a1.41 1.41 0 0 1-1.09-.62 1.45 1.45 0 0 1-.22-.61 26.08 26.08 0 0 1 0-5.58"/></svg>