<svg xmlns="http://www.w3.org/2000/svg" width="24" height="24" viewBox="0 0 24 24"><path d="M12 2a10 10 0 1 1 0 20 10 10 0 0 1 0-20Zm0 2a8 8 0 1 0 0 16.02A8 8 0 0 0 12 4ZM9.88 8.46 12 10.58l2.12-2.12a1.02 1.02 0 0 1 .7-.3 1 1 0 0 1 .7.3 1.02 1.02 0 0 1 .3.7 1 1 0 0 1-.3.7l-2.12 2.12 2.12 2.12c.19.19.29.44.29.71s-.11.52-.29.71-.44.29-.71.29-.52-.11-.71-.29l-2.12-2.12-2.12 2.12c-.19.19-.44.29-.71.29s-.52-.11-.71-.29-.29-.44-.29-.71.11-.52.29-.71l2.12-2.12-2.12-2.12a.99.99 0 0 1-.29-.71.99.99 0 0 1 1-1c.27 0 .52.11.71.29Z"/></svg>