<svg xmlns="http://www.w3.org/2000/svg" id="a" width="24" height="24" viewBox="0 0 24 24"><path d="M12 17.42a1.1 1.1 0 0 1 1.09 1.09A1.1 1.1 0 0 1 12 19.6a1.1 1.1 0 0 1-1.09-1.09A1.1 1.1 0 0 1 12 17.42Zm0-4.33c1.5 0 2.85.61 3.83 1.59.2.2.32.48.32.77s-.11.56-.32.77c-.2.2-.48.32-.77.32s-.56-.11-.77-.32a3.3 3.3 0 0 0-2.29-.96c-.9 0-1.71.36-2.3.95-.2.2-.48.32-.77.32s-.56-.11-.77-.32c-.2-.2-.32-.48-.32-.77s.11-.56.32-.77a5.46 5.46 0 0 1 3.83-1.59Zm0-4.33a9.73 9.73 0 0 1 6.89 2.86 1.1 1.1 0 0 1-1.54 1.54 7.6 7.6 0 0 0-8.26-1.65c-.92.38-1.76.94-2.46 1.65a1.1 1.1 0 0 1-1.54-1.54 9.66 9.66 0 0 1 6.89-2.86Zm0-4.33c3.89 0 7.41 1.58 9.96 4.13a1.1 1.1 0 0 1-1.54 1.54A11.97 11.97 0 0 0 12 6.61a11.85 11.85 0 0 0-8.42 3.49c-.2.2-.48.31-.76.3s-.56-.12-.76-.32c-.2-.2-.31-.47-.32-.76 0-.28.11-.56.3-.76A14.12 14.12 0 0 1 12 4.43Z"/></svg>